<?xml version="1.0" encoding="iso-8859-1"?>
<!-- Uploaded to: SVG Repo, www.svgrepo.com, Generator: SVG Repo Mixer Tools -->
<svg version="1.1" id="Capa_1" xmlns="http://www.w3.org/2000/svg" xmlns:xlink="http://www.w3.org/1999/xlink" 
	 viewBox="0 0 422.43 422.43" xml:space="preserve">
<g>
	<path style="fill:#CCFF66;" d="M213.835,28.156C211.544,17.783,202.274,10,191.222,10c-8.545,0-16.193,4.641-20.215,11.89
		c3.359,1.701,6.48,3.815,9.309,6.267H213.835z"/>
	<path style="fill:#669933;" d="M159.907,50.221c8.701,0,17.221,1.357,25.32,3.995c-4.105-15.767-18.129-27.218-34.791-27.218
		c-18.066,0-33.053,13.436-35.492,30.842h10.57C135.977,52.965,147.622,50.221,159.907,50.221z"/>
	<path style="fill:#CCFF66;" d="M87.403,76.033c-14.152,0-25.949,10.277-28.324,23.76h25.643c3.406-7.916,8.037-15.18,13.639-21.576
		C94.911,76.789,91.206,76.033,87.403,76.033z"/>
	<path style="fill:#669933;" d="M341.356,146.246c-5.26-4.929-12.221-7.734-19.635-7.734c-14.152,0-25.951,10.275-28.324,23.758
		h27.328C325.686,154.95,332.899,149.278,341.356,146.246z"/>
	<path style="fill:#669933;" d="M234.616,60.221c-18.066,0-33.053,13.435-35.492,30.84h70.986
		C267.671,73.656,252.683,60.221,234.616,60.221z"/>
	<path style="fill:#CCFF66;" d="M63.753,148.213c-14.152,0-25.951,10.275-28.324,23.758h33.217
		c5.225-5.219,12.148-8.729,19.859-9.634C83.401,153.775,74.005,148.213,63.753,148.213z"/>
	<path style="fill:#669933;" d="M224.671,101.061h-30.895c-2.762,0-5-2.238-5-5c0-9.524,2.922-18.378,7.914-25.717
		c-11.094-6.636-23.705-10.123-36.783-10.123c-37.922,0-69.074,29.539-71.648,66.818h143.293
		C230.923,118.018,228.554,109.178,224.671,101.061z"/>
	<path style="fill:#669933;" d="M92.458,172.098c-11.355,0-20.871,8.025-23.174,18.703h46.348
		C113.331,180.123,103.813,172.098,92.458,172.098z"/>
	<path style="fill:#CCFF66;" d="M355.479,153.793c-15.92,0-29.158,11.701-31.564,26.955h63.131
		C384.638,165.494,371.399,153.793,355.479,153.793z"/>
	<path style="fill:#CC9933;" d="M122.185,336.836c-8.844,1.541-15.242,3.196-19.799,4.728H282.96
		c-4.555-1.532-10.949-3.188-19.793-4.728c-19.217-3.348-44.252-5.191-70.492-5.191S141.401,333.488,122.185,336.836z"/>
	<path style="fill:#FFCC66;" d="M311.489,203.482c-6.176-1.014-13.178-2.162-21.049-2.586c-17.432-0.947-28.809,8.197-37.115,14.867
		c-0.953,0.764-1.85,1.484-2.695,2.139c-0.912,0.707-1.992,0.989-3.061,1.051c-2.891,0.164-4.357-2.524-4.508-2.838
		c-7.457-15.437-26.584-31.277-56.852-47.08c-16.932-8.842-26.881-19.347-30.322-31.996h-15.25
		c2.375,12.197,9.354,27.91,27.811,41.877c6.016,4.553,12.025,8.264,17.838,11.852l2.395,1.48l-0.006,0.021
		c1.779,1.107,2.75,3.247,2.234,5.396c-0.15,0.623-1.66,6.176-8.443,8.908c-2.355,0.947-5.035,1.422-8.033,1.422
		c-10.58,0-25.141-5.893-43.455-17.607c-2-1.279-4-2.42-5.994-3.427c0.617,2.272,1.006,4.638,1.133,7.072
		c1.529,1.321,35.68,42.389,82.447,22.8c2.547-1.066,5.476-0.074,6.641,2.43c0.086,0.186,12.85,40.079-46.662,54.299
		c-19.879,4.75-33.42,12.582-39.967,24.506c-5.98,10.895-4.787,22.326-3.547,28.165c19.061-2.972,42.715-4.589,67.647-4.589
		c7.641,0,15.154,0.156,22.461,0.453l-15.801-18.465c-0.943-1.102-1.361-2.562-1.145-3.996c0.217-1.436,1.047-2.707,2.273-3.482
		c0.334-0.211,39.318-23.028,44.943-54.961c0.287-1.629,1.564-2.807,2.992-3.379l-0.006-0.014
		c0.293-0.119,12.635-5.223,24.057-17.365c7.842-8.338,20.135-7.525,33.148-6.666c16.268,1.077,30.826,2.02,39.176-11.779
		C334.526,207.254,323.888,205.52,311.489,203.482z"/>
	<rect x="84.075" y="403.5" style="fill:#FF6666;" width="43.24" height="8.93"/>
	<path style="fill:#CC6633;" d="M53.005,368.756c0,13.645,11.1,24.744,24.744,24.744h229.854c13.643,0,24.744-11.1,24.744-24.744
		v-1.258H53.005V368.756z"/>
	<rect x="258.034" y="403.5" style="fill:#FF6666;" width="43.242" height="8.93"/>
	<rect x="53.005" y="351.564" style="fill:#FF6666;" width="279.342" height="5.934"/>
	<path style="fill:#663333;" d="M355.479,143.793c-0.959,0-1.908,0.045-2.852,0.108c-7.312-9.685-18.643-15.39-30.906-15.39
		c-21.373,0-38.76,17.387-38.76,38.758c0,2.762,2.238,5,5,5h27.795c-1.439,4.234-2.232,8.764-2.232,13.479c0,2.762,2.238,5,5,5
		h25.297c-8.57,6.494-17.32,5.065-30.711,2.867c-6.43-1.055-13.717-2.252-22.133-2.705c-19.656-1.051-33.264,8.608-41.904,15.451
		c-9.783-15.717-28.914-30.881-58.234-46.189c-12.992-6.785-21.016-14.399-24.408-23.133h70.297c2.762,0,5-2.238,5-5
		c0-10.631-2.094-21.195-6.084-30.979h39.815c2.762,0,5-2.238,5-5c0-25.275-20.565-45.84-45.842-45.84
		c-12.117,0-23.143,4.733-31.346,12.438c-2.307-1.445-4.676-2.763-7.094-3.963c-0.795-7.551-3.34-14.529-7.199-20.539h30.402
		c2.762,0,5-2.238,5-5C224.38,14.875,209.505,0,191.222,0c-12.758,0-24.143,7.213-29.68,18.367
		c-3.557-0.891-7.275-1.369-11.106-1.369c-25.277,0-45.84,20.565-45.84,45.842c0,2.669,2.098,4.83,4.73,4.973
		c-1.189,0.939-2.363,1.9-3.5,2.903c-5.639-3.058-11.928-4.683-18.424-4.683c-21.371,0-38.758,17.387-38.758,38.76
		c0,2.762,2.238,5,5,5h27.541c-2.004,7.078-3.1,14.534-3.1,22.246c0,2.762,2.238,5,5,5h47.387
		c2.371,14.325,10.07,33.303,31.939,49.852c5.35,4.048,10.764,7.51,15.748,10.607c-3.957,1.241-15.137,1.519-41.795-15.533
		c-6.236-3.99-12.543-6.861-18.771-8.576c-4.598-5.147-10.746-8.883-17.707-10.456c-5.732-14.7-20.164-24.72-36.135-24.72
		c-21.373,0-38.76,17.387-38.76,38.758c0,2.762,2.238,5,5,5h31.742c-1.908,4.224-2.98,8.902-2.98,13.83c0,2.762,2.238,5,5,5h54.877
		c1.637,1.363,28.641,32.549,64.584,31.662c7.936-0.196,15.836-1.362,23.48-4.092c0.051,1.525,0.042,25.821-40.275,35.42
		c-22.824,5.434-38.609,14.893-46.611,29.465c-7.373,13.429-6.17,27.227-4.633,34.717c-20.881,4.169-28.664,9.177-31.42,13.592
		H48.005c-2.762,0-5,2.238-5,5v22.191c0,17.917,13.633,32.707,31.07,34.549v14.125c0,2.762,2.238,5,5,5h53.24c2.762,0,5-2.238,5-5
		V403.5h110.719v13.93c0,2.762,2.238,5,5,5h53.242c2.762,0,5-2.238,5-5v-14.125c17.436-1.842,31.07-16.632,31.07-34.549v-22.191
		c0-2.762-2.238-5-5-5h-35.76c-2.846-4.56-11.047-9.751-33.502-13.998c-11.279-2.133-24.617-3.729-39.15-4.725l-18.357-21.451
		c36.244-23.263,43.07-52.727,43.854-55.348c4.596-2.206,15.199-8.016,25.303-18.756c4.609-4.9,14.613-4.238,25.205-3.539
		c19.748,1.302,46.533,3.07,54.642-33h32.855c2.762,0,5-2.238,5-5C397.436,162.615,378.614,143.793,355.479,143.793z
		 M35.429,171.971c2.373-13.482,14.172-23.758,28.324-23.758c10.252,0,19.648,5.562,24.752,14.124
		c-7.711,0.905-14.635,4.415-19.859,9.634H35.429z M69.284,190.801c2.303-10.678,11.818-18.703,23.174-18.703
		s20.873,8.025,23.174,18.703H69.284z M293.397,162.27c2.373-13.482,14.172-23.758,28.324-23.758c7.414,0,14.375,2.806,19.635,7.734
		c-8.457,3.032-15.67,8.704-20.631,16.023H293.397z M234.616,60.221c18.066,0,33.055,13.435,35.494,30.84h-70.986
		C201.564,73.656,216.55,60.221,234.616,60.221z M191.222,10c11.053,0,20.322,7.783,22.613,18.156h-33.52
		c-2.828-2.451-5.949-4.565-9.309-6.267C175.028,14.641,182.677,10,191.222,10z M150.436,26.998
		c16.662,0,30.686,11.451,34.791,27.218c-8.1-2.638-16.619-3.995-25.32-3.995c-12.285,0-23.93,2.744-34.393,7.619h-10.57
		C117.384,40.434,132.37,26.998,150.436,26.998z M59.079,99.793c2.375-13.482,14.172-23.76,28.324-23.76
		c3.803,0,7.508,0.756,10.957,2.184c-5.602,6.396-10.232,13.66-13.639,21.576H59.079z M88.259,127.039
		c2.574-37.279,33.727-66.818,71.648-66.818c13.078,0,25.689,3.487,36.783,10.123c-4.992,7.339-7.914,16.192-7.914,25.717
		c0,2.762,2.238,5,5,5h30.895c3.883,8.117,6.252,16.957,6.881,25.979H88.259z M127.315,412.43h-43.24v-8.93h43.24V412.43z
		 M301.276,412.43h-43.242v-8.93h43.242V412.43z M332.347,368.756c0,13.645-11.102,24.744-24.744,24.744H77.749
		c-13.645,0-24.744-11.1-24.744-24.744v-1.258h279.342V368.756z M332.347,351.564v5.934H53.005v-5.934H332.347z M263.167,336.836
		c8.844,1.541,15.238,3.196,19.793,4.728H102.386c4.557-1.532,10.955-3.188,19.799-4.728c19.217-3.348,44.25-5.191,70.49-5.191
		S243.95,333.488,263.167,336.836z M305.599,213.77c-13.014-0.859-25.307-1.672-33.148,6.666
		c-11.422,12.143-23.764,17.246-24.057,17.365l0.006,0.014c-1.428,0.572-2.705,1.75-2.992,3.379
		c-5.625,31.933-44.609,54.75-44.943,54.961c-1.227,0.775-2.057,2.047-2.273,3.482c-0.217,1.434,0.201,2.895,1.145,3.996
		l15.801,18.465c-7.307-0.297-14.82-0.453-22.461-0.453c-24.932,0-48.586,1.617-67.647,4.589c-1.24-5.839-2.434-17.271,3.547-28.165
		c6.547-11.924,20.088-19.756,39.967-24.506c59.512-14.22,46.748-54.113,46.662-54.299c-1.164-2.504-4.094-3.496-6.641-2.43
		c-46.768,19.589-80.918-21.479-82.447-22.8c-0.127-2.435-0.516-4.8-1.133-7.072c1.994,1.007,3.994,2.147,5.994,3.427
		c18.315,11.715,32.875,17.607,43.455,17.607c2.998,0,5.678-0.475,8.033-1.422c6.783-2.732,8.293-8.285,8.443-8.908
		c0.516-2.149-0.455-4.289-2.234-5.396l0.006-0.021l-2.395-1.48c-5.812-3.588-11.822-7.299-17.838-11.852
		c-18.457-13.967-25.436-29.68-27.811-41.877h15.25c3.441,12.649,13.391,23.154,30.322,31.996
		c30.268,15.803,49.395,31.644,56.852,47.08c0.15,0.313,1.617,3.002,4.508,2.838c1.068-0.061,2.148-0.344,3.061-1.051
		c0.846-0.654,1.742-1.375,2.695-2.139c8.307-6.67,19.684-15.814,37.115-14.867c7.871,0.424,14.873,1.572,21.049,2.586
		c12.398,2.037,23.037,3.771,33.285-1.492C336.425,215.789,321.866,214.847,305.599,213.77z M323.915,180.748
		c2.406-15.254,15.645-26.955,31.564-26.955c15.92,0,29.158,11.701,31.566,26.955H323.915z"/>
</g>
</svg>