<svg xmlns="http://www.w3.org/2000/svg" viewBox="0 0 500 500"><g id="freepik--big-heart--inject-376"><path id="freepik--Heart--inject-376" d="M360.58,32.94c-53.79,0-100.51,37.52-110.58,87.28-10.07-49.76-56.79-87.28-110.58-87.28-61.21,0-110.83,48.57-110.83,108.48,0,115.59,103.79,183.71,148.11,212.8,3.92,2.57,7.35,4.78,10,6.69l63.27,39,63.27-39c2.68-1.91,6.11-4.12,10-6.69,44.32-29.09,148.11-97.21,148.11-212.8C471.41,81.51,421.79,32.94,360.58,32.94Z" style="fill:#f5f5f5"></path></g><g id="freepik--Clouds--inject-376"><g id="freepik--clouds--inject-376"><path d="M51.25,393.9a13.22,13.22,0,0,1,6.14,1.51c-2.44-8.08-.2-14.3,3.45-15.47,5.78-1.85,11.09,3.2,10.81,11.07,2.79-6.52,8.72-9,13.11-6.42-3-6.66-2.55-12.57.53-15.43,7-6.53,18-2.9,22.87,8.52-.44-12.41,8-20.37,17.06-17.45,5.1,1.64,8.46,9.54,6.47,20.19a18.09,18.09,0,0,1,25.79,24,9.1,9.1,0,0,1,1.58-.15,8.4,8.4,0,0,1,8.4,8.4c0,4.64-3.94,8.55-8.4,9.83-29.81,8.56-80.95,7.67-106.42-.67-7-2.28-14.64-7.32-14.64-14.64A13.25,13.25,0,0,1,51.25,393.9Z" style="fill:#009C86"></path><path d="M51.25,393.9a13.22,13.22,0,0,1,6.14,1.51c-2.44-8.08-.2-14.3,3.45-15.47,5.78-1.85,11.09,3.2,10.81,11.07,2.79-6.52,8.72-9,13.11-6.42-3-6.66-2.55-12.57.53-15.43,7-6.53,18-2.9,22.87,8.52-.44-12.41,8-20.37,17.06-17.45,5.1,1.64,8.46,9.54,6.47,20.19a18.09,18.09,0,0,1,25.79,24,9.1,9.1,0,0,1,1.58-.15,8.4,8.4,0,0,1,8.4,8.4c0,4.64-3.94,8.55-8.4,9.83-29.81,8.56-80.95,7.67-106.42-.67-7-2.28-14.64-7.32-14.64-14.64A13.25,13.25,0,0,1,51.25,393.9Z" style="fill:#fff;opacity:0.85"></path><path d="M169.79,401.39c10.8-1.34,14.63-8.17,12.82-10.84s-5.68-2.3-8.14,1.07c1.08-4-1.07-7.28-4.28-7s-6.12,7.54-.39,16.78Z" style="fill:#009C86"></path><path d="M169.79,401.39c10.8-1.34,14.63-8.17,12.82-10.84s-5.68-2.3-8.14,1.07c1.08-4-1.07-7.28-4.28-7s-6.12,7.54-.39,16.78Z" style="fill:#fff;opacity:0.85"></path><path d="M74.53,374.57c4.27-7.37,1.83-13-.68-13.12s-4.13,2.45-3.19,5.58c-2-2.58-5-2.78-6.39-.65s1.8,7.38,10.27,8.18Z" style="fill:#009C86"></path><path d="M74.53,374.57c4.27-7.37,1.83-13-.68-13.12s-4.13,2.45-3.19,5.58c-2-2.58-5-2.78-6.39-.65s1.8,7.38,10.27,8.18Z" style="fill:#fff;opacity:0.85"></path></g><g id="freepik--clouds--inject-376"><path d="M461.69,408.5c-.51-13.61-11-24.27-23.5-23.81a21.25,21.25,0,0,0-3.59.48c3.25-8.44,2.38-16-1.67-19.95-10-9.92-25.81-5.54-32.85,10.48.66-17.79-11.37-29.87-24.46-26.37-5.8,1.55-10,8.84-10.13,19.49-1.71-3.17-4.1-5-6.66-5.23-8.88-.7-15.38,8.6-13,20.08-6.31-9.56-17-10.5-22.48-2.85-2.41,3.38-1.87,9.06,2.05,14.65a17,17,0,0,0-2.27-.09c-9.62.36-17.11,9.16-16.72,19.66s8.83,17.65,18.2,20.17c17,4.58,77.27,7.83,115.42-1.24C452.19,431.08,462.19,422.1,461.69,408.5Z" style="fill:#009C86"></path><path d="M461.69,408.5c-.51-13.61-11-24.27-23.5-23.81a21.25,21.25,0,0,0-3.59.48c3.25-8.44,2.38-16-1.67-19.95-10-9.92-25.81-5.54-32.85,10.48.66-17.79-11.37-29.87-24.46-26.37-5.8,1.55-10,8.84-10.13,19.49-1.71-3.17-4.1-5-6.66-5.23-8.88-.7-15.38,8.6-13,20.08-6.31-9.56-17-10.5-22.48-2.85-2.41,3.38-1.87,9.06,2.05,14.65a17,17,0,0,0-2.27-.09c-9.62.36-17.11,9.16-16.72,19.66s8.83,17.65,18.2,20.17c17,4.58,77.27,7.83,115.42-1.24C452.19,431.08,462.19,422.1,461.69,408.5Z" style="fill:#fff;opacity:0.75"></path><path d="M350.21,435.52a13.18,13.18,0,0,0-6.13,1.51c2.44-8.08.19-14.3-3.45-15.46-5.78-1.86-11.1,3.2-10.82,11.06-2.79-6.51-8.71-9-13.1-6.42,3-6.66,2.54-12.56-.53-15.43-7-6.53-18-2.89-22.87,8.52.44-12.41-7.95-20.37-17.07-17.44-5.09,1.63-8.45,9.53-6.46,20.18A18.09,18.09,0,0,0,244,446a8.36,8.36,0,0,0-10,8.24c0,4.64,3.94,8.55,8.4,9.83,29.81,8.56,81,7.67,106.42-.67,7-2.27,14.64-7.32,14.64-14.64A13.25,13.25,0,0,0,350.21,435.52Z" style="fill:#009C86"></path><path d="M350.21,435.52a13.18,13.18,0,0,0-6.13,1.51c2.44-8.08.19-14.3-3.45-15.46-5.78-1.86-11.1,3.2-10.82,11.06-2.79-6.51-8.71-9-13.1-6.42,3-6.66,2.54-12.56-.53-15.43-7-6.53-18-2.89-22.87,8.52.44-12.41-7.95-20.37-17.07-17.44-5.09,1.63-8.45,9.53-6.46,20.18A18.09,18.09,0,0,0,244,446a8.36,8.36,0,0,0-10,8.24c0,4.64,3.94,8.55,8.4,9.83,29.81,8.56,81,7.67,106.42-.67,7-2.27,14.64-7.32,14.64-14.64A13.25,13.25,0,0,0,350.21,435.52Z" style="fill:#fff;opacity:0.85"></path><path d="M305.13,399.87c4.19-10,.17-16.75-3-16.51s-4.82,3.78-3.12,7.6c-3-2.95-6.85-2.69-8.21.23s3.5,9.05,14.38,8.67Z" style="fill:#009C86"></path><path d="M305.13,399.87c4.19-10,.17-16.75-3-16.51s-4.82,3.78-3.12,7.6c-3-2.95-6.85-2.69-8.21.23s3.5,9.05,14.38,8.67Z" style="fill:#fff;opacity:0.75"></path><path d="M446.67,377.26c17.2,2.37,25.91-6.58,24.23-11.44s-7.81-5.9-13-1.7c3.33-5.78,1.35-11.67-3.71-12.58s-12.54,9.1-7.51,25.72Z" style="fill:#009C86"></path><path d="M446.67,377.26c17.2,2.37,25.91-6.58,24.23-11.44s-7.81-5.9-13-1.7c3.33-5.78,1.35-11.67-3.71-12.58s-12.54,9.1-7.51,25.72Z" style="fill:#fff;opacity:0.75"></path></g></g><g id="freepik--Hearts--inject-376"><g id="freepik--hearts--inject-376"><path d="M421.39,220c-5.63-5.25-14.46-2.32-18.39,6.86.36-10-6.39-16.39-13.72-14s-10.22,20.82,8.08,39.28C421.78,243.19,427,225.24,421.39,220Z" style="fill:#009C86"></path><path d="M453.44,197.41c-3.08-4.94-10.1-4.55-14.78,1.37,2.23-7.21-1.43-13.21-7.25-12.94S419.85,199,429.57,216.1C449.15,214.41,456.51,202.35,453.44,197.41Z" style="fill:#009C86"></path><path d="M400,172.54c-4.74-.5-8,4.22-6.56,10.22-3.53-5.06-9.25-5.73-12-1.84S384.1,195,400,197.36C408.78,183.88,404.71,173.05,400,172.54Z" style="fill:#009C86"></path></g><g id="freepik--hearts--inject-376"><path d="M125,279.94c-7.69-.16-12.33,7.9-9.15,17.37-6.38-7.68-15.68-8-19.58-1.33s6.25,22.34,32.2,23.92C140.75,297,132.71,280.11,125,279.94Z" style="fill:#009C86"></path><path d="M135.65,234.44c-4.74-3.37-11.07-.31-13.1,7-.72-7.51-6.41-11.64-11.68-9.15s-5.59,16.62,9.95,28.64C138.24,251.79,140.39,237.82,135.65,234.44Z" style="fill:#009C86"></path><path d="M78,252.53c-4.46,1.67-5.28,7.36-1.28,12.07-5.42-3-10.83-1-11.55,3.73s8.72,11.4,24,6.36C91,258.71,82.49,250.85,78,252.53Z" style="fill:#009C86"></path></g></g><g id="freepik--Cupid--inject-376"><g id="freepik--cupid--inject-376"><g id="freepik--Wings--inject-376"><path d="M205.38,147c-13.31-7.8-30.59-6.48-50-26.25C139,104.12,129.53,74.16,121,88.92c-3.58,7.23,3.12,29.28,8.48,37.11-13.87-11.64-19-10.32-16.78,3.22,2.85,17.47,16.92,33.69,16.92,33.69s-12.54-.75-5.2,12.18c9.69,17.07,36.44,23.63,36.44,23.63s-22-.29-12.91,8a28.45,28.45,0,0,0,9.22,5c32.37,11.72,69.23-18.87,62.66-48.46C218,155.18,210.67,150.07,205.38,147Z" style="fill:#e6e6e6"></path><path d="M205.38,147c-13.31-7.8-30.59-6.48-50-26.25-6.08-6.18-11.21-14.21-15.7-21.09l-5.21-4.44c4.08,16.74,10.91,29.35,24.62,42.67,20.16,19.61,33,18.76,44.36,30.67,10.6,11.15,4.79,32.49-6.51,38.68,16.74-6.06,27-25.33,22.88-43.95C218,155.18,210.67,150.07,205.38,147Z" style="fill:#e0e0e0"></path><path d="M220.19,176.65c2.92-11.8-.09-28.42-19.83-34.3-26.47-7.88-43.47-20.62-58.69-46-7.4-12.32-18.26-16.38-21.33-5.67,2.51-6.06,10-3.71,15.91,7.59,6.83,13.08,14.79,27,35.85,38.8s30.29,11,37.69,17C215.39,158.74,219.29,167.44,220.19,176.65Z" style="fill:#fafafa"></path><path d="M273.81,157.34c14.9-6,32.5-2.07,55.52-19.51,19.35-14.66,33.63-44.12,40.24-27.62,2.6,8-7.63,29.71-14.33,37,16.05-9.91,21.12-7.78,16.81,5.84-5.57,17.58-33.59,31.58-33.59,31.58s23.88-1.28,13.49,10.2c-9.91,10.95-44.21,12.79-44.21,12.79s22.72,3,12.11,10.17a29.92,29.92,0,0,1-10.26,3.76c-35.12,7.21-64.31-20.05-53.09-49.57C259.57,163.9,267.89,159.74,273.81,157.34Z" style="fill:#e6e6e6"></path><path d="M273.81,157.34c14.9-6,32.5-2.07,55.52-19.51,7.2-5.46,13.7-13,19.36-19.38l6-3.79c-6.72,16.64-15.66,28.61-31.79,40.28-23.74,17.17-36.88,14.35-50.35,24.93-12.6,9.9-8.56,29,2.15,37.1-16.34-8.76-25.29-26.44-18.23-45C259.57,163.9,267.89,159.74,273.81,157.34Z" style="fill:#e0e0e0"></path><path d="M254.08,185.7c-1.23-12.6,4.37-29.28,25.61-32.37,28.46-4.14,47.9-14.7,67.4-38.53,9.49-11.58,21.29-14.14,22.84-2.64-1.67-6.62-9.75-5.33-17.54,5.43-9,12.45-19.31,25.61-42.79,34.59s-32.88,6.74-41.42,11.88C261.72,168,256.39,176.34,254.08,185.7Z" style="fill:#fafafa"></path></g><g id="freepik--Bottom--inject-376"><path id="freepik--Leg--inject-376" d="M199.2,353.87c3.7,7.9,11,23.22,11.53,33.07a40.73,40.73,0,0,1-.57,12.44,42,42,0,0,0-1.08,6.88c0,6.61,15.72,3,19.71-4.56,5.05-9.53-.17-16.59,2.75-22,2.48-4.59,2.14-9.51-.93-11.89-3.46-2.69-4.28-3.43-5.2-7.77-1-4.92-1.12-9.26-2.21-15.78-1.71-10.21-1.42-17.29-6.51-23.49l9.72-38.55-40.26-33c-2.19,18.1-4.87,55.39-1,72.12C187.46,331.18,195.5,346,199.2,353.87Z" style="fill:#ffc4c3"></path><path d="M273.37,247c-33.76,20.32-82.79,6.81-86.47-7.52a27.16,27.16,0,0,0-.84,10.5c3.86,8.56,15.62,22.48,33,29.94,12.55,5,54.72-12.49,59.36-19.42C278.43,260.49,276.13,251.47,273.37,247Z" style="fill:#009C86"></path><g id="freepik--leg--inject-376"><path d="M278.43,260.49c-.94-3.51-30.69-.77-56.69,16.69-18.93,12.71-18.79,19.34-19,26.66-.17,5.35,4.79,16.23,15.1,30.23,9.21,12.5,15.16,20.75,17.56,30.32a40.31,40.31,0,0,1,1.79,12.33,42,42,0,0,0,.24,6.95c1.25,6.5,16,0,18.49-8.16,3.17-10.31-3.29-16.27-1.45-22.12,1.57-5,.31-9.75-3.15-11.51-3.91-2-5.22-2.43-6.57-6.66S240.79,320,239,316.94c0,0,11.47-5,25.15-16.13S283.07,276.43,278.43,260.49Z" style="fill:#ffc4c3"></path><path d="M218.31,279.57c-2.31,2-4.6,4-6.72,6.1a36.83,36.83,0,0,0-5.61,6.88,17.77,17.77,0,0,0-1.74,3.92,15.13,15.13,0,0,0-.57,4.19A26.76,26.76,0,0,0,204,305a29.4,29.4,0,0,0,1.16,4.22,64.82,64.82,0,0,0,3.47,8.22c1.3,2.7,2.78,5.32,4.29,7.93,3,5.2,6.52,10.17,9.7,15.36a162.5,162.5,0,0,1-11.24-14.4A72.4,72.4,0,0,1,203,309.94a31.26,31.26,0,0,1-1.19-4.57,26.18,26.18,0,0,1-.33-4.75,16.63,16.63,0,0,1,3-9.05,33,33,0,0,1,6.38-6.75A64.55,64.55,0,0,1,218.31,279.57Z" style="fill:#ffa8a7"></path><path d="M239,316.94a17.83,17.83,0,0,0-2.67-3.83,9.68,9.68,0,0,1,3.48,3.45Z" style="fill:#ffa8a7"></path></g></g><g id="freepik--Top--inject-376"><g id="freepik--Chest--inject-376"><path d="M214.46,152.63c-13.19-4-18.68-1.53-30.34-1-14,.61-37.62-2-44.79,4.89-4.5,4.32-2.55,7.64-1.82,9.84s18.13,8.86,18.13,8.86,23.17.88,35.48,2c12,1.05,12.4,5,12.4,5Z" style="fill:#ffc4c3"></path><path d="M199.93,163.24a30,30,0,0,0-5.61,9.2s-9.51,2.23-11.92,2.07-4.76-1.76-6.68-4c-3.07-3.6-9.69-12.38-16.57-12.53l5.27,17.6c7.86.36,19.26.94,26.7,1.59,12,1.05,12.4,5,12.4,5l3.72-11.73Z" style="fill:#ffa8a7"></path><path d="M194,178.48c-3.09,11.37-1.63,14.82-.08,18.64-.71,6.24-14.81,21-7,42.35,8.2,22.39,55.79,28.83,85.46,8.76,1.22-9.17,1.76-9.58-.06-25.26-1.35-11.68-2.32-16.91-3.11-32.66-1-20.25-7.71-28-7.71-28-6.49-1.84-9.94-2-11.59-3.12-1.18-.79-1.61-1.43-1.62-3.24l-29.67-7.17c0,3.73-2,4.15-4.14,3.86C204.85,153.57,197.33,166.14,194,178.48Z" style="fill:#ffc4c3"></path><path d="M216.62,152.58c-9.63,4.36-13.71,32.46.15,57.74,16.07,29.28,54.77,37.23,56.67,25.23,0,0,1.36,0,1.9,6.4.42,4.89.86,6.25-.59,7.69-12.54,9.22-50.44-2.32-67.52-31.57s-10.43-63.69-.5-67.23C209.38,150,216.87,151.4,216.62,152.58Z" style="fill:#455a64"></path><path d="M272.3,223c-1.35-11.68-2.32-16.91-3.11-32.66-.07-1.43-.17-2.79-.27-4.1l-10.23-1.15c-1.33,5.63.14,11.61,2.44,17.18s11.31,23.86,11.5,24.24C272.54,225.34,272.44,224.17,272.3,223Z" style="fill:#ffa8a7"></path><path d="M215,235.53c.16-.2.35-.36.53-.55a.89.89,0,0,0,.12-.89c-.1-.26-.4-.7-.74-.55.12,0-.15,0-.17.05a1.4,1.4,0,0,0-.17.09l-.42.29a4.21,4.21,0,0,0-.64.56,5.15,5.15,0,0,0-.89,1.45c-.56,1.28-.9,3.3.31,4.3.08.06.24.16.35.11.57-.26.54-.92.5-1.43v-.07a.86.86,0,0,1,0-.16c0-.14,0-.29,0-.43a3,3,0,0,1,.06-.43.6.6,0,0,1,0-.12,1.21,1.21,0,0,0,0-.14c.05-.15.11-.3.17-.46l0,0a5,5,0,0,1,.4.51c.34.51.52,1.09.81,1.62.14.26.38,0,.4-.18a3,3,0,0,0-.39-1.7,6.16,6.16,0,0,0-.81-1.2h0A6.76,6.76,0,0,1,215,235.53Z" style="fill:#b16668"></path></g><g id="freepik--Head--inject-376"><path d="M219.05,145.27c-2.42-6.61-10.46-12.45-16-22.1-7.32-12.78-5.79-33.22,9-37.84.84-5.38,9.76-11.44,17.32-12.46a40.77,40.77,0,0,1,15.93,1.07,51.46,51.46,0,0,0,17.87,1.75c2.42-.22,5-.56,7.14.6a6.81,6.81,0,0,1,3.24,6A11.29,11.29,0,0,1,271,88.89a5.84,5.84,0,0,1-.24,11.32c1.25,2.55.31,5.8-1.71,7.79a12.52,12.52,0,0,1-7.74,3.15c.08,0-1.7,5.63-2,6.14a23.46,23.46,0,0,1-3.75,5.55,23,23,0,0,1-5.18,4.24c-2.18,1.3-4.66,1.66-7.08,2.44a22.24,22.24,0,0,0-4.17,1.49,15.59,15.59,0,0,0-2.33,2.27l-13.37,12.93C222.5,147.2,220.21,145.25,219.05,145.27Z" style="fill:#f0997a"></path><path d="M218.52,124.22a1.93,1.93,0,0,1-.35.29c-1.94,1.26-1.92-2.11-3.83-4.33a5,5,0,0,0-4.16-1.63c-3.09.19-4.94,1.49-6,3.75-1.92,4.09.3,10.38,5.72,12.25a7.63,7.63,0,0,0,8.22-1.7l.77,25.5s1,2.46,6.36,5c5.5,2.55,23-1,23-1l-.07-10.9a30.5,30.5,0,0,0,8.67-1.5c11.06-3.8,12.26-11.06,13.28-15,1.62-6.15-1-13-1.69-16.84-.5-2.88.07-5.61.07-9.25s-1.75-9.53-4.33-12.66c-3.87,6.44-21.26,8.79-34.37,3.53a20.32,20.32,0,0,1-2.38,10.06c-1.82,3.44-4.8,5.23-8.12,7.37a11.41,11.41,0,0,1-.08,5.48A3.73,3.73,0,0,1,218.52,124.22Z" style="fill:#ffc4c3"></path><path d="M253.79,102.39c-.69-2.66-4.64-5.67-7.36-4h0a2,2,0,0,0,0,3.18,4.4,4.4,0,0,1,1.32,1.47c.88,1.69-.72,2.53-1.36,4-2,4.44,3.5,7,6.34,5.06-2.8,0-3.38-2.34-1.44-4.32.76-.78,1.72-1.21,2.24-2.2A4.26,4.26,0,0,0,253.79,102.39Z" style="fill:#f0997a"></path><path d="M239.27,110.5l-6.44,3.92a4,4,0,0,1,1.31-5.32A3.68,3.68,0,0,1,239.27,110.5Z" style="fill:#f0997a"></path><path d="M243.7,133.18l8.85,2.83a4.88,4.88,0,0,1-6,3.06A4.53,4.53,0,0,1,243.7,133.18Z" style="fill:#b16668"></path><path d="M243.48,135.33a4.44,4.44,0,0,0,3.06,3.74,4.68,4.68,0,0,0,2.54.07A5.24,5.24,0,0,0,243.48,135.33Z" style="fill:#f28f8f"></path><path d="M236.89,119.47a3.09,3.09,0,1,0,2.84-3.33A3.1,3.1,0,0,0,236.89,119.47Z" style="fill:#263238"></path><path d="M258,117a3.09,3.09,0,1,0,2.84-3.33A3.1,3.1,0,0,0,258,117Z" style="fill:#263238"></path><path d="M265.62,112.07,259,108.32a3.65,3.65,0,0,1,5.07-1.53A4,4,0,0,1,265.62,112.07Z" style="fill:#f0997a"></path><polygon points="249.61 114.42 251.84 130.24 260.25 126.79 249.61 114.42" style="fill:#ffa8a7"></polygon><path d="M248.22,151.4a37.41,37.41,0,0,1-19.78-5.48c-2.78-1.78-6.47-5.68-7.73-9a15,15,0,0,0,3.91,8.64c8.75,10,23.6,9.44,23.6,9.44Z" style="fill:#ffa8a7"></path></g><g id="freepik--Arm--inject-376"><path id="freepik--arm--inject-376" d="M261.48,162.3c6,1.23,7.85-.05,15.38,3.67,5.06,2.49,8.05,7.75,10.17,15,1.51,5.17,5.28,10.39,8.55,17.61A199.44,199.44,0,0,1,303,218.16c7.16,8.83,15.39,16.63,20.91,24,1.64,2.19,6.94,3,8.53,4.36l-2.94,26c-6.25.22-9.55-6.09-15.24-11s-17-10.76-26.49-19.23a75,75,0,0,1-8.69-9.49,62.06,62.06,0,0,1-5.05-8.78c-5.4-10.33-9.6-20.09-12.78-26.82S256.17,172.75,261.48,162.3Z" style="fill:#ffc4c3"></path><path d="M206.73,185.23a46.32,46.32,0,0,0-5.52-3.23c-1.08-.3-1.93.77-1.63,2.56s2.8,3.44,2.8,3.44Z" style="fill:#ffa8a7"></path><g id="freepik--Arch--inject-376"><path d="M326.4,249.9c4.34.16,7.67,0,10.64,1.7s14.75,8.59,16.2,9.46.09,4.11-5.14,3.53c-2.87-.32-9.81-3.51-9.81-3.51s.44,6.38-3.79,8.82-6.76,1.5-8.07,0Z" style="fill:#ffa8a7"></path><g id="freepik--arch--inject-376"><path d="M295.93,340.8a.27.27,0,0,1-.25-.15L202.63,182.34a.34.34,0,0,1,0-.24.3.3,0,0,1,.17-.18l92.79-38.51a.29.29,0,0,1,.38.16.3.3,0,0,1-.16.38L203.3,182.33l92.88,158a.29.29,0,0,1-.1.4A.42.42,0,0,1,295.93,340.8Z" style="fill:#263238"></path><path d="M334.44,273.87a7.44,7.44,0,0,0-6.72,0,2.36,2.36,0,0,0-1.39,1.94h0a85.86,85.86,0,0,1-.62,13.71,59.94,59.94,0,0,1-3.37,13.17,45.22,45.22,0,0,1-16.44,21.18c-1.9,1.33-4,2.52-6.1,4a18.7,18.7,0,0,0-3.14,2.72,10.62,10.62,0,0,0-2.2,3.9,13.31,13.31,0,0,0-.54,4.22,13.16,13.16,0,0,0,.85,4.11,26.57,26.57,0,0,0,3.7,6.79,16.1,16.1,0,0,0,5.92,5.17,5.36,5.36,0,0,0,2.28.54,2.38,2.38,0,0,0,2.34-1.84,5.19,5.19,0,0,0,.06-2.24,13,13,0,0,0-.44-1.91,16.4,16.4,0,0,0-3.71-6.6,7.2,7.2,0,0,0-1.56-1.25,2.48,2.48,0,0,0-1.15-.34,1.26,1.26,0,0,0-.76.27,1.37,1.37,0,0,0-.41.63,4.14,4.14,0,0,0,.12,2.07,16.62,16.62,0,0,0,.62,1.76l.71-.26a14.69,14.69,0,0,1-.45-1.7,3.42,3.42,0,0,1,0-1.53c.1-.16.07-.11.17-.12a1.41,1.41,0,0,1,.55.25,5.9,5.9,0,0,1,1.18,1.12,15.05,15.05,0,0,1,2.88,6.19,12.45,12.45,0,0,1,.25,1.65,3.15,3.15,0,0,1-.11,1.36c-.18.32-.06.17-.31.19a3.4,3.4,0,0,1-1.19-.43,13.68,13.68,0,0,1-4.54-4.68,23.82,23.82,0,0,1-2.79-6.16,9.75,9.75,0,0,1-.41-3,9.25,9.25,0,0,1,.59-2.93c1.2-3.4,6.07-5,10.36-7.59a51.48,51.48,0,0,0,20.39-22.61A67.72,67.72,0,0,0,334,291a96.32,96.32,0,0,0,1.84-15.2A2.38,2.38,0,0,0,334.44,273.87Z" style="fill:#009C86"></path><path d="M303,345.73a.86.86,0,0,1-1.72,0,.86.86,0,0,1,1.72,0Z" style="fill:#009C86"></path><path d="M335.41,275.63a9.57,9.57,0,0,0-8.66,0,4.43,4.43,0,0,0-.42.29,86.79,86.79,0,0,1-.62,13.6,59.94,59.94,0,0,1-3.37,13.17,45.22,45.22,0,0,1-16.44,21.18c-1.9,1.33-4,2.52-6.1,4a18.7,18.7,0,0,0-3.14,2.72,10.62,10.62,0,0,0-2.2,3.9,13.31,13.31,0,0,0-.54,4.22,13.16,13.16,0,0,0,.85,4.11c.15.42.33.83.51,1.24a14.72,14.72,0,0,1,.65-10.26c2-4.15,9-6.38,18.94-14.65s13.32-22.72,13.83-28.81,3.63-7.27,4.58-8a15.08,15.08,0,0,0,2.21-1.79q.21-2.32.33-4.65A4.27,4.27,0,0,0,335.41,275.63Z" style="opacity:0.15"></path><path d="M337.2,275a3,3,0,0,0-1.79-2.5,9.57,9.57,0,0,0-8.66,0A3,3,0,0,0,325,275v1.47a3,3,0,0,0,1.8,2.5,9.57,9.57,0,0,0,8.66,0,3,3,0,0,0,1.79-2.5Z" style="fill:#37474f"></path><path d="M326.75,277.54a2.64,2.64,0,0,1,0-5,9.57,9.57,0,0,1,8.66,0,2.64,2.64,0,0,1,0,5A9.57,9.57,0,0,1,326.75,277.54Z" style="fill:#455a64"></path><path d="M336.86,248.13a2.89,2.89,0,0,0-1.69-2.36,9.07,9.07,0,0,0-8.18,0,2.87,2.87,0,0,0-1.69,2.36v26.5A2.86,2.86,0,0,0,327,277a9,9,0,0,0,8.18,0,2.88,2.88,0,0,0,1.69-2.36Z" style="fill:#263238"></path><path d="M337.2,247.68a3,3,0,0,0-1.79-2.5,9.57,9.57,0,0,0-8.66,0,3,3,0,0,0-1.8,2.5v1.46a3,3,0,0,0,1.8,2.5,9.51,9.51,0,0,0,8.66,0,3,3,0,0,0,1.79-2.5Z" style="fill:#37474f"></path><path d="M326.75,250.18a2.64,2.64,0,0,1,0-5,9.57,9.57,0,0,1,8.66,0,2.64,2.64,0,0,1,0,5A9.57,9.57,0,0,1,326.75,250.18Z" style="fill:#455a64"></path><path d="M335.83,247.36c-1-24.86-9.89-48.21-21.41-69.75-5.11-10.48-13.59-20.09-16.85-31.12-1.94-6.25,4.12-9.94,8.24-5.22,1.72,2,2,5.13.09,6.84-2.37,1.82-5.22-1.59-3.45-3.9l-.64-.41a3.74,3.74,0,0,0,2.29,6c5,.47,5.88-6.67,3.16-9.89-3.82-4.51-11.4-4-12.62,2.13-1.12,8,3.71,15.23,7.1,22,8.53,15.54,15.75,32,20.22,49a122.64,122.64,0,0,1,4.37,34.29c.58,3.72,8.91,3.71,9.5,0Z" style="fill:#009C86"></path><circle cx="302.11" cy="143.99" r="0.86" style="fill:#009C86"></circle><path d="M329.64,247.68c-.2-2.36,1-12.3-3-31.48s-18.49-45.68-21.8-50.73c-3.09-4.72-9.48-14-10.31-19.29.61,6.38,4.37,12.26,7.17,17.86,8.53,15.54,15.75,32,20.22,49a122.64,122.64,0,0,1,4.37,34.29c.46,3,5.81,3.55,8.28,1.81C332.41,250.18,329.84,250,329.64,247.68Z" style="opacity:0.15"></path><path d="M296.44,145.52a3.16,3.16,0,0,1-1.21-.25,1.94,1.94,0,0,1-1.3-1.68.29.29,0,0,1,.21-.3.3.3,0,0,1,.34.16c.06.13.52.33,1.22.24a2.36,2.36,0,0,0,1.42-.72,3,3,0,0,1-1.51,0c-1-.27-1.58-.92-1.42-1.67a.29.29,0,0,1,.57.12c-.11.51.47.85,1,1,.77.2,1.7.06,1.88-.5a.29.29,0,0,1,.56.14,2.72,2.72,0,0,1-2.42,2.23,2.86,2.86,0,0,1-1,0,2,2,0,0,0,.7.5,1.9,1.9,0,0,0,1.71,0,.29.29,0,1,1,.38.43A1.67,1.67,0,0,1,296.44,145.52Z" style="fill:#263238"></path><path d="M296.44,342.68a2.8,2.8,0,0,1-2.65-1.28.29.29,0,0,1,0-.31.3.3,0,0,1,.31-.09,4.18,4.18,0,0,0,2.64-.79,3.75,3.75,0,0,0,.56-.51,4.28,4.28,0,0,1-1.54.15c-1.21-.1-2.51-.64-2.49-1.61a.32.32,0,0,1,.3-.29.31.31,0,0,1,.29.3c0,.54,1,.94,2,1s1.85-.2,1.91-.64a.29.29,0,0,1,.31-.25.3.3,0,0,1,.27.3,2.55,2.55,0,0,1-1.23,2,5.46,5.46,0,0,1-2.44.92,3.13,3.13,0,0,0,2,.49c.86,0,1.35-.31,1.41-.48a.29.29,0,0,1,.37-.18.31.31,0,0,1,.18.38c-.21.57-1.13.82-1.93.86Z" style="fill:#263238"></path></g><polygon points="354.55 270.58 339.07 261.63 202.53 182.8 203.23 181.58 355.25 269.35 354.55 270.58" style="fill:#37474f"></polygon><polygon points="222.17 192.51 219.6 181.58 213.45 178.02 215.27 183.89 210.97 176.59 204.06 172.6 206.73 183.6 222.17 192.51" style="fill:#009C86"></polygon><polygon points="222.17 192.51 219.6 181.58 213.45 178.02 215.27 183.89 210.97 176.59 204.06 172.6 206.73 183.6 222.17 192.51" style="fill:#fff;opacity:0.4"></polygon><polygon points="222.17 194.14 219.6 202.12 210.22 196.7 214.62 193.25 207.84 195.32 204.06 193.14 206.73 185.23 222.17 194.14" style="fill:#009C86"></polygon><polygon points="222.17 194.14 219.6 202.12 210.22 196.7 214.62 193.25 207.84 195.32 204.06 193.14 206.73 185.23 222.17 194.14" style="fill:#fff;opacity:0.2"></polygon><path d="M204.06,182.19a1.18,1.18,0,1,1-1.18-1.18A1.18,1.18,0,0,1,204.06,182.19Z" style="fill:#37474f"></path><path d="M368.45,277.81c4.32-11.42-5.29-17.74-11.1-16.86s-7.56,4.93-3.16,8.64c-6.42-2.54-13.09-2.3-14.95,1.83s7.24,13.25,29.21,6.39Z" style="fill:#009C86"></path><path d="M368.45,277.81c4.32-11.42-5.29-17.74-11.1-16.86s-7.56,4.93-3.16,8.64c-6.42-2.54-13.09-2.3-14.95,1.83s7.24,13.25,29.21,6.39Z" style="fill:#fff;opacity:0.30000000000000004"></path><path d="M347.05,277.34c-6.23-2.38-7.11-7.93-2-9.34-2.73.25-4.89,1.34-5.83,3.42-1.9,4.19,7.25,13.24,29.21,6.39h0C368.26,277.84,356.67,281,347.05,277.34Z" style="fill:#fff;opacity:0.30000000000000004"></path><g id="freepik--Fingers--inject-376"><path d="M339.3,270.32c.49.92-.38,5.59-.84,6.63s-3.4,3-5.62,3.7-3.34.38-3.22-1.31,1.8-2.58,3.12-3.35,1.71-1.51,1.61-2.44C334.35,273.55,337.11,270.57,339.3,270.32Z" style="fill:#ffa8a7"></path><path d="M339.84,262.08c1.24,1.06,1.07,3.12.29,4.39,0,0,1.8,1.34,0,3.86a14.15,14.15,0,0,1-6.61,4.87,27.3,27.3,0,0,1-10,0c-2.57-.44-3-2.88-1.16-4.41,0,0-3-.47-4-1.6s.15-3.75,3.43-4,6.27.51,9.6-.32c3.16-.79,5.32-1.5,6.68-3.79Z" style="fill:#ffc4c3"></path><path d="M318.36,269.19a1.79,1.79,0,0,1-.35-2,3.53,3.53,0,0,1,1.36-1.65,5,5,0,0,1,2-.76,13.21,13.21,0,0,1,2.06-.14c2.73,0,5.3.51,8,.18a11.92,11.92,0,0,1-4,.73c-1.36.05-2.69-.05-4,0a7.68,7.68,0,0,0-3.7.61,3.24,3.24,0,0,0-1.32,1.25A1.68,1.68,0,0,0,318.36,269.19Z" style="fill:#ffa8a7"></path><path d="M322.34,270.79a3.25,3.25,0,0,0-1,1.28c1.61.24,8.06,1.07,11.25-.1a13.85,13.85,0,0,0,5.84-4.38,37.47,37.47,0,0,1-6.22,3.41C329.84,271.84,324.48,271.09,322.34,270.79Z" style="fill:#ffa8a7"></path></g></g><g id="freepik--arm--inject-376"><path d="M175.38,172.15c4.57,4.29,6.9,3.86,9.11,3.76,1,0,2.68-.59,6.11-.87s4.71-.48,7.64-.67,4.54-.43,5.18-.43,1.32,2.31-.36,3.95c-2.32,2.27-4.51,1.72-7.09,2.24s-.89,1.57,1.14,3.12a29.2,29.2,0,0,0,4.28,2.76c1.67.75,5.34-.78,5.34-.78a4.08,4.08,0,0,1,1.53,2c.19,1.09,0,2.37-2.76,3.46,0,0,1.46,2.05.06,3.77,0,0,2.42,4.38-2.22,5.55a3.17,3.17,0,0,1,0,1.31,3.07,3.07,0,0,1-2.38,2.49c-4.61,1-8,1.57-10,1.19-2.11-.4-6.48-2.85-12.53-7.3a70.16,70.16,0,0,0-12.63-6.79c-7-3.16-18.41-9.15-22.25-13.08-6.07-6.22-7.08-10.38-7.3-13-.36-4.29.64-8.55,9-9.14,4.61-.33,7.37.3,13.82,2.3C167.28,160.51,172.58,169.52,175.38,172.15Z" style="fill:#ffc4c3"></path><path d="M191,205a17.75,17.75,0,0,0,3.7-.46l3.68-.71,1.86-.31a3.51,3.51,0,0,0,1.64-.47,3.13,3.13,0,0,0,1.43-3,3.13,3.13,0,0,1-1,3.59,3,3,0,0,1-.93.51c-.37.11-.64.15-1,.22l-1.84.35c-1.24.22-2.48.43-3.75.54A9.88,9.88,0,0,1,191,205Z" style="fill:#ffa8a7"></path><path d="M205.5,190.72a15.28,15.28,0,0,1-5.88,1.62,6.43,6.43,0,0,1-4.2-2s1.55,2.6,4,2.85a14.69,14.69,0,0,0,6.54-1.55A4.2,4.2,0,0,0,205.5,190.72Z" style="fill:#ffa8a7"></path><path d="M205.56,194.49c-.83,1.19-7.36,2.54-8.52,2.35a2.92,2.92,0,0,1-1.61-.73s1.1,1.74,2.67,1.61a19,19,0,0,0,6.55-1.75A1.66,1.66,0,0,0,205.56,194.49Z" style="fill:#ffa8a7"></path><path d="M203.34,200a48.22,48.22,0,0,1-6.48,1.25l-1.57,0a3.87,3.87,0,0,0,3.1.64c2.11-.29,5-1,5-1A3,3,0,0,0,203.34,200Z" style="fill:#ffa8a7"></path></g></g></g></g></g></svg>