<svg xmlns="http://www.w3.org/2000/svg" viewBox="0 0 500 500"><g id="freepik--Floor--inject-2"><ellipse id="freepik--floor--inject-2" cx="250" cy="348.56" rx="242.98" ry="142.79" style="fill:#fafafa"></ellipse></g><g id="freepik--Plant--inject-2"><g id="freepik--plant--inject-2"><g id="freepik--Pot--inject-2"><g id="freepik--pot--inject-2"><path d="M230.05,230.27c8.6-8.88,13.66-45,5.27-52.05H192.61c-8.39,7-3.34,43.16,5.26,52,.07.09.16.17.23.25l.3.29c.24.24.5.47.78.7l.2.16c.21.17.42.34.65.5a12.46,12.46,0,0,0,1.12.72c7.07,4.13,18.55,4.13,25.63,0h0a12.46,12.46,0,0,0,1.12-.72c.21-.15.41-.31.6-.47l.26-.2c.27-.22.51-.44.75-.67l.34-.34Z" style="fill:#ebebeb"></path><path d="M196.32,175.38c-9.75,5.69-9.75,14.91,0,20.6s25.54,5.69,35.28,0,9.75-14.91,0-20.6S206.06,169.69,196.32,175.38Z" style="fill:#f5f5f5"></path><path d="M201,178.12c-7.16,4.17-7.16,10.95,0,15.12s18.75,4.18,25.91,0,7.15-11,0-15.12S208.16,173.94,201,178.12Z" style="fill:#e0e0e0"></path><path d="M226.92,185.3c-7.16-4.18-18.76-4.18-25.91,0a11.89,11.89,0,0,0-4.29,4,11.89,11.89,0,0,0,4.29,4c7.15,4.18,18.75,4.18,25.91,0a11.85,11.85,0,0,0,4.28-4A11.85,11.85,0,0,0,226.92,185.3Z" style="fill:#fafafa"></path></g><g id="freepik--Plants--inject-2"><path d="M194.81,111.56,211,124.42l-15.68-7.24A43.44,43.44,0,0,0,198.06,132a96.39,96.39,0,0,1,12.21,8.66l-12-4.75s-.82,7.92,2.47,20c.86,3.16,4.42,9.2,6.67,13.72a50.3,50.3,0,0,0,3.49,6c.07.12.16.24.24.36q4.13-2.35,8.57-4.57c1.93-4.06,4.45-14.1,5.36-22.32,3.46-31.46-20.33-49.49-39.46-55.54C185.59,93.63,192.16,101.87,194.81,111.56Z" style="fill:#f0f0f0"></path><path d="M208.36,112.88c3.31,3.33,5.25,7.71,6.73,12.09A63.93,63.93,0,0,1,218,138.58a58.88,58.88,0,0,1-3.43,27.32h0a.46.46,0,0,0,.27.59.47.47,0,0,0,.59-.26h0a59.62,59.62,0,0,0,3-27.7,63.77,63.77,0,0,0-3.11-13.64C213.75,120.52,211.73,116.15,208.36,112.88Z" style="fill:#fff"></path><path d="M265,128.06l0,0c-.41.49-7.06,8.4-16.94,23.81l-16.45,2.65,12.13,2.12L237.19,167,221,170.32l12.64,2.06s-3.51,12.34-12.56,17.48c-5,2.84-7.44,3.27-8.94,1.85-1-1-1.29-6.92-2.17-12.2s-.94-13.87,4-24.23a32.68,32.68,0,0,1,5.18-7.62C231.17,134.33,253.8,127.9,265,128.06Z" style="fill:#f5f5f5"></path><path d="M247.77,133.44c-8.5,3.74-16.55,8.86-22.88,15.81a44.93,44.93,0,0,0-7.83,11.63,42.57,42.57,0,0,0-3.58,13.52s0,0,0,0a.07.07,0,0,0,0,0,54.42,54.42,0,0,1,4.31-13.14,50.79,50.79,0,0,1,7.55-11.54c6.12-7,14-12.24,22.38-16.2a0,0,0,0,0,0-.06A0,0,0,0,0,247.77,133.44Z" style="fill:#fff"></path><path d="M167,134.85h0a36.3,36.3,0,0,1,4.14.19,66.21,66.21,0,0,1,15.83,3.86q2.85,1,5.66,2.39c.93.45,1.86.92,2.77,1.41a45.89,45.89,0,0,1,12.13,9.17,29.08,29.08,0,0,1,4.18,5.87c.14.27.3.54.44.82h0c.36.72.67,1.43,1,2.13a39.6,39.6,0,0,1,3.58,19.49c-.17,4.72-1.78,10.11-2.7,11a2.1,2.1,0,0,1-.41.31c-1.35.85-3.49.35-7.49-1.88-8-4.49-11.16-15.85-11.16-15.85l11.14-1.89L191.74,169,185.93,160l10.7-2-14.54-2.23A214,214,0,0,0,167,134.87l0,0Z" style="fill:#f0f0f0"></path><path d="M171.11,135a66.21,66.21,0,0,1,15.83,3.86q2.85,1,5.66,2.39c.93.45,1.86.92,2.77,1.41a45.89,45.89,0,0,1,12.13,9.17,29.08,29.08,0,0,1,4.18,5.87c.14.27.3.54.44.82h0c.36.72.67,1.43,1,2.13a39.6,39.6,0,0,1,3.58,19.49c-.17,4.72-1.78,10.11-2.7,11a2.1,2.1,0,0,1-.41.31,2.57,2.57,0,0,1-.88.32c1-7.32-2.61-25.88-8.07-33.51-5.67-7.95-19.12-19.46-37.62-23.44l0,0A35.73,35.73,0,0,1,171.11,135Z" style="fill:#e6e6e6"></path><path d="M212.72,191.82a62.45,62.45,0,0,0-1.05-16.19,52.33,52.33,0,0,0-5.37-15.35,45.47,45.47,0,0,0-10.87-12.13,60.62,60.62,0,0,0-13.94-8.36,0,0,0,0,0-.06,0,0,0,0,0,0,0,.06,80.47,80.47,0,0,1,13.41,9,58.78,58.78,0,0,1,5.89,5.48,35.65,35.65,0,0,1,4.92,6.32,51.81,51.81,0,0,1,5.56,15.08,63,63,0,0,1,1.4,16.09s0,0,.05.05A0,0,0,0,0,212.72,191.82Z" style="fill:#fff"></path></g></g></g></g><g id="freepik--Window--inject-2"><g id="freepik--window--inject-2"><g id="freepik--window--inject-2"><polygon points="355.56 161.57 470.7 228.05 470.7 91.93 355.56 25.47 355.56 161.57" style="fill:#fff"></polygon><polygon points="472.96 229.36 470.7 230.7 353.3 162.92 355.56 161.57 472.96 229.36" style="fill:#fafafa"></polygon><path d="M349,165.38,475,238.08V89.47L349,16.77ZM353.3,24.15,470.7,91.93V230.7L353.3,162.92Z" style="fill:#f0f0f0"></path><polygon points="353.3 162.92 355.56 161.57 355.56 25.47 353.3 24.15 353.3 162.92" style="fill:#e0e0e0"></polygon><polygon points="349.04 16.77 351.33 15.46 477.26 88.16 474.96 89.47 349.04 16.77" style="fill:#fafafa"></polygon><polygon points="477.26 88.16 474.96 89.47 474.96 238.08 477.26 236.77 477.26 88.16" style="fill:#e0e0e0"></polygon><polygon points="468.83 157.12 468.83 159.77 353.3 92.98 355.56 91.64 468.83 157.12" style="fill:#fafafa"></polygon><polygon points="415.63 60.15 413.34 58.83 413.34 197.61 415.63 196.29 415.63 60.15" style="fill:#e0e0e0"></polygon><polygon points="409.08 56.38 413.34 58.83 413.34 197.61 409.08 195.14 409.08 56.38" style="fill:#f0f0f0"></polygon><polygon points="353.3 92.98 353.3 97.9 470.75 165.96 470.75 161.05 353.3 92.98" style="fill:#f0f0f0"></polygon><polygon points="413.34 127.78 415.63 126.37 470.7 158.2 470.7 161.05 413.34 127.78" style="fill:#fafafa"></polygon></g><g id="freepik--Curtains--inject-2"><path d="M359.66,11.12V29.88S397,140.11,453.09,177v74.31a3,3,0,0,0,4.07,2.35s1.54,3.8,4.06,2.34c0,0,1.7,3.71,4.06,2.35,0,0,1.74,3.68,4.06,2.34,0,0,1.33,3.92,4.06,2.35V76.79Z" style="fill:#f0f0f0"></path><path d="M457.16,253.67c-.21-6.3-.31-12.59-.39-18.88s-.07-12.58-.11-18.87,0-12.58.11-18.87l.14-9.44c.08-3.14.13-6.29.25-9.43.11,3.14.16,6.29.24,9.43l.14,9.44c.08,6.29.08,12.58.11,18.87s0,12.58-.11,18.87S457.36,247.37,457.16,253.67Z" style="fill:#e0e0e0"></path><path d="M461.22,256c-.21-6.29-.31-12.58-.39-18.87s-.07-12.58-.11-18.87,0-12.58.11-18.88L461,190c.09-3.15.13-6.29.25-9.44.11,3.15.16,6.29.24,9.44l.14,9.43c.08,6.3.08,12.59.12,18.88s0,12.58-.12,18.87S461.42,249.72,461.22,256Z" style="fill:#e0e0e0"></path><path d="M465.28,258.36c-.21-6.29-.3-12.59-.38-18.88s-.08-12.58-.12-18.87,0-12.58.11-18.87l.14-9.44c.09-3.14.14-6.29.25-9.43.11,3.14.16,6.29.24,9.43l.14,9.44c.08,6.29.08,12.58.12,18.87s0,12.58-.12,18.87S465.49,252.07,465.28,258.36Z" style="fill:#e0e0e0"></path><path d="M469.34,260.7c-.21-6.29-.3-12.58-.38-18.87s-.08-12.58-.12-18.87,0-12.58.12-18.88l.14-9.43c.08-3.15.13-6.29.24-9.44.11,3.15.16,6.29.25,9.44l.14,9.43c.08,6.3.07,12.59.11,18.88s0,12.58-.12,18.87S469.55,254.41,469.34,260.7Z" style="fill:#e0e0e0"></path><path d="M359.66,29.88c9.59,5.3,19.11,10.69,28.63,16.09l28.49,16.31L445.16,78.8l14.15,8.33,14.09,8.42-14.34-8-14.28-8.08-28.5-16.32L387.91,46.63Q373.75,38.32,359.66,29.88Z" style="fill:#e0e0e0"></path><path d="M453.09,168.25a52.13,52.13,0,0,1-4.7-5.47c-1.45-1.91-2.88-3.85-4.26-5.82-2.75-3.94-5.38-8-7.89-12.08q-7.58-12.28-14-25.22c-2.12-4.32-4.17-8.68-6.1-13.09s-3.71-8.89-5.31-13.44c-3.2-9.06-5.84-18.45-6.47-28.07a96.48,96.48,0,0,0,3.21,14c1.37,4.58,3,9.08,4.73,13.54,3.48,8.9,7.46,17.61,11.73,26.18s8.8,17,13.55,25.32c2.39,4.15,4.83,8.28,7.37,12.34A107.37,107.37,0,0,0,453.09,168.25Z" style="fill:#e0e0e0"></path><path d="M465.28,180a175.22,175.22,0,0,1-12.62-21.66,213.4,213.4,0,0,1-9.81-23.12c-.68-2-1.43-3.94-2-5.95l-1.84-6c-.6-2-1.06-4-1.6-6.08l-.77-3c-.25-1-.43-2.05-.64-3.08l-1.23-6.16-.88-6.22-.41-3.11-.24-3.13c-.16-2.08-.3-4.17-.43-6.25.34,2.06.66,4.13,1,6.19l.46,3.09.62,3.06,1.21,6.12,1.46,6.06a238.08,238.08,0,0,0,7.24,23.84c2.78,7.83,5.91,15.54,9.33,23.12l2.63,5.66c.92,1.87,1.81,3.75,2.75,5.61C461.27,172.66,463.25,176.33,465.28,180Z" style="fill:#e0e0e0"></path><path d="M469.34,182.32a170.79,170.79,0,0,1-7.3-22.11,211.26,211.26,0,0,1-4.63-22.86c-.25-1.93-.54-3.85-.76-5.78l-.57-5.81c-.21-1.94-.23-3.89-.36-5.83s-.22-3.89-.18-5.83a137.79,137.79,0,0,1,1.61-23.24q-.07,2.91-.22,5.81c0,1-.1,1.93-.12,2.9l0,2.9c0,1.93,0,3.86,0,5.79l.24,5.79c.44,7.7,1.11,15.39,2.29,23s2.5,15.23,4.16,22.78l1.3,5.65c.47,1.87.9,3.75,1.4,5.62C467.17,174.88,468.24,178.6,469.34,182.32Z" style="fill:#e0e0e0"></path><path d="M363.73,13.47a79.56,79.56,0,0,1,.5,9.38,79.79,79.79,0,0,1-.5,9.38,75.7,75.7,0,0,1-.5-9.38A75.49,75.49,0,0,1,363.73,13.47Z" style="fill:#e0e0e0"></path><path d="M367.79,15.81a79.79,79.79,0,0,1,.5,9.38,79.56,79.56,0,0,1-.5,9.38,75.49,75.49,0,0,1-.5-9.38A77.69,77.69,0,0,1,367.79,15.81Z" style="fill:#e0e0e0"></path><path d="M371.85,18.16a79.56,79.56,0,0,1,.5,9.38,75.59,75.59,0,0,1-.5,9.38,79.67,79.67,0,0,1-.5-9.38A79.56,79.56,0,0,1,371.85,18.16Z" style="fill:#e0e0e0"></path><path d="M375.91,20.5a75.7,75.7,0,0,1,.5,9.38,75.49,75.49,0,0,1-.5,9.38,79.56,79.56,0,0,1-.5-9.38A79.79,79.79,0,0,1,375.91,20.5Z" style="fill:#e0e0e0"></path><path d="M380,22.85a79.67,79.67,0,0,1,.5,9.38,79.67,79.67,0,0,1-.5,9.38,75.59,75.59,0,0,1-.5-9.38A75.59,75.59,0,0,1,380,22.85Z" style="fill:#e0e0e0"></path><path d="M384,25.19a79.79,79.79,0,0,1,.5,9.38A79.84,79.84,0,0,1,384,44a75.75,75.75,0,0,1-.5-9.39A77.69,77.69,0,0,1,384,25.19Z" style="fill:#e0e0e0"></path><path d="M388.1,27.54a79.67,79.67,0,0,1,.5,9.38,75.59,75.59,0,0,1-.5,9.38,79.67,79.67,0,0,1-.5-9.38A79.67,79.67,0,0,1,388.1,27.54Z" style="fill:#e0e0e0"></path><path d="M392.16,29.88a75.75,75.75,0,0,1,.5,9.39,75.7,75.7,0,0,1-.5,9.38,79.79,79.79,0,0,1-.5-9.38A79.84,79.84,0,0,1,392.16,29.88Z" style="fill:#e0e0e0"></path><path d="M396.23,32.23a79.67,79.67,0,0,1,.5,9.38,79.67,79.67,0,0,1-.5,9.38,75.59,75.59,0,0,1-.5-9.38A75.59,75.59,0,0,1,396.23,32.23Z" style="fill:#e0e0e0"></path><path d="M400.29,34.58a79.56,79.56,0,0,1,.5,9.38,79.79,79.79,0,0,1-.5,9.38,75.7,75.7,0,0,1-.5-9.38A77.47,77.47,0,0,1,400.29,34.58Z" style="fill:#e0e0e0"></path><path d="M404.35,36.92a79.67,79.67,0,0,1,.5,9.38,75.49,75.49,0,0,1-.5,9.38,79.56,79.56,0,0,1-.5-9.38A79.67,79.67,0,0,1,404.35,36.92Z" style="fill:#e0e0e0"></path><path d="M408.41,39.27a75.49,75.49,0,0,1,.5,9.38,75.7,75.7,0,0,1-.5,9.38,79.79,79.79,0,0,1-.5-9.38A79.56,79.56,0,0,1,408.41,39.27Z" style="fill:#e0e0e0"></path><path d="M412.48,41.61A79.79,79.79,0,0,1,413,51a79.56,79.56,0,0,1-.5,9.38A75.49,75.49,0,0,1,412,51,75.7,75.7,0,0,1,412.48,41.61Z" style="fill:#e0e0e0"></path><path d="M416.54,44a79.56,79.56,0,0,1,.5,9.38,79.67,79.67,0,0,1-.5,9.38,75.59,75.59,0,0,1-.5-9.38A77.47,77.47,0,0,1,416.54,44Z" style="fill:#e0e0e0"></path><path d="M420.6,46.3a79.79,79.79,0,0,1,.5,9.38,75.49,75.49,0,0,1-.5,9.38,75.49,75.49,0,0,1-.5-9.38A79.79,79.79,0,0,1,420.6,46.3Z" style="fill:#e0e0e0"></path><path d="M424.66,48.65a75.49,75.49,0,0,1,.5,9.38,75.59,75.59,0,0,1-.5,9.38,79.67,79.67,0,0,1-.5-9.38A79.56,79.56,0,0,1,424.66,48.65Z" style="fill:#e0e0e0"></path><path d="M428.73,51a79.79,79.79,0,0,1,.5,9.38,79.84,79.84,0,0,1-.5,9.39,75.75,75.75,0,0,1-.5-9.39A75.7,75.7,0,0,1,428.73,51Z" style="fill:#e0e0e0"></path><path d="M432.79,53.34a79.67,79.67,0,0,1,.5,9.38,79.67,79.67,0,0,1-.5,9.38,75.59,75.59,0,0,1-.5-9.38A75.59,75.59,0,0,1,432.79,53.34Z" style="fill:#e0e0e0"></path><path d="M436.84,55.68a75.7,75.7,0,0,1,.5,9.38,75.49,75.49,0,0,1-.5,9.38,79.56,79.56,0,0,1-.5-9.38A79.79,79.79,0,0,1,436.84,55.68Z" style="fill:#e0e0e0"></path><path d="M440.9,58a79.79,79.79,0,0,1,.5,9.38,79.84,79.84,0,0,1-.5,9.39,75.75,75.75,0,0,1-.5-9.39A79.79,79.79,0,0,1,440.9,58Z" style="fill:#e0e0e0"></path><path d="M445,60.37a75.49,75.49,0,0,1,.5,9.38,75.7,75.7,0,0,1-.5,9.38,79.79,79.79,0,0,1-.5-9.38A79.56,79.56,0,0,1,445,60.37Z" style="fill:#e0e0e0"></path><path d="M449,62.71a79.67,79.67,0,0,1,.5,9.38,75.59,75.59,0,0,1-.5,9.38,75.59,75.59,0,0,1-.5-9.38A79.67,79.67,0,0,1,449,62.71Z" style="fill:#e0e0e0"></path><path d="M453.07,65.05a79.67,79.67,0,0,1,.5,9.38,79.56,79.56,0,0,1-.5,9.38,75.49,75.49,0,0,1-.5-9.38A75.59,75.59,0,0,1,453.07,65.05Z" style="fill:#e0e0e0"></path><path d="M457.12,67.39a79.79,79.79,0,0,1,.5,9.38,75.75,75.75,0,0,1-.5,9.39,79.84,79.84,0,0,1-.5-9.39A79.79,79.79,0,0,1,457.12,67.39Z" style="fill:#e0e0e0"></path><path d="M461.18,69.74a79.56,79.56,0,0,1,.5,9.38,79.79,79.79,0,0,1-.5,9.38,75.7,75.7,0,0,1-.5-9.38A75.49,75.49,0,0,1,461.18,69.74Z" style="fill:#e0e0e0"></path><path d="M465.23,72.08a75.59,75.59,0,0,1,.5,9.38,75.59,75.59,0,0,1-.5,9.38,79.67,79.67,0,0,1-.5-9.38A79.67,79.67,0,0,1,465.23,72.08Z" style="fill:#e0e0e0"></path><path d="M469.29,74.42a79.67,79.67,0,0,1,.5,9.38,79.56,79.56,0,0,1-.5,9.38,75.49,75.49,0,0,1-.5-9.38A75.59,75.59,0,0,1,469.29,74.42Z" style="fill:#e0e0e0"></path></g></g></g><g id="freepik--Lamp--inject-2"><g id="freepik--lamp--inject-2"><path d="M296.57,229.07a4.19,4.19,0,0,1,.1-1.06,15.77,15.77,0,0,1,6.42-9.58h13.43A15.78,15.78,0,0,1,323,228a4.7,4.7,0,0,1,.1,1.06c0,.06,0,.18,0,.18-.13,1.85-1.4,3.69-3.86,5.11-5.18,3-13.57,3-18.74,0-2.46-1.42-3.73-3.26-3.86-5.11C296.58,229.25,296.57,229.13,296.57,229.07Z" style="fill:#fafafa"></path><path d="M316.18,218.22c3.52,2,3.52,5.32,0,7.35a14.09,14.09,0,0,1-12.74,0c-3.52-2-3.52-5.32,0-7.35A14,14,0,0,1,316.18,218.22Z" style="fill:#f0f0f0"></path><path d="M308,83.06h3.66V220.49h0a.84.84,0,0,1-.52.83,2.82,2.82,0,0,1-2.59,0,.87.87,0,0,1-.52-.83h0Z" style="fill:#e0e0e0"></path><path d="M282.8,76h0l12.72-32.44h28.6L336.83,76h0c1.81,5.07-.68,10.56-7.5,14.5-10.78,6.22-28.25,6.22-39,0C283.48,86.57,281,81.08,282.8,76Z" style="fill:#f0f0f0"></path><path d="M320.16,51.34c-5.72,3.3-15,3.3-20.7,0s-5.71-8.65,0-12,15-3.3,20.7,0S325.87,48,320.16,51.34Z" style="fill:#fafafa"></path><path d="M309.81,52.12a19.34,19.34,0,0,0,9.5-2.25c2.21-1.28,3.43-2.88,3.43-4.5s-1.22-3.23-3.43-4.5a21.18,21.18,0,0,0-19,0c-2.22,1.27-3.44,2.87-3.44,4.5s1.22,3.22,3.44,4.5A19.31,19.31,0,0,0,309.81,52.12Z" style="fill:#e0e0e0"></path></g></g><g id="freepik--character-2--inject-2"><g id="freepik--Character--inject-2"><g id="freepik--Bottom--inject-2"><path d="M346.05,358.18l-8.14-13L324,355.2l16.49,17.54s10.7-.41,12-5S348.48,359.62,346.05,358.18Z" style="fill:#ffa8a7"></path><path d="M339.77,347.43l2.05,3.16a15.85,15.85,0,0,1-5.26,7c-4.15,3.31-7,3.94-7,3.94l-5.15-5.24Z" style="fill:#37474f"></path><path d="M330.59,362.25l1.06,1.13s2.53,1,7.07-1.42a10.08,10.08,0,0,0,4.94-7.53l-.92-1.55s.74-1.44,2.28,1,2.86,5.13,5.2,6.27,4.52,1.5,6.41,4.61.14,6,2.09,9.83,5,10.68.65,19.27-9.63,9.29-12,8.25-4.3-3.22-3.85-10.61-1-13.52-4-17.33-6.62-7.5-8-9.1S329.86,363.05,330.59,362.25Z" style="fill:#263238"></path><polygon points="337.79 362.36 329.65 368.64 324.7 372.26 332.31 383.87 348.43 374.69 337.79 362.36" style="fill:#ffa8a7"></polygon><path d="M338.29,361.41l-3.23,2.5s-.32,3.38,2.38,8.55,4.56,6.43,4.56,6.43l5.25-3.07Z" style="fill:#37474f"></path><path d="M332,366.87l-.76.59s-1.76,3,.85,8.27,5.92,4.92,5.92,4.92l1.44-.82s.76.83-1.61,2.26-7.42,3.4-9.78,4.85-6.74,4.16-10.46,6.81-7.55,5.61-15.4,3.17c-8.64-2.7-8.29-10.81-1.88-15.19,6.1-4.15,8.05-3.79,14.15-6.35s13.66-7.31,15.41-8.35S332,366.87,332,366.87Z" style="fill:#263238"></path><path d="M353.58,311.32s-26.27-5.06-39.67-4.14c-14.58,1-16.93,8.41-15.81,17.58,1.29,10.47,18.25,26.88,24.68,32.77a4.82,4.82,0,0,0,5.45.58c5.5-2.69,8.86-5.73,11.36-10.25a2.45,2.45,0,0,0-.09-2.52l-1.21-1.87,13.24,5.39,2.05-2.49Z" style="fill:#455a64"></path><path d="M332.91,330.59c3.65,5.44,7.66,11.6,9.09,14.39l-3.71-1.51c-5.27-9.29-7.57-17-17.31-21.94C321,321.53,327.49,322.5,332.91,330.59Z" style="fill:#37474f"></path><path d="M353.58,313.58l58,13.57s2.72,18.58-1.68,30-16.41,14.38-21.94,14.38c-6.69,0-16.65-3.35-16.65-3.35s-2.12,2.3-9.16,5.39c-2.88,1.26-8.41,3-12,4.12a5.57,5.57,0,0,1-6.11-1.93c-2.28-3-5.37-7.81-6.2-13.08a5.59,5.59,0,0,1,2-5.25l13.78-11.08Z" style="fill:#455a64"></path><path d="M383.36,367.89c5,.65,15.93-1.36,20.24-10.73,4.23-9.17,2.95-22,2-31.4l1.59.37,4.35,1h0s2.72,18.58-1.68,30-16.41,14.38-21.94,14.38c-6.69,0-16.65-3.35-16.65-3.35a22.45,22.45,0,0,0,4.21-5.84s-.43,2.24-.9,3.82C376.12,366.82,380.06,367.45,383.36,367.89Z" style="fill:#37474f"></path><path d="M350.78,348.62s3.65-3.08,6-4.95c4-3.21,5-4.47,10.58-4.57,8.1-.15,23.67,1.71,23.67,1.71s-16.35-3.89-22-4.83-9.11-.37-12.3,2.46-9,8.87-9,8.87Z" style="fill:#37474f"></path><path d="M355.86,341.07a16.6,16.6,0,0,1-2.28-10.48s-3.6,6.89-1.17,14Z" style="fill:#37474f"></path></g><g id="freepik--Top--inject-2"><g id="freepik--Arm--inject-2"><path d="M267.28,269.91c-.81,1.06-1,2.19-.53,2.85.82,1.05,2.25.21,2.25.21s-2.65,1.5-1.69,2.88,2.65.49,2.65.49-1.82,1-1.28,1.86c.73,1.14,2.69.8,5-.42a13.63,13.63,0,0,0,4.24-1.06,9.52,9.52,0,0,0,3.14.79,12.75,12.75,0,0,0,1,3.69c1,1.7,1.86,2.85,5,3.33s3.38.18,5.43,1.48l-8.26-21.41-12-.37Z" style="fill:#f28f8f"></path><path d="M278.35,273.72a6.54,6.54,0,0,1-3.23.47l.11,0a7.11,7.11,0,0,1-3.1,1.12l.11-.05a3.86,3.86,0,0,1-2.28,1.1,4.37,4.37,0,0,0,2.05-1.29l0,0h.07a8.38,8.38,0,0,0,2.95-1.1l.06,0h.05A9.23,9.23,0,0,0,278.35,273.72Z" style="fill:#b16668"></path><g id="freepik--Dreidels--inject-2"><path d="M259,284.15c-.06,4.55,4,11,9.59,11.07s9.79-5.76,9.85-10.83l-9.63-7.6Z" style="fill:#009C86"></path><path d="M259,284.15c-.06,4.55,4,11,9.59,11.07s9.79-5.76,9.85-10.83l-9.63-7.6Z" style="opacity:0.30000000000000004"></path><path d="M268.6,289.76c0,3.4,2.12,4.93,4.82,3.41s4.93-5.5,5-8.9l.08-6.67-9.79,5.49Z" style="fill:#009C86"></path><path d="M276.18,281.9c-.43-.26-.85-.3-.76-.75-.39.89-.68,1.93-.28,2.2.14.09.3.16.43.23a11.5,11.5,0,0,0-.95,2.87,8.53,8.53,0,0,1-.26.91l-1.73,1a5.67,5.67,0,0,1,.37-1.75c.27-.74.56-1.53.69-1.9a.55.55,0,0,1,.32.66c.61-1.37.68-2.11.25-2.36s-.85-.3-.76-.75c-.39.89-.68,1.92-.28,2.2a3.13,3.13,0,0,0,.36.19c-.17.46-.56,1.5-.75,2a8.05,8.05,0,0,0-.47,1.85l-1.12.63s0-1.09,0-1.75a4.65,4.65,0,0,1,.34-1.74.53.53,0,0,1,.28.64c.61-1.37.68-2.11.25-2.37s-.84-.29-.76-.75c-.38.9-.67,1.93-.27,2.2a2.46,2.46,0,0,0,.42.23,6.73,6.73,0,0,0-.72,2.45c-.06,1.12-.1,2.92-.1,2.92l3.32-1.86a18,18,0,0,0,.76-2.61c.3-1.42.68-2.53,1.07-2.66a.56.56,0,0,1,.08.48C276.54,282.89,276.61,282.15,276.18,281.9Z" style="fill:#fafafa"></path><path d="M268.6,289.76c0,3.4-2.23,4.88-4.9,3.29s-4.79-5.62-4.75-9l.08-6.67,9.66,5.73Z" style="fill:#009C86"></path><path d="M268.6,289.76c0,3.4-2.23,4.88-4.9,3.29s-4.79-5.62-4.75-9l.08-6.67,9.66,5.73Z" style="opacity:0.15"></path><path d="M263,280.9a1.9,1.9,0,0,0-.56,1.48c0,.69.13.85.31.95l2.91,1.73s.09,1.26.1,2.86a15.29,15.29,0,0,1,0,2.74,2.36,2.36,0,0,1-.26.48,1.83,1.83,0,0,0,.58-.69c.33-.56.28-.68.29-2.11s.05-3.41.05-3.41l.3-.77-3.3-2C263.07,282,262.85,281.76,263,280.9Z" style="fill:#fafafa"></path><path d="M263.16,284.48a3.8,3.8,0,0,0-.9,1.7c-.13.62-.06,1.74-.11,2.06a3.9,3.9,0,0,1-.33.86,4.24,4.24,0,0,0,.71-1.13c.27-.65,0-1.89.19-2.44A6.66,6.66,0,0,1,263.16,284.48Z" style="fill:#fafafa"></path><polygon points="259.03 277.36 268.82 271.86 278.48 277.6 268.69 283.09 259.03 277.36" style="fill:#009C86"></polygon><polygon points="259.03 277.36 268.82 271.86 278.48 277.6 268.69 283.09 259.03 277.36" style="fill:#fff;opacity:0.15"></polygon><path d="M270.47,268.7A.82.82,0,0,0,270,268a2.51,2.51,0,0,0-2.28,0,.81.81,0,0,0-.48.65c0,.07-.1,8.18-.1,8.25a.81.81,0,0,0,.47.66,2.52,2.52,0,0,0,2.27,0,.8.8,0,0,0,.48-.65C270.37,276.88,270.47,268.76,270.47,268.7Z" style="fill:#37474f"></path><path d="M267.72,269.32a.83.83,0,0,1-.47-.66.81.81,0,0,1,.48-.65,2.51,2.51,0,0,1,2.28,0,.82.82,0,0,1,.46.67.8.8,0,0,1-.48.65A2.52,2.52,0,0,1,267.72,269.32Z" style="fill:#455a64"></path></g><path d="M307.26,277.31c-4.49-3.15-8.82-7.06-11.4-11.58-2.42-4.25-3.69-4.39-6.29-5a66.35,66.35,0,0,0-8.5-1,41.56,41.56,0,0,0-6.81.81c-1.28.38-5.15,2.84-7.24,3.78s-3,1.42-2.39,2.42,2.37.93,3.89.74a6.62,6.62,0,0,0,2.6-.9s3.37-.63,3.63-1.07l4.53-.2a13.81,13.81,0,0,0,3.47,1.11l0,.12a1.18,1.18,0,0,1-.79.79,11.76,11.76,0,0,1-3.78.37c-1.88-.18-2.69-.16-4.61-.42a24.28,24.28,0,0,0-5.05-.53c-1.22.16-2.44,1.19-1.21,3.11a6.88,6.88,0,0,0,4.89,2.9c1.81.36,5.75.34,6.84.58a3.69,3.69,0,0,1,2.78,2.24c.81,1.56,1.71,4.91,5.49,7.16a76.59,76.59,0,0,1,11.46,7.83C304.26,288.17,307.63,284.13,307.26,277.31Z" style="fill:#ffa8a7"></path><path d="M282.7,266.52a12.75,12.75,0,0,1,2.2-4.09,6.92,6.92,0,0,0-2.75,4.06Z" style="fill:#f28f8f"></path><path d="M351.08,292.48l19.21-17.05-.85-23.87c-10.33-1.66-17.49,5.28-21.44,9.68s-6.19,7.65-11.82,12.89l-10.32,9.62s-12.44-5.08-14.43-6.08-2.92-.3-2.92-.3-.23,5.29-3.45,8.81a21.05,21.05,0,0,1-6.37,4.9s-.91.57,1.31,2.55,21.69,12.5,25.72,13.79c5,1.61,7.79-.38,12.69-4.14S351.08,292.48,351.08,292.48Z" style="fill:#009C86"></path><path d="M351.08,292.48l19.21-17.05-.85-23.87c-10.33-1.66-17.49,5.28-21.44,9.68s-6.19,7.65-11.82,12.89l-10.32,9.62s-12.44-5.08-14.43-6.08-2.92-.3-2.92-.3-.23,5.29-3.45,8.81a21.05,21.05,0,0,1-6.37,4.9s-.91.57,1.31,2.55,21.69,12.5,25.72,13.79c5,1.61,7.79-.38,12.69-4.14S351.08,292.48,351.08,292.48Z" style="opacity:0.25"></path><path d="M298.69,291.08s-3.29-2.89-6.3-5.17c2.68-.14,6.17-2.68,7.66-4.48,2.41-2.91,2.79-7.56,2.79-7.56l5.67,3.5s.23,5-2.79,8.6C302.2,290.14,298.69,291.08,298.69,291.08Z" style="fill:#37474f"></path></g><g id="freepik--Chest--inject-2"><path d="M406.26,259.44c5.68,2.38,6.38,22.4,5.87,73.45-14.4,10-58.25,2.29-61.22-17.05-.79-9-.51-29.72,0-38.55.61-10.64,2.25-17.18,7.39-21.22,9.09-7.16,18.17-5.1,26.35-3.75C393.92,253.84,401.31,257.37,406.26,259.44Z" style="fill:#009C86"></path><path d="M389.48,261.17c-3.83,2.6-12.08,5.25-17.38,2.6s-3.36-7.84-.59-9.78a36.83,36.83,0,0,1,6.3-3,36.5,36.5,0,0,1,4.33.36,76.07,76.07,0,0,1,11.11,3.23C394.56,255.57,392.66,259,389.48,261.17Z" style="fill:#455a64"></path><path d="M393,248.24c5.24-5.57,12.28-9.35,15.38-19.32,3.49-11.21.33-21.71-6.34-23.74,0,0-.37-8.25-10.64-12.65-8.1-3.47-20.52-2.43-28.11,1.92-4.13,2.37-7.66,5.36-9.77,9.52-2.19,4.34-3.14,10.5-1.85,15.2a15.32,15.32,0,0,0,6.32,8.27,34.55,34.55,0,0,0,9.68,4.27c2.11.63,4.24,1.2,6.35,1.85a17.17,17.17,0,0,1,3.24,1.1,11.49,11.49,0,0,1,1.82,1.74l10.47,9.86C390.34,247,392.09,248.24,393,248.24Z" style="fill:#263238"></path><path d="M384.16,190.7c8.85,2.6,26.27,25.7,22.9,41.62C416.87,216.38,407.88,189.8,384.16,190.7Z" style="fill:#009C86"></path><path d="M393.19,229.2a1.49,1.49,0,0,0,.28.23c1.51.95,1.46-1.65,2.92-3.39a3.87,3.87,0,0,1,3.19-1.3,5,5,0,0,1,4.68,2.84c1.53,3.14-.13,8-4.3,9.53a5.88,5.88,0,0,1-6.37-1.24L392.4,255.2s-1.45,4.81-10,7c-10.34,2.65-13.77-2.68-10.85-6.19l-.09-5.5a24.72,24.72,0,0,1-7.69-1.06A14.65,14.65,0,0,1,354.18,238c-.72-3.75.4-7.09.36-10.88,0-2.26-.21-5.83-.17-7.29A15.67,15.67,0,0,1,355,216c3.39.5,12-.6,18.38-6.64a16.43,16.43,0,0,1-9.44,8.33c9.67,3.19,18.89-2.13,21.78-8.11a14.62,14.62,0,0,0,1.24,8,15.13,15.13,0,0,0,5.53,6.15,8.94,8.94,0,0,0,.12,4.24A2.86,2.86,0,0,0,393.19,229.2Z" style="fill:#ffa8a7"></path><path d="M375.56,220.76l5.29,2.46a3.06,3.06,0,0,0-1.47-4A2.85,2.85,0,0,0,375.56,220.76Z" style="fill:#263238"></path><path d="M374.73,236.6,367,238.23a4.16,4.16,0,0,0,4.83,3.12A3.86,3.86,0,0,0,374.73,236.6Z" style="fill:#b16668"></path><path d="M373.9,238.18a3,3,0,0,1,.85.2,3.82,3.82,0,0,1-2.93,3,3.57,3.57,0,0,1-.86.07,2.61,2.61,0,0,1,0-.63A2.8,2.8,0,0,1,373.9,238.18Z" style="fill:#f28f8f"></path><path d="M379.34,226.33a2.4,2.4,0,1,1-2.24-2.55A2.4,2.4,0,0,1,379.34,226.33Z" style="fill:#263238"></path><path d="M362.27,225.24a2.4,2.4,0,1,1-2.23-2.55A2.4,2.4,0,0,1,362.27,225.24Z" style="fill:#263238"></path><path d="M356.51,221.23l5.67-1.56a2.82,2.82,0,0,0-3.51-2.1A3.09,3.09,0,0,0,356.51,221.23Z" style="fill:#263238"></path><polygon points="368.12 223.22 366.97 234.2 360.94 232.14 368.12 223.22" style="fill:#f28f8f"></polygon><path d="M371.46,250.51s8.27-.76,14.28-4.42a14.36,14.36,0,0,0,5.21-6.8s-.95,4.61-3.14,7c-5.74,6.36-16.28,6.95-16.28,6.95Z" style="fill:#f28f8f"></path><path d="M371,242.62Z" style="fill:#b16668"></path><path d="M376.8,241.75Z" style="fill:#b16668"></path></g><path d="M402.47,258.53c11.49,3.21,13.57,8.53,15,18.09,1.37,8.9,5.43,33.08,6.79,41.61,1.83,11.48,3.38,35.24,5.2,37s13.33,4.68,15.87,6.62,6,7.22,6.91,8.25,1,2.88-3.19,4.14c-4.44,1.35-6.39,1.92-10.06-.25-1.52-.89-5-3.39-6.45-4.27a13.44,13.44,0,0,0-6.31-1.81c-1.6.1,1.52,2.08,3.42,3.46,1.43,1,2.87,3.8,1.14,5.31-.41.35-4.83-2.13-7.43-3.19a12.55,12.55,0,0,1-7.41-9.73c-.39-4.43-1.5-9.19-4.1-16.66a165.67,165.67,0,0,1-6.94-26.76c-1.57-10.64-9.08-33.51-9.08-33.51C392.26,273.32,397.57,260.56,402.47,258.53Z" style="fill:#ffa8a7"></path><path d="M402.19,257.91c5,1.36,9.5,1.58,13.79,9.29,3,5.46,6,28.83,7.51,35.89s5.09,33.78,5.58,37.47-1.65,4.38-1.65,4.38-1.23-1.63-7.7-.69-7.54,3.75-7.54,3.75-.95,1-2.62-1.87S403.62,325,402.19,317s-5.68-21.25-7.36-28.5C392.55,278.64,393.33,262.94,402.19,257.91Z" style="fill:#009C86"></path><path d="M402.19,257.91c5,1.36,9.5,1.58,13.79,9.29,3,5.46,6,28.83,7.51,35.89s5.09,33.78,5.58,37.47-1.65,4.38-1.65,4.38-1.23-1.63-7.7-.69-7.54,3.75-7.54,3.75-.95,1-2.62-1.87S403.62,325,402.19,317s-5.68-21.25-7.36-28.5C392.55,278.64,393.33,262.94,402.19,257.91Z" style="opacity:0.25"></path><path d="M427.42,344.94s-1.23-1.63-7.7-.69-7.54,3.75-7.54,3.75l2,6.27s.23-2.44,6.63-3.75c6.64-1.36,7.54.71,7.54.71Z" style="fill:#455a64"></path></g></g></g><g id="freepik--character-1--inject-2"><g id="freepik--character--inject-2"><g id="freepik--bottom--inject-2"><path d="M59.88,343.94c-1.14-1.52,3.4-6.84,9.81-7.56,5-.57,7.36.35,10.93.85s8.85-.21,11.87-.45c7.43-.58,9.23,4.16,8.79,5-1,1.8-3.22,2.39-7.44,3.9S69.38,346.8,59.88,343.94Z" style="fill:#263238"></path><path d="M59.88,343.94s1-3.95,9.11-2c5.29,1.27,15,1.94,18,1.57,3.91-.49,9.23-4,13.3-2.4,1.71,2.38,1.07,4.71.53,8.12,8.86,3.92,27.79,10.84,27.79,10.84l22.34,20.27c-9.39,2.38-25.63.16-38.42-6.52-7.58-3.95-14-9.15-20.58-13.86-3.58-2.54-6.37-4.32-8-4.86-3.89-1.32-9.45-3.46-14.52-5.65,0,0,0,0,0,0C65.49,348,61.66,345.83,59.88,343.94Z" style="fill:#ffa8a7"></path><path d="M183.11,350c-1-6.6-7.3-15.07-13.47-21-8.23-7.91-25.45-20.8-25.45-20.8l-.33,1.55h0l-47.35-9.68c-3.06,6.28-6.68,19.19-6.69,28.32,0,8.5,1.29,18.74,16.18,29.79,9,6.7,12.76,11.49,19.55,15.05,7.36,3.86,17.37,10.19,27.91,6.33,6.07-2.22,10.07-5.95,10.12-12.75h0c1.21.74,8.6,2.05,13.6-.78C181.82,363.44,184.13,356.86,183.11,350Z" style="fill:#ffa8a7"></path><path d="M166.65,367.6a10,10,0,0,1-3.05-.77c-1.83-11.46-13.54-19.95-30.13-33.4,6.85-1.43,13.33-8.89,13.33-8.89-1.1,6-4,8.79-6.48,10.22,3.7,3.32,10.75,7.45,16.68,14.26C161,353.56,166.08,359.28,166.65,367.6Z" style="fill:#f28f8f"></path><path d="M176.6,336.86c1,1.31,1.91,2.65,2.73,4-8.46-.9-21.07.28-38.86,13.28-11.26,8.22-13.71,16.31-13.71,16.31l-4-1.59C127.94,355.62,147.12,336.67,176.6,336.86Z" style="fill:#f28f8f"></path><path d="M131.62,371.51c-5.92.55-17.51-3.42-24.35-9.39-2.17-1.9-7.73-6.54-10.58-12.24-.81-1.63,20.6,14.6,20.6,14.6S124.94,369.62,131.62,371.51Z" style="fill:#f28f8f"></path><path d="M102.43,352.23c-4.94,2-7.93,7.25-6.87,10.37l1.11.81s.61,1.56-3.48-1.34-6.32-4.72-7.93-5.69a77.52,77.52,0,0,0-11.92-5c-6.21-2.17-13.14-5.1-13.64-8,3.14-3.13,5-2.73,9.55-2s9.69,2.37,14,1.57,10.4-4,13.39-3.74c1.68.14,3.68.3,4.64,2.47s-.16,7-.16,7,4.14,1.77,4.7,2a1.51,1.51,0,0,1,.75,1l-1.21-.49A13.85,13.85,0,0,0,102.43,352.23Z" style="fill:#455a64"></path></g><path id="freepik--Hair--inject-2" d="M106.88,267.62c2.41-.1,4.82-.54,7.2-.19,2.72.39,4.27,1.86,6.45,3.28a14.15,14.15,0,0,0,14.15.54c2-1.08,3.69-2.64,5.78-3.49,2.76-1.12,5.85-.89,8.83-.84s6.16-.15,8.55-1.94a9.41,9.41,0,0,0,3.24-8.7c-.27-2.13-1.08-4.42-.05-6.29a11.61,11.61,0,0,1,2.05-2.27A9.27,9.27,0,0,0,165,238.2c-1-2.71-3.26-4.7-5.17-6.81a15.91,15.91,0,0,1-2.55-3.44,14.11,14.11,0,0,1-1-4.62,50.09,50.09,0,0,0-.46-5.62,14.28,14.28,0,0,0-6.3-8.56l-.42-.27a29.72,29.72,0,0,0-6-2.81c-1.82-.64-3.3-1.2-5.19-.72a48,48,0,0,1-6.88.83l-7.44.75c-3.49.35-9.61-1-13.1-.59a11.28,11.28,0,0,0-8.35,5.66c-2.76,5.29-1.33,7.32-3,11.07-1.24,2.74-4,3.93-6.09,6a8.19,8.19,0,0,0-2,8.54c1,3.21,4,5.32,2.85,9-.61,2-1.69,3.55-2.08,5.69a11.75,11.75,0,0,0,.41,6.6,14,14,0,0,0,6.41,6.9,15.65,15.65,0,0,0,6.86,1.82C106,267.64,106.43,267.64,106.88,267.62Z" style="fill:#263238"></path><g id="freepik--top--inject-2"><path id="freepik--arm--inject-2" d="M150.06,300.09c3.49,5.67,5.46,8.61,12.71,11.85a114.63,114.63,0,0,0,35.77,8.86c7,.63,11.75.1,15.21-1.87,8.3-4.72,10.21-15.81,3.1-14.51-5.66,1-8.59,1.42-10.25.85,0,0,4.37-5.24,3.18-7.12s-4.82.82-8.39,3.24c-2.28,1.54-3.92,3.55-5.52,3.4-9.7-1.32-25.52-8.83-25.52-8.83s-11.52-22.41-16.57-29.89-13.89-8.62-13.89-8.62l-1.41,20.12Z" style="fill:#ffa8a7"></path><path d="M138.39,258a16.44,16.44,0,0,1,16.7,2.64c5.1,4.34,5.1,13.09,5.1,13.09l2.79,1.84s-.44,1.49-.49,1.6a3.1,3.1,0,0,1-1.49,1.52,22.52,22.52,0,0,1-2.31.64,4.22,4.22,0,0,0-1.78,1.25c-.32.41-.57.87-.91,1.26a3.23,3.23,0,0,1-2.07,1c-1.13.09-2.3-.43-3.37-.05a14.25,14.25,0,0,0-1.81,1.12c-.82.44-2.14.59-2.73-.26a6.36,6.36,0,0,1-.66-1.3,29.71,29.71,0,0,1-1.24-4.16c-.88-3.68-1.49-7.44-2.05-11.19-.43-2.88-1-4.27-1.39-7.16C140.64,259.48,138.43,258.32,138.39,258Z" style="fill:#009C86"></path><path d="M138.39,258a16.44,16.44,0,0,1,16.7,2.64c5.1,4.34,5.1,13.09,5.1,13.09l2.79,1.84s-.44,1.49-.49,1.6a3.1,3.1,0,0,1-1.49,1.52,22.52,22.52,0,0,1-2.31.64,4.22,4.22,0,0,0-1.78,1.25c-.32.41-.57.87-.91,1.26a3.23,3.23,0,0,1-2.07,1c-1.13.09-2.3-.43-3.37-.05a14.25,14.25,0,0,0-1.81,1.12c-.82.44-2.14.59-2.73-.26a6.36,6.36,0,0,1-.66-1.3,29.71,29.71,0,0,1-1.24-4.16c-.88-3.68-1.49-7.44-2.05-11.19-.43-2.88-1-4.27-1.39-7.16C140.64,259.48,138.43,258.32,138.39,258Z" style="fill:#fff;opacity:0.25"></path><g id="freepik--chest--inject-2"><path d="M152.34,312.6a53,53,0,0,0-3.91-10.91c.8-9.07,1.17-13.31,1.52-22.24.31-7.67-1.11-17.86-11.37-21.51s-14.57-3.5-21.82-2.67c-8.33,1-12.23,1.78-12.23,1.78a21.4,21.4,0,0,0-10,13.22c-3.11,12.74-7.78,41.13-7.22,53s.36,21.36,18.7,34.5c12.18,8.73,19.93,11.54,19.93,11.54s.85-13.06,30.12-26.53c13.64-6.28,22.33-3.5,22.33-3.5a71.57,71.57,0,0,0-11.7-13.84C158.18,317.64,153.87,315.18,152.34,312.6Z" style="fill:#009C86"></path><g style="opacity:0.1"><path d="M152.34,312.6a53,53,0,0,0-3.91-10.91c.8-9.07,1.17-13.31,1.52-22.24.31-7.67-1.11-17.86-11.37-21.51s-14.57-3.5-21.82-2.67c-8.33,1-12.23,1.78-12.23,1.78a21.4,21.4,0,0,0-10,13.22c-3.11,12.74-7.78,41.13-7.22,53s.36,21.36,18.7,34.5c12.18,8.73,19.93,11.54,19.93,11.54s.85-13.06,30.12-26.53c13.64-6.28,22.33-3.5,22.33-3.5a71.57,71.57,0,0,0-11.7-13.84C158.18,317.64,153.87,315.18,152.34,312.6Z"></path></g><path d="M99.17,261.48a22.43,22.43,0,0,1,4.73-1.05s5.58,7.54,4.44,16.51-8.71,33.77-8.71,33.77,7,15.12,13.42,22.52c1.11,1.16,3.72,2.45,6.68,3.46l.94,6c-2.61-.27,1.45,2.49,9.61,6.1,6.61,2.92-3.81,9.77-13.17,7.85-3.9-.8-7.79-3.51-12.67-8.62a121,121,0,0,1-17-22.45c0-.73-.07-1.47-.11-2.22-.56-11.91,4.11-40.3,7.22-53A20.18,20.18,0,0,1,99.17,261.48Z" style="opacity:0.15"></path><path d="M134.4,267.31c.45,2.76-1.86,5.94-8.22,5.94s-11.67-6.36-13.46-10.32c-1.29-2.85-1.38-5.65-.58-7.09,1.4-2.52,5.39-2.58,6.83-2.14Z" style="fill:#f0f0f0"></path><path d="M136.78,255.94c5.61,1.46,9.49,7.91,7.64,12.74-1.47,3.87-7.83,3.35-10-1.37l-.91-11.37Z" style="fill:#f0f0f0"></path></g><path d="M115.55,250s-9.69-9.5-11.9-19.8c-2.49-11.59,0-22.46,6.85-23.89,0,0,3.56-7.36,11.6-9.86,12.25-3.82,18.18-1.38,25.88,2.93,4.05,2.26,7.64,3.8,11.86,9.41a19.91,19.91,0,0,1,2.85,17.79,10.8,10.8,0,0,1-9.31,7.95c-3.54.53-22.77,4.84-22.77,4.84Z" style="fill:#263238"></path><path d="M113.76,226.94c1.74-9.7,3.57-16.38,12.22-21.77,7.43-4.63,22.13-6.13,28.19-2.08,0,0-2.64-5.35-13.15-6.5-14.26-1.19-30.18,7.4-30,29.23A4,4,0,0,1,113.76,226.94Z" style="fill:#009C86"></path><path d="M156.93,225c.09-1.41.3-3.17-.54-4.37a12.79,12.79,0,0,0-3-2.57,15.87,15.87,0,0,1-3.4-3.54,9.18,9.18,0,0,0,.56,3.53,6.87,6.87,0,0,0,2.34,2.88,16,16,0,0,1-5.55.58,19.62,19.62,0,0,1-6.77-2.12A13.66,13.66,0,0,1,135,214a5.76,5.76,0,0,0,1.14,4.1,17.21,17.21,0,0,0,3.07,3.08,11.65,11.65,0,0,1-8.75-2.3c-3.83-2.82-4.08-6-4.08-6-.11.67-.44,3.22-.63,3.87a11.49,11.49,0,0,1-1.34,3.09,15.2,15.2,0,0,1-6.12,5.67,9,9,0,0,1-.5,4.26,2.89,2.89,0,0,1-.71,1.16,2.23,2.23,0,0,1-.3.2c-1.6.82-1.31-1.79-2.62-3.68a4,4,0,0,0-3.09-1.59,5,5,0,0,0-5,2.43c-1.81,3-.6,8.08,3.46,10a6,6,0,0,0,6.52-.67l-.56,19.53s5.12,8.85,18.88,10.23c1.74-1.3,2.61-5.1,2-7.53l.59-5.51a25,25,0,0,0,7.82-.36,14,14,0,0,0,10.3-10.86c1-4.4.34-7.23.72-11.05C156.05,229.74,156.85,226.48,156.93,225Z" style="fill:#ffa8a7"></path><path d="M137,254.27c-5-.82-8.57-1.47-13.94-5.74a15.11,15.11,0,0,1-4.62-7.31s.51,5.74,2.49,8.37c5.19,6.91,15.74,7.46,15.74,7.46Z" style="fill:#f28f8f"></path><path d="M134.46,223.74l-5.65,1.62a3.08,3.08,0,0,1,2.08-3.73A2.87,2.87,0,0,1,134.46,223.74Z" style="fill:#263238"></path><path d="M130.59,229.55a2.42,2.42,0,1,0,2.62-2.19A2.41,2.41,0,0,0,130.59,229.55Z" style="fill:#263238"></path><path d="M147.59,230.38a2.42,2.42,0,1,0,2.62-2.19A2.42,2.42,0,0,0,147.59,230.38Z" style="fill:#263238"></path><path d="M154.24,227.09l-5.41-2.44a2.84,2.84,0,0,1,3.83-1.55A3.12,3.12,0,0,1,154.24,227.09Z" style="fill:#263238"></path><path d="M133.78,240.05l6.68,2.88a3.5,3.5,0,0,1-4.67,2A3.83,3.83,0,0,1,133.78,240.05Z" style="fill:#b16668"></path><path d="M134.79,241.75a2.43,2.43,0,0,1,2.19,2.63,2.2,2.2,0,0,1-.21.77,3.54,3.54,0,0,1-3.18-3.18A2.41,2.41,0,0,1,134.79,241.75Z" style="fill:#f28f8f"></path><polygon points="142.25 229.77 141.77 239.15 148.11 238.04 142.25 229.77" style="fill:#f28f8f"></polygon><path d="M130.91,345.37c-8.16-3.61-12.22-6.36-9.61-6.09,1.63.16,7.22,1.29,7.57-.91.33-2-4.43-3.67-8.5-5.06-3-1-5.58-2.3-6.68-3.46-6.43-7.4-13.43-22.52-13.43-22.52s7.58-24.81,8.72-33.76-4.45-16.52-4.45-16.52c-10.34,1.19-14.13,7.6-16.1,15.44l-6.14,24.58c-1.12,6.55-1.57,10.06,1.74,17.28a114.56,114.56,0,0,0,21,30.25c4.87,5.11,8.77,7.82,12.66,8.62C127.1,355.14,137.52,348.29,130.91,345.37Z" style="fill:#ffa8a7"></path><path d="M107.23,256.57a14.44,14.44,0,0,0-15.14,2c-4.29,3.63-6.25,10.25-5.32,16.59L83,278.2a4.71,4.71,0,0,0,5.41,3c4.06-.81,5.12-.75,7.55,1.68s4.3,1.86,6.49.74,4.48,3.5,8.69,1l-.83-4a38,38,0,0,0,1.68-10.85C111.78,264.64,109.13,259.27,107.23,256.57Z" style="fill:#009C86"></path><path d="M107.23,256.57a14.44,14.44,0,0,0-15.14,2c-4.29,3.63-6.25,10.25-5.32,16.59L83,278.2a4.71,4.71,0,0,0,5.41,3c4.06-.81,5.12-.75,7.55,1.68s4.3,1.86,6.49.74,4.48,3.5,8.69,1l-.83-4a38,38,0,0,0,1.68-10.85C111.78,264.64,109.13,259.27,107.23,256.57Z" style="fill:#fff;opacity:0.25"></path></g><g id="freepik--dreidels--inject-2"><path d="M198.38,299.77a.81.81,0,0,1,.33.74,2.53,2.53,0,0,1-1.14,2,.82.82,0,0,1-.8.08l-7.14-4.13a.79.79,0,0,1-.34-.74,2.53,2.53,0,0,1,1.14-2,.79.79,0,0,1,.8-.07Z" style="fill:#009C86"></path><path d="M198.38,299.77a.81.81,0,0,1,.33.74,2.53,2.53,0,0,1-1.14,2,.82.82,0,0,1-.8.08l-7.14-4.13a.79.79,0,0,1-.34-.74,2.53,2.53,0,0,1,1.14-2,.79.79,0,0,1,.8-.07Z" style="opacity:0.15"></path><path d="M196.44,301.82a.69.69,0,0,0,1.13.66,2.53,2.53,0,0,0,1.14-2,.69.69,0,0,0-1.14-.66A2.52,2.52,0,0,0,196.44,301.82Z" style="fill:#37474f"></path><path d="M210.25,297.26c3.94,2.27,7.4,9.08,4.63,13.89s-10,5.48-14.35,3l-1.62-12.16Z" style="fill:#37474f"></path><path d="M210.25,297.26c2.95,1.69,3.15,4.33.47,5.88s-7.25,1.43-10.19-.27l-5.78-3.34,9.72-5.61Z" style="fill:#455a64"></path><path d="M200.53,314.1c2.94,1.69,5.33.56,5.33-2.54s-2.39-7-5.33-8.69l-5.78-3.34v11.23Z" style="fill:#263238"></path><path d="M201.49,296.84c.51.27,1.16.88-.39,1.63a4.66,4.66,0,0,0,1.33.33l2.94,1.7.74.86,1.78.4-.87-.94a2.32,2.32,0,0,1,.79-.16,4.3,4.3,0,0,0,2.23-.49l-1.78-.42a1.62,1.62,0,0,1-.77.35c-.52.09-1.41.14-1.41.14l-2.78-1.61s1.39-.46.08-1.38Z" style="fill:#009C86"></path><path d="M201.49,296.84c.51.27,1.16.88-.39,1.63a4.66,4.66,0,0,0,1.33.33l2.94,1.7.74.86,1.78.4-.87-.94a2.32,2.32,0,0,1,.79-.16,4.3,4.3,0,0,0,2.23-.49l-1.78-.42a1.62,1.62,0,0,1-.77.35c-.52.09-1.41.14-1.41.14l-2.78-1.61s1.39-.46.08-1.38Z" style="fill:#fff;opacity:0.35000000000000003"></path><path d="M196.09,305.45a1.91,1.91,0,0,1,.94,1.2c.19.64.08,1,.32,1.14l1.65.95a7.89,7.89,0,0,1,2,1.37l.51.62,1.15,0v-2.59l-1.28,0v1.34L198.79,308a.75.75,0,0,1-.38-.64,2.55,2.55,0,0,0-.83-1.7C197.23,305.32,196.43,305.46,196.09,305.45Z" style="fill:#009C86"></path></g></g></g><g id="freepik--Table--inject-2"><g id="freepik--table--inject-2"><path d="M170.05,408.83a2.56,2.56,0,0,1,1.5-2.1,8,8,0,0,1,7.26,0,2.56,2.56,0,0,1,1.5,2.1l-1.5,37.83h0a1.8,1.8,0,0,1-1.05,1.45,5.68,5.68,0,0,1-5.14,0,1.8,1.8,0,0,1-1.05-1.45h0Z" style="fill:#455a64"></path><path d="M178.81,406.73a8,8,0,0,0-7.26,0,2.56,2.56,0,0,0-1.5,2.1l.5,12.55a55.32,55.32,0,0,0,9,7.34l.79-19.89A2.56,2.56,0,0,0,178.81,406.73Z" style="fill:#263238"></path><path d="M329.49,408.83a2.55,2.55,0,0,0-1.51-2.1,8,8,0,0,0-7.26,0,2.56,2.56,0,0,0-1.5,2.1l1.5,37.83h0a1.79,1.79,0,0,0,1.06,1.45,5.66,5.66,0,0,0,5.13,0,1.83,1.83,0,0,0,1.06-1.45h0Z" style="fill:#455a64"></path><path d="M328,406.73a8,8,0,0,0-7.26,0,2.56,2.56,0,0,0-1.5,2.1l.81,20.3a58.05,58.05,0,0,0,8.93-7l.53-13.31A2.55,2.55,0,0,0,328,406.73Z" style="fill:#263238"></path><path d="M255.34,437.22a2.56,2.56,0,0,0-1.5-2.1,8.07,8.07,0,0,0-7.26,0,2.55,2.55,0,0,0-1.51,2.1l1.51,37.83h0a1.83,1.83,0,0,0,1.06,1.45,5.66,5.66,0,0,0,5.13,0,1.81,1.81,0,0,0,1.06-1.45h0Z" style="fill:#455a64"></path><path d="M254.87,449.12l.47-11.9a2.56,2.56,0,0,0-1.5-2.1,8.07,8.07,0,0,0-7.26,0,2.55,2.55,0,0,0-1.51,2.1l.48,11.9C248.56,449.23,251.85,449.23,254.87,449.12Z" style="fill:#263238"></path><path d="M342.21,382h-.09c0-13.6-8.89-27.19-26.86-37.56-35.93-20.74-94.18-20.74-130.11,0-18,10.37-26.87,24-26.86,37.56h-.09v7.3h0c.22,13.41,9.22,26.79,27,37,35.93,20.74,94.18,20.74,130.11,0,17.73-10.24,26.73-23.62,26.95-37h0Z" style="fill:#009C86"></path><path d="M342.21,382h-.09c0-13.6-8.89-27.19-26.86-37.56-35.93-20.74-94.18-20.74-130.11,0-18,10.37-26.87,24-26.86,37.56h-.09v7.3h0c.22,13.41,9.22,26.79,27,37,35.93,20.74,94.18,20.74,130.11,0,17.73-10.24,26.73-23.62,26.95-37h0Z" style="fill:#fff;opacity:0.4"></path><path d="M185.15,344.48c-35.93,20.74-35.93,54.37,0,75.12s94.18,20.74,130.11,0,35.93-54.38,0-75.12S221.08,323.74,185.15,344.48Z" style="fill:#009C86"></path><path d="M185.15,344.48c-35.93,20.74-35.93,54.37,0,75.12s94.18,20.74,130.11,0,35.93-54.38,0-75.12S221.08,323.74,185.15,344.48Z" style="fill:#fff;opacity:0.65"></path></g><g id="freepik--dreidels--inject-2"><path d="M243.87,344.91l-7.9,4.56,5.29,3-8.46,4.8c-4.27,2.46-10.88,2.64-14.78.39s-3.59-6.07.68-8.53l8.38-4.85,5.21,3,7.9-4.57a1.74,1.74,0,0,1,1.57,0l2.11,1.22A.49.49,0,0,1,243.87,344.91Z" style="fill:#009C86;opacity:0.30000000000000004"></path><path d="M265.77,360.74h0v-8.45l-9.31-4.68h0v-5.92c0-.23-.18-.47-.54-.65a3.29,3.29,0,0,0-2.61,0c-.36.18-.54.42-.54.65v5.92h0l-9.31,4.68v8.45h0a5.9,5.9,0,0,0,0,.74c0,.08,0,.17,0,.25.57,4.82,5.12,10,11.09,10s10.51-5.14,11.08-10c0-.08,0-.17,0-.25A5.87,5.87,0,0,0,265.77,360.74Z" style="fill:#009C86;opacity:0.30000000000000004"></path><g id="freepik--dreidels--inject-2"><path d="M234.35,341.46a.78.78,0,0,0-.33.73,2.49,2.49,0,0,0,1.13,2,.81.81,0,0,0,.81.08l7.14-4.12a.8.8,0,0,0,.34-.74,2.52,2.52,0,0,0-1.14-2,.81.81,0,0,0-.81-.08Z" style="fill:#455a64"></path><path d="M236.29,343.51a.69.69,0,0,1-1.14.65,2.49,2.49,0,0,1-1.13-2,.78.78,0,0,1,.33-.73.79.79,0,0,1,.8.08A2.5,2.5,0,0,1,236.29,343.51Z" style="fill:#37474f"></path><path d="M222.48,338.94c-3.95,2.28-7.41,9.09-4.63,13.9s10,5.48,14.35,2.94l1.61-12.16Z" style="fill:#009C86"></path><path d="M222.48,338.94c-3.95,2.28-7.41,9.09-4.63,13.9s10,5.48,14.35,2.94l1.61-12.16Z" style="opacity:0.30000000000000004"></path><path d="M222.48,338.94c-2.95,1.7-3.16,4.34-.47,5.89s7.24,1.43,10.19-.27l5.78-3.34-9.72-5.61Z" style="fill:#009C86"></path><path d="M232.2,355.78c-2.95,1.7-5.33.57-5.33-2.53s2.38-7,5.33-8.69l5.78-3.34v11.23Z" style="fill:#009C86"></path><path d="M232.2,355.78c-2.95,1.7-5.33.57-5.33-2.53s2.38-7,5.33-8.69l5.78-3.34v11.23Z" style="opacity:0.15"></path><path d="M231.24,338.52c-.52.28-1.16.89.39,1.63a4.47,4.47,0,0,1-1.34.34l-2.94,1.7-.73.86-1.79.4.88-.94a2,2,0,0,0-.79-.16,4.21,4.21,0,0,1-2.23-.5l1.78-.41a1.62,1.62,0,0,0,.77.35c.51.09,1.41.14,1.41.14l2.78-1.61s-1.39-.46-.08-1.38Z" style="fill:#fafafa"></path><path d="M236.63,347.14a1.9,1.9,0,0,0-.93,1.2c-.19.64-.08,1-.33,1.13s-.76.45-1.65.95a7.81,7.81,0,0,0-2,1.38c-.42.49-.51.62-.51.62l-1.15,0v-2.6l1.28,0v1.34l2.57-1.49a.73.73,0,0,0,.39-.64,2.45,2.45,0,0,1,.83-1.7C235.5,347,236.3,347.15,236.63,347.14Z" style="fill:#fafafa"></path></g><g id="freepik--dreidels--inject-2"><path d="M253,348.67a.79.79,0,0,0,.47.66,2.52,2.52,0,0,0,2.27,0,.79.79,0,0,0,.47-.66v-8.25a.79.79,0,0,0-.47-.66,2.52,2.52,0,0,0-2.27,0,.79.79,0,0,0-.47.66Z" style="fill:#009C86"></path><path d="M253,348.67a.79.79,0,0,0,.47.66,2.52,2.52,0,0,0,2.27,0,.79.79,0,0,0,.47-.66v-8.25a.79.79,0,0,0-.47-.66,2.52,2.52,0,0,0-2.27,0,.79.79,0,0,0-.47.66Z" style="opacity:0.15"></path><path d="M255.73,348a.8.8,0,0,1,.47.66.79.79,0,0,1-.47.66,2.52,2.52,0,0,1-2.27,0,.79.79,0,0,1-.47-.66.8.8,0,0,1,.47-.66A2.52,2.52,0,0,1,255.73,348Z" style="fill:#37474f"></path><path d="M244.87,357.69c0,4.56,4.17,11,9.72,11s9.73-5.88,9.73-11l-9.73-7.47Z" style="fill:#37474f"></path><path d="M244.87,357.69c0,3.4,2.18,4.9,4.86,3.35s4.87-5.56,4.87-9v-6.67L244.87,351Z" style="fill:#455a64"></path><path d="M264.32,357.69c0,3.4-2.18,4.9-4.86,3.35s-4.86-5.56-4.86-9v-6.67l9.72,5.61Z" style="fill:#263238"></path><path d="M252.35,349.74c-.43-.26-.85-.29-.76-.74-.38.9-.66,1.93-.26,2.2.14.09.3.16.43.23a11.32,11.32,0,0,0-.92,2.88,7.58,7.58,0,0,1-.25.91l-1.71,1a5.61,5.61,0,0,1,.35-1.76l.67-1.91a.54.54,0,0,1,.32.66c.6-1.38.65-2.12.22-2.37s-.85-.29-.76-.74c-.38.9-.66,1.93-.26,2.2a2.53,2.53,0,0,0,.36.19c-.16.46-.54,1.5-.72,2a8.38,8.38,0,0,0-.45,1.85l-1.11.64v-1.74a4.54,4.54,0,0,1,.32-1.75.54.54,0,0,1,.29.64c.59-1.38.65-2.12.22-2.37s-.85-.29-.77-.74c-.38.9-.65,1.93-.25,2.2a3.55,3.55,0,0,0,.42.23,6.54,6.54,0,0,0-.68,2.45c-.05,1.12-.07,2.93-.07,2.93l3.3-1.91a18.66,18.66,0,0,0,.73-2.62c.28-1.42.65-2.53,1-2.66a.56.56,0,0,1,.08.47C252.73,350.72,252.78,350,252.35,349.74Z" style="fill:#009C86"></path><g style="opacity:0.35000000000000003"><path d="M252.35,349.74c-.43-.26-.85-.29-.76-.74-.38.9-.66,1.93-.26,2.2.14.09.3.16.43.23a11.32,11.32,0,0,0-.92,2.88,7.58,7.58,0,0,1-.25.91l-1.71,1a5.61,5.61,0,0,1,.35-1.76l.67-1.91a.54.54,0,0,1,.32.66c.6-1.38.65-2.12.22-2.37s-.85-.29-.76-.74c-.38.9-.66,1.93-.26,2.2a2.53,2.53,0,0,0,.36.19c-.16.46-.54,1.5-.72,2a8.38,8.38,0,0,0-.45,1.85l-1.11.64v-1.74a4.54,4.54,0,0,1,.32-1.75.54.54,0,0,1,.29.64c.59-1.38.65-2.12.22-2.37s-.85-.29-.77-.74c-.38.9-.65,1.93-.25,2.2a3.55,3.55,0,0,0,.42.23,6.54,6.54,0,0,0-.68,2.45c-.05,1.12-.07,2.93-.07,2.93l3.3-1.91a18.66,18.66,0,0,0,.73-2.62c.28-1.42.65-2.53,1-2.66a.56.56,0,0,1,.08.47C252.73,350.72,252.78,350,252.35,349.74Z" style="fill:#fff"></path></g><path d="M258.59,348.9a1.91,1.91,0,0,0-.53,1.48c0,.7.14.85.31.95L261.3,353s.11,1.26.14,2.86a14.79,14.79,0,0,1,0,2.75,2.11,2.11,0,0,1-.25.48,1.77,1.77,0,0,0,.57-.7c.32-.57.27-.69.27-2.11v-3.41l.3-.78L259,350.19C258.69,350,258.46,349.76,258.59,348.9Z" style="fill:#009C86"></path><path d="M258.81,352.48a3.87,3.87,0,0,0-.88,1.71c-.12.62,0,1.74-.09,2.06a3.68,3.68,0,0,1-.31.86,4.31,4.31,0,0,0,.7-1.14c.26-.65,0-1.89.15-2.44A6.12,6.12,0,0,1,258.81,352.48Z" style="fill:#009C86"></path></g></g><g id="freepik--Coins--inject-2"><g id="freepik--coins--inject-2"><path id="freepik--shadow--inject-2" d="M219.23,382a15.41,15.41,0,0,0-13.42-.22,12,12,0,0,0-3,1.18c-3.83,2.22-3.83,5.8,0,8a15.43,15.43,0,0,0,13.43.21,11.8,11.8,0,0,0,3-1.18C223.07,387.83,223.07,384.24,219.23,382Z" style="fill:#009C86;opacity:0.30000000000000004"></path><path id="freepik--shadow--inject-2" d="M192.85,387.56A14.07,14.07,0,0,0,186,385.9c0-1.43-1-2.85-2.87-3.94a15.36,15.36,0,0,0-13.88,0c-3.83,2.21-3.83,5.8,0,8a14.1,14.1,0,0,0,6.86,1.66c0,1.43,1,2.85,2.87,3.94a15.36,15.36,0,0,0,13.88,0C196.68,393.36,196.68,389.77,192.85,387.56Z" style="fill:#009C86;opacity:0.30000000000000004"></path><path id="freepik--shadow--inject-2" d="M201.87,365.49a15.36,15.36,0,0,0-13.88,0c-3.83,2.21-3.83,5.8,0,8a15.3,15.3,0,0,0,13.88,0C205.7,371.29,205.7,367.7,201.87,365.49Z" style="fill:#009C86;opacity:0.30000000000000004"></path><g id="freepik--Coin--inject-2"><path d="M184.93,383.22a6,6,0,0,0-2.21-2,14.47,14.47,0,0,0-13.07,0,6,6,0,0,0-2.21,2h-.5v1.89h0c.06,1.31,1,2.62,2.7,3.62a14.47,14.47,0,0,0,13.07,0c1.74-1,2.64-2.31,2.71-3.62h0v-1.89Z" style="fill:#009C86"></path><g style="opacity:0.1"><path d="M184.93,383.22a6,6,0,0,0-2.21-2,14.47,14.47,0,0,0-13.07,0,6,6,0,0,0-2.21,2h-.5v1.89h0c.06,1.31,1,2.62,2.7,3.62a14.47,14.47,0,0,0,13.07,0c1.74-1,2.64-2.31,2.71-3.62h0v-1.89Z"></path></g><path d="M176.18,379.62a13.36,13.36,0,0,0-6.53,1.56,6,6,0,0,0-2.21,2h-.5v1.89h0c.06,1.31,1,2.62,2.7,3.62a13.36,13.36,0,0,0,6.53,1.56Z" style="opacity:0.1"></path><path d="M171.13,380.48a10.06,10.06,0,0,0-1.48.7,6,6,0,0,0-2.21,2h-.5v1.89h0c.06,1.31,1,2.62,2.7,3.62a10,10,0,0,0,1.48.69Z" style="opacity:0.1"></path><path d="M181.23,380.48a9.72,9.72,0,0,1,1.49.7,6,6,0,0,1,2.21,2h.5v1.89h0c-.07,1.31-1,2.62-2.71,3.62a9.69,9.69,0,0,1-1.49.69Z" style="fill:#009C86;opacity:0.75"></path><path d="M182.72,379.45a14.41,14.41,0,0,0-13.07,0c-3.61,2.08-3.61,5.46,0,7.55a14.47,14.47,0,0,0,13.07,0C186.33,384.91,186.33,381.53,182.72,379.45Z" style="fill:#009C86"></path><path d="M182.72,379.45a14.41,14.41,0,0,0-13.07,0c-3.61,2.08-3.61,5.46,0,7.55a14.47,14.47,0,0,0,13.07,0C186.33,384.91,186.33,381.53,182.72,379.45Z" style="opacity:0.2"></path><path d="M182.52,379.8a14,14,0,0,0-12.67,0c-1.62.93-2.51,2.15-2.51,3.42s.89,2.5,2.51,3.43a14,14,0,0,0,12.67,0c1.62-.93,2.51-2.15,2.51-3.43S184.14,380.73,182.52,379.8Zm-2.08,5.82a10.4,10.4,0,0,1-8.51,0,2.47,2.47,0,0,1,0-4.79,10.4,10.4,0,0,1,8.51,0,2.47,2.47,0,0,1,0,4.79Z" style="fill:#009C86"></path><path d="M182.52,379.8a14,14,0,0,0-12.67,0c-1.62.93-2.51,2.15-2.51,3.42s.89,2.5,2.51,3.43a14,14,0,0,0,12.67,0c1.62-.93,2.51-2.15,2.51-3.43S184.14,380.73,182.52,379.8Zm-2.08,5.82a10.4,10.4,0,0,1-8.51,0,2.47,2.47,0,0,1,0-4.79,10.4,10.4,0,0,1,8.51,0,2.47,2.47,0,0,1,0,4.79Z" style="fill:#fff;opacity:0.30000000000000004"></path><path d="M181.52,380.22a13.16,13.16,0,0,0-10.67,0c-1.52.78-2.35,1.85-2.35,3s.83,2.22,2.35,3a13.05,13.05,0,0,0,10.67,0c1.51-.78,2.35-1.84,2.35-3S183,381,181.52,380.22Z" style="fill:#009C86"></path><path d="M181.52,380.22a13.16,13.16,0,0,0-10.67,0c-1.52.78-2.35,1.85-2.35,3s.83,2.22,2.35,3a13.05,13.05,0,0,0,10.67,0c1.51-.78,2.35-1.84,2.35-3S183,381,181.52,380.22Z" style="opacity:0.2"></path><path d="M181.34,385.87c2.84-1.46,2.84-3.83,0-5.29a12.68,12.68,0,0,0-10.31,0c-2.84,1.46-2.84,3.83,0,5.29A12.68,12.68,0,0,0,181.34,385.87Z" style="opacity:0.2"></path><path d="M181.34,385.87c2.84-1.46,2.84-3.83,0-5.29a12.68,12.68,0,0,0-10.31,0c-2.84,1.46-2.84,3.83,0,5.29A12.68,12.68,0,0,0,181.34,385.87Z" style="fill:#009C86"></path><path d="M181.34,385.87c2.84-1.46,2.84-3.83,0-5.29a12.68,12.68,0,0,0-10.31,0c-2.84,1.46-2.84,3.83,0,5.29A12.68,12.68,0,0,0,181.34,385.87Z" style="opacity:0.35000000000000003"></path><path d="M181.34,381.57a12.68,12.68,0,0,0-10.31,0,3.67,3.67,0,0,0-2.07,2.15,3.72,3.72,0,0,0,2.07,2.15,12.68,12.68,0,0,0,10.31,0,3.76,3.76,0,0,0,2.07-2.15A3.7,3.7,0,0,0,181.34,381.57Z" style="fill:#009C86"></path><path d="M181.34,381.57a12.68,12.68,0,0,0-10.31,0,3.67,3.67,0,0,0-2.07,2.15,3.72,3.72,0,0,0,2.07,2.15,12.68,12.68,0,0,0,10.31,0,3.76,3.76,0,0,0,2.07-2.15A3.7,3.7,0,0,0,181.34,381.57Z" style="opacity:0.05"></path><path d="M182,382.58a.24.24,0,0,0-.18-.18l-3.1-.48-.82-1.75a.22.22,0,0,0-.13-.12.28.28,0,0,0-.18,0l-2.29,1.33-3.07-.48a.22.22,0,0,0-.21.09.2.2,0,0,0,0,.22l.76,1.64-2.19,1.26a.21.21,0,0,0-.1.23.22.22,0,0,0,.18.18l3.1.48.82,1.75a.22.22,0,0,0,.13.12h.07l.11,0,2.29-1.33,3.07.48h0a.21.21,0,0,0,.18-.09.2.2,0,0,0,0-.22l-.76-1.64,2.19-1.26A.21.21,0,0,0,182,382.58Zm-4.4-2,.59,1.26L176,381.5Zm.82,1.74.72,1.57L177,385.08l-3-.46-.73-1.57,2.07-1.19Zm-5.85-.9,2.12.33-1.55.9Zm-1.24,2.78,1.61-.93.59,1.27Zm3.53,2.16-.58-1.26,2.19.34Zm5-.84-2.13-.33,1.56-.9Zm-.37-1.85-.59-1.27,2.19.34Z" style="fill:#009C86"></path><path d="M182,382.58a.24.24,0,0,0-.18-.18l-3.1-.48-.82-1.75a.22.22,0,0,0-.13-.12.28.28,0,0,0-.18,0l-2.29,1.33-3.07-.48a.22.22,0,0,0-.21.09.2.2,0,0,0,0,.22l.76,1.64-2.19,1.26a.21.21,0,0,0-.1.23.22.22,0,0,0,.18.18l3.1.48.82,1.75a.22.22,0,0,0,.13.12h.07l.11,0,2.29-1.33,3.07.48h0a.21.21,0,0,0,.18-.09.2.2,0,0,0,0-.22l-.76-1.64,2.19-1.26A.21.21,0,0,0,182,382.58Zm-4.4-2,.59,1.26L176,381.5Zm.82,1.74.72,1.57L177,385.08l-3-.46-.73-1.57,2.07-1.19Zm-5.85-.9,2.12.33-1.55.9Zm-1.24,2.78,1.61-.93.59,1.27Zm3.53,2.16-.58-1.26,2.19.34Zm5-.84-2.13-.33,1.56-.9Zm-.37-1.85-.59-1.27,2.19.34Z" style="fill:#fff;opacity:0.30000000000000004"></path><path d="M169.92,379.92a15.39,15.39,0,0,1,6.26-1.63,12.77,12.77,0,0,0-6.33,1.51c-1.62.93-2.51,2.15-2.51,3.42C167.34,383.22,167.43,381.43,169.92,379.92Z" style="fill:#f5f5f5;opacity:0.5"></path><path d="M175.47,388.54a13.71,13.71,0,0,0,7.25-1.54c2.07-1.2,2.95-2.81,2.65-4.37,0,0,.39,2.54-2.81,4.27A16,16,0,0,1,175.47,388.54Z" style="fill:#f5f5f5;opacity:0.5"></path></g><g id="freepik--coin--inject-2"><path d="M203.68,366.75a6,6,0,0,0-2.21-2,14.43,14.43,0,0,0-13.08,0,6,6,0,0,0-2.21,2h-.5v1.89h0a4.71,4.71,0,0,0,2.7,3.62,14.49,14.49,0,0,0,13.08,0c1.73-1,2.64-2.31,2.7-3.62h0v-1.89Z" style="fill:#009C86"></path><g style="opacity:0.1"><path d="M203.68,366.75a6,6,0,0,0-2.21-2,14.43,14.43,0,0,0-13.08,0,6,6,0,0,0-2.21,2h-.5v1.89h0a4.71,4.71,0,0,0,2.7,3.62,14.49,14.49,0,0,0,13.08,0c1.73-1,2.64-2.31,2.7-3.62h0v-1.89Z"></path></g><path d="M194.93,363.15a13.4,13.4,0,0,0-6.54,1.56,6,6,0,0,0-2.21,2h-.5v1.89h0a4.71,4.71,0,0,0,2.7,3.62,13.4,13.4,0,0,0,6.54,1.56Z" style="opacity:0.1"></path><path d="M189.88,364a9.72,9.72,0,0,0-1.49.7,6,6,0,0,0-2.21,2h-.5v1.89h0a4.71,4.71,0,0,0,2.7,3.62,9.69,9.69,0,0,0,1.49.69Z" style="opacity:0.1"></path><path d="M200,364a10.69,10.69,0,0,1,1.49.7,6,6,0,0,1,2.21,2h.49v1.89h0c-.06,1.31-1,2.62-2.7,3.62A10.65,10.65,0,0,1,200,373Z" style="fill:#009C86;opacity:0.75"></path><path d="M201.47,363a14.43,14.43,0,0,0-13.08,0c-3.61,2.08-3.61,5.46,0,7.55a14.49,14.49,0,0,0,13.08,0C205.08,368.44,205.08,365.06,201.47,363Z" style="fill:#009C86"></path><path d="M201.47,363a14.43,14.43,0,0,0-13.08,0c-3.61,2.08-3.61,5.46,0,7.55a14.49,14.49,0,0,0,13.08,0C205.08,368.44,205.08,365.06,201.47,363Z" style="opacity:0.2"></path><path d="M201.27,363.33a14.06,14.06,0,0,0-12.68,0c-1.61.93-2.5,2.15-2.5,3.42s.89,2.5,2.5,3.43a14.06,14.06,0,0,0,12.68,0c1.61-.93,2.5-2.15,2.5-3.43S202.88,364.26,201.27,363.33Zm-2.08,5.82a10.53,10.53,0,0,1-8.52,0,2.47,2.47,0,0,1,0-4.79,10.43,10.43,0,0,1,8.52,0,2.47,2.47,0,0,1,0,4.79Z" style="fill:#009C86"></path><path d="M201.27,363.33a14.06,14.06,0,0,0-12.68,0c-1.61.93-2.5,2.15-2.5,3.42s.89,2.5,2.5,3.43a14.06,14.06,0,0,0,12.68,0c1.61-.93,2.5-2.15,2.5-3.43S202.88,364.26,201.27,363.33Zm-2.08,5.82a10.53,10.53,0,0,1-8.52,0,2.47,2.47,0,0,1,0-4.79,10.43,10.43,0,0,1,8.52,0,2.47,2.47,0,0,1,0,4.79Z" style="fill:#fff;opacity:0.30000000000000004"></path><path d="M200.27,363.75a13.16,13.16,0,0,0-10.67,0c-1.52.78-2.36,1.85-2.36,3s.84,2.22,2.36,3a13.05,13.05,0,0,0,10.67,0c1.51-.78,2.35-1.84,2.35-3S201.78,364.53,200.27,363.75Z" style="fill:#009C86"></path><path d="M200.27,363.75a13.16,13.16,0,0,0-10.67,0c-1.52.78-2.36,1.85-2.36,3s.84,2.22,2.36,3a13.05,13.05,0,0,0,10.67,0c1.51-.78,2.35-1.84,2.35-3S201.78,364.53,200.27,363.75Z" style="opacity:0.2"></path><path d="M200.08,369.4c2.85-1.46,2.85-3.83,0-5.29a12.66,12.66,0,0,0-10.3,0c-2.85,1.46-2.85,3.83,0,5.29A12.66,12.66,0,0,0,200.08,369.4Z" style="opacity:0.2"></path><path d="M200.08,369.4c2.85-1.46,2.85-3.83,0-5.29a12.66,12.66,0,0,0-10.3,0c-2.85,1.46-2.85,3.83,0,5.29A12.66,12.66,0,0,0,200.08,369.4Z" style="fill:#009C86"></path><path d="M200.08,369.4c2.85-1.46,2.85-3.83,0-5.29a12.66,12.66,0,0,0-10.3,0c-2.85,1.46-2.85,3.83,0,5.29A12.66,12.66,0,0,0,200.08,369.4Z" style="opacity:0.35000000000000003"></path><path d="M200.08,365.1a12.66,12.66,0,0,0-10.3,0,3.64,3.64,0,0,0-2.07,2.15,3.69,3.69,0,0,0,2.07,2.15,12.66,12.66,0,0,0,10.3,0,3.69,3.69,0,0,0,2.07-2.15A3.64,3.64,0,0,0,200.08,365.1Z" style="fill:#009C86"></path><path d="M200.08,365.1a12.66,12.66,0,0,0-10.3,0,3.64,3.64,0,0,0-2.07,2.15,3.69,3.69,0,0,0,2.07,2.15,12.66,12.66,0,0,0,10.3,0,3.69,3.69,0,0,0,2.07-2.15A3.64,3.64,0,0,0,200.08,365.1Z" style="opacity:0.05"></path><path d="M200.7,366.11a.24.24,0,0,0-.19-.18l-3.1-.48-.81-1.75a.28.28,0,0,0-.14-.12.25.25,0,0,0-.17,0L194,364.93l-3.07-.48a.21.21,0,0,0-.21.09.22.22,0,0,0,0,.22l.76,1.64-2.18,1.26a.23.23,0,0,0-.11.23.21.21,0,0,0,.18.17l3.11.49.81,1.75a.22.22,0,0,0,.14.11l.06,0a.2.2,0,0,0,.11,0l2.29-1.33,3.07.48h0a.2.2,0,0,0,.17-.09.22.22,0,0,0,0-.22l-.76-1.64,2.18-1.26A.23.23,0,0,0,200.7,366.11Zm-4.4-2,.59,1.26-2.2-.34Zm.81,1.74.73,1.57-2.06,1.19-3-.46-.73-1.57,2.06-1.2Zm-5.85-.9,2.13.33-1.56.9ZM190,367.73l1.61-.93.59,1.26Zm3.53,2.16-.59-1.26,2.2.34Zm5-.84-2.13-.33,1.56-.9Zm-.38-1.85-.59-1.27,2.2.34Z" style="fill:#009C86"></path><path d="M200.7,366.11a.24.24,0,0,0-.19-.18l-3.1-.48-.81-1.75a.28.28,0,0,0-.14-.12.25.25,0,0,0-.17,0L194,364.93l-3.07-.48a.21.21,0,0,0-.21.09.22.22,0,0,0,0,.22l.76,1.64-2.18,1.26a.23.23,0,0,0-.11.23.21.21,0,0,0,.18.17l3.11.49.81,1.75a.22.22,0,0,0,.14.11l.06,0a.2.2,0,0,0,.11,0l2.29-1.33,3.07.48h0a.2.2,0,0,0,.17-.09.22.22,0,0,0,0-.22l-.76-1.64,2.18-1.26A.23.23,0,0,0,200.7,366.11Zm-4.4-2,.59,1.26-2.2-.34Zm.81,1.74.73,1.57-2.06,1.19-3-.46-.73-1.57,2.06-1.2Zm-5.85-.9,2.13.33-1.56.9ZM190,367.73l1.61-.93.59,1.26Zm3.53,2.16-.59-1.26,2.2.34Zm5-.84-2.13-.33,1.56-.9Zm-.38-1.85-.59-1.27,2.2.34Z" style="fill:#fff;opacity:0.30000000000000004"></path><path d="M188.67,363.45a15.36,15.36,0,0,1,6.26-1.63,12.84,12.84,0,0,0-6.34,1.51c-1.61.93-2.5,2.15-2.5,3.42C186.09,366.75,186.18,365,188.67,363.45Z" style="fill:#f5f5f5;opacity:0.5"></path><path d="M194.22,372.07a13.73,13.73,0,0,0,7.25-1.54c2.06-1.2,2.95-2.81,2.65-4.37,0,0,.38,2.54-2.81,4.27A16,16,0,0,1,194.22,372.07Z" style="fill:#f5f5f5;opacity:0.5"></path></g><g id="freepik--coin--inject-2"><path d="M194.2,389.76a6,6,0,0,0-1.86-2.36,14.48,14.48,0,0,0-12.92-2,6,6,0,0,0-2.5,1.68l-.49-.08-.29,1.87h0c-.14,1.31.55,2.73,2.11,4a14.45,14.45,0,0,0,12.92,2c1.87-.72,3-1.87,3.23-3.15h0l.29-1.87Z" style="fill:#009C86"></path><g style="opacity:0.1"><path d="M194.2,389.76a6,6,0,0,0-1.86-2.36,14.48,14.48,0,0,0-12.92-2,6,6,0,0,0-2.5,1.68l-.49-.08-.29,1.87h0c-.14,1.31.55,2.73,2.11,4a14.45,14.45,0,0,0,12.92,2c1.87-.72,3-1.87,3.23-3.15h0l.29-1.87Z"></path></g><path d="M186.12,384.85a13.32,13.32,0,0,0-6.7.53,6,6,0,0,0-2.5,1.68l-.49-.08-.29,1.87h0c-.14,1.31.55,2.73,2.11,4a13.39,13.39,0,0,0,6.22,2.56Z" style="opacity:0.1"></path><path d="M181,384.93a9.94,9.94,0,0,0-1.58.45,6,6,0,0,0-2.5,1.68l-.49-.08-.29,1.87h0c-.14,1.31.55,2.73,2.11,4a10.8,10.8,0,0,0,1.36.92Z" style="opacity:0.1"></path><path d="M191,386.49a10.18,10.18,0,0,1,1.37.91,6,6,0,0,1,1.86,2.36l.49.08-.29,1.87h0c-.27,1.28-1.36,2.43-3.23,3.15a10,10,0,0,1-1.58.46Z" style="fill:#009C86;opacity:0.75"></path><path d="M192.6,385.69a14.46,14.46,0,0,0-12.91-2c-3.89,1.51-4.42,4.84-1.17,7.46a14.45,14.45,0,0,0,12.92,2C195.33,391.65,195.85,388.31,192.6,385.69Z" style="fill:#009C86"></path><path d="M192.6,385.69a14.46,14.46,0,0,0-12.91-2c-3.89,1.51-4.42,4.84-1.17,7.46a14.45,14.45,0,0,0,12.92,2C195.33,391.65,195.85,388.31,192.6,385.69Z" style="opacity:0.2"></path><path d="M192.35,386a14.07,14.07,0,0,0-12.52-2c-1.74.67-2.81,1.74-3,3s.49,2.6,1.94,3.77a14.07,14.07,0,0,0,12.52,2c1.74-.68,2.81-1.74,3-3S193.8,387.18,192.35,386Zm-2.95,5.43a9.7,9.7,0,0,1-4.35.24,9.46,9.46,0,0,1-4.06-1.56,2.89,2.89,0,0,1-1.49-2.65c.14-.92.93-1.65,2.23-2.08a10.41,10.41,0,0,1,8.41,1.32,2.88,2.88,0,0,1,1.48,2.65C191.48,390.27,190.69,391,189.4,391.44Z" style="fill:#009C86"></path><path d="M192.35,386a14.07,14.07,0,0,0-12.52-2c-1.74.67-2.81,1.74-3,3s.49,2.6,1.94,3.77a14.07,14.07,0,0,0,12.52,2c1.74-.68,2.81-1.74,3-3S193.8,387.18,192.35,386Zm-2.95,5.43a9.7,9.7,0,0,1-4.35.24,9.46,9.46,0,0,1-4.06-1.56,2.89,2.89,0,0,1-1.49-2.65c.14-.92.93-1.65,2.23-2.08a10.41,10.41,0,0,1,8.41,1.32,2.88,2.88,0,0,1,1.48,2.65C191.48,390.27,190.69,391,189.4,391.44Z" style="fill:#fff;opacity:0.30000000000000004"></path><path d="M191.3,386.27a12.07,12.07,0,0,0-5.1-1.94,11.9,11.9,0,0,0-5.45.3c-1.61.53-2.6,1.45-2.78,2.6s.48,2.32,1.86,3.32a13.06,13.06,0,0,0,10.54,1.65c1.62-.53,2.61-1.46,2.78-2.6S192.67,387.28,191.3,386.27Z" style="fill:#009C86"></path><path d="M191.3,386.27a12.07,12.07,0,0,0-5.1-1.94,11.9,11.9,0,0,0-5.45.3c-1.61.53-2.6,1.45-2.78,2.6s.48,2.32,1.86,3.32a13.06,13.06,0,0,0,10.54,1.65c1.62-.53,2.61-1.46,2.78-2.6S192.67,387.28,191.3,386.27Z" style="opacity:0.2"></path><path d="M190.24,391.82c3-1,3.41-3.34.82-5.22a12.65,12.65,0,0,0-10.18-1.6c-3,1-3.4,3.35-.82,5.23A12.69,12.69,0,0,0,190.24,391.82Z" style="opacity:0.2"></path><path d="M190.24,391.82c3-1,3.41-3.34.82-5.22a12.65,12.65,0,0,0-10.18-1.6c-3,1-3.4,3.35-.82,5.23A12.69,12.69,0,0,0,190.24,391.82Z" style="fill:#009C86"></path><path d="M190.24,391.82c3-1,3.41-3.34.82-5.22a12.65,12.65,0,0,0-10.18-1.6c-3,1-3.4,3.35-.82,5.23A12.69,12.69,0,0,0,190.24,391.82Z" style="opacity:0.35000000000000003"></path><path d="M190.91,387.58a12.66,12.66,0,0,0-10.18-1.6,2.15,2.15,0,0,0-.67,4.25,12.69,12.69,0,0,0,10.18,1.59,2.15,2.15,0,0,0,.67-4.24Z" style="fill:#009C86"></path><path d="M190.91,387.58a12.66,12.66,0,0,0-10.18-1.6,2.15,2.15,0,0,0-.67,4.25,12.69,12.69,0,0,0,10.18,1.59,2.15,2.15,0,0,0,.67-4.24Z" style="opacity:0.05"></path><path d="M191.36,388.67a.23.23,0,0,0-.15-.2l-3-1-.53-1.85a.26.26,0,0,0-.11-.14.23.23,0,0,0-.18,0l-2.47.95-3-.94a.25.25,0,0,0-.22.05.23.23,0,0,0-.06.22l.5,1.73-2.35.91a.21.21,0,0,0-.14.21.22.22,0,0,0,.15.21l3,.95.54,1.86a.16.16,0,0,0,.11.13l.06,0a.17.17,0,0,0,.12,0l2.46-.95,3,.94h0a.22.22,0,0,0,.19-.06.22.22,0,0,0,.05-.22l-.49-1.73,2.35-.91A.22.22,0,0,0,191.36,388.67Zm-4-2.66.39,1.34-2.12-.67Zm.54,1.85.47,1.67-2.22.85-2.92-.93-.48-1.66,2.23-.86Zm-5.64-1.8,2.05.66-1.68.64Zm-1.65,2.56,1.73-.67.39,1.34Zm3.15,2.69-.38-1.35,2.11.68Zm5.11-.06-2.05-.65,1.67-.65Zm-.09-1.88-.38-1.35,2.12.68Z" style="fill:#009C86"></path><path d="M191.36,388.67a.23.23,0,0,0-.15-.2l-3-1-.53-1.85a.26.26,0,0,0-.11-.14.23.23,0,0,0-.18,0l-2.47.95-3-.94a.25.25,0,0,0-.22.05.23.23,0,0,0-.06.22l.5,1.73-2.35.91a.21.21,0,0,0-.14.21.22.22,0,0,0,.15.21l3,.95.54,1.86a.16.16,0,0,0,.11.13l.06,0a.17.17,0,0,0,.12,0l2.46-.95,3,.94h0a.22.22,0,0,0,.19-.06.22.22,0,0,0,.05-.22l-.49-1.73,2.35-.91A.22.22,0,0,0,191.36,388.67Zm-4-2.66.39,1.34-2.12-.67Zm.54,1.85.47,1.67-2.22.85-2.92-.93-.48-1.66,2.23-.86Zm-5.64-1.8,2.05.66-1.68.64Zm-1.65,2.56,1.73-.67.39,1.34Zm3.15,2.69-.38-1.35,2.11.68Zm5.11-.06-2.05-.65,1.67-.65Zm-.09-1.88-.38-1.35,2.12.68Z" style="fill:#fff;opacity:0.30000000000000004"></path><path d="M179.88,384.18a15.44,15.44,0,0,1,6.44-.64,12.9,12.9,0,0,0-6.49.51c-1.74.67-2.81,1.74-3,3C176.83,387.05,177.19,385.29,179.88,384.18Z" style="fill:#f5f5f5;opacity:0.5"></path><path d="M184,393.56a13.64,13.64,0,0,0,7.41-.41c2.22-.86,3.34-2.32,3.29-3.9,0,0,0,2.56-3.43,3.78A16.16,16.16,0,0,1,184,393.56Z" style="fill:#f5f5f5;opacity:0.5"></path></g><g id="freepik--coins--inject-2"><path d="M218.84,384.07a6,6,0,0,0-2.2-2,14.49,14.49,0,0,0-13.08,0,6,6,0,0,0-2.21,2h-.5V386h0a4.69,4.69,0,0,0,2.7,3.62,14.49,14.49,0,0,0,13.08,0c1.73-1,2.64-2.31,2.7-3.62h0v-1.89Z" style="fill:#009C86"></path><g style="opacity:0.1"><path d="M218.84,384.07a6,6,0,0,0-2.2-2,14.49,14.49,0,0,0-13.08,0,6,6,0,0,0-2.21,2h-.5V386h0a4.69,4.69,0,0,0,2.7,3.62,14.49,14.49,0,0,0,13.08,0c1.73-1,2.64-2.31,2.7-3.62h0v-1.89Z"></path></g><path d="M210.1,380.47a13.4,13.4,0,0,0-6.54,1.56,6,6,0,0,0-2.21,2h-.5V386h0a4.69,4.69,0,0,0,2.7,3.62,13.4,13.4,0,0,0,6.54,1.56Z" style="opacity:0.1"></path><path d="M205.05,381.33a9.72,9.72,0,0,0-1.49.7,6,6,0,0,0-2.21,2h-.5V386h0a4.69,4.69,0,0,0,2.7,3.62,9.72,9.72,0,0,0,1.49.7Z" style="opacity:0.1"></path><path d="M215.15,381.33a10.69,10.69,0,0,1,1.49.7,6,6,0,0,1,2.2,2h.5V386h0c-.06,1.31-1,2.62-2.7,3.62a10.69,10.69,0,0,1-1.49.7Z" style="fill:#009C86;opacity:0.75"></path><path d="M216.64,380.3a14.49,14.49,0,0,0-13.08,0c-3.61,2.08-3.61,5.46,0,7.55a14.49,14.49,0,0,0,13.08,0C220.25,385.76,220.25,382.38,216.64,380.3Z" style="fill:#009C86"></path><path d="M216.64,380.3a14.49,14.49,0,0,0-13.08,0c-3.61,2.08-3.61,5.46,0,7.55a14.49,14.49,0,0,0,13.08,0C220.25,385.76,220.25,382.38,216.64,380.3Z" style="opacity:0.2"></path><path d="M216.43,380.65a14,14,0,0,0-12.67,0c-1.61.93-2.5,2.15-2.5,3.42s.89,2.5,2.5,3.43a14,14,0,0,0,12.67,0c1.62-.93,2.51-2.15,2.51-3.43S218.05,381.58,216.43,380.65Zm-2.07,5.82a10.43,10.43,0,0,1-8.52,0,2.47,2.47,0,0,1,0-4.79,10.43,10.43,0,0,1,8.52,0,2.47,2.47,0,0,1,0,4.79Z" style="fill:#009C86"></path><path d="M216.43,380.65a14,14,0,0,0-12.67,0c-1.61.93-2.5,2.15-2.5,3.42s.89,2.5,2.5,3.43a14,14,0,0,0,12.67,0c1.62-.93,2.51-2.15,2.51-3.43S218.05,381.58,216.43,380.65Zm-2.07,5.82a10.43,10.43,0,0,1-8.52,0,2.47,2.47,0,0,1,0-4.79,10.43,10.43,0,0,1,8.52,0,2.47,2.47,0,0,1,0,4.79Z" style="fill:#fff;opacity:0.30000000000000004"></path><path d="M215.43,381.07a13.16,13.16,0,0,0-10.67,0c-1.51.78-2.35,1.85-2.35,3s.84,2.22,2.35,3a13.05,13.05,0,0,0,10.67,0c1.52-.78,2.35-1.84,2.35-3S217,381.85,215.43,381.07Z" style="fill:#009C86"></path><path d="M215.43,381.07a13.16,13.16,0,0,0-10.67,0c-1.51.78-2.35,1.85-2.35,3s.84,2.22,2.35,3a13.05,13.05,0,0,0,10.67,0c1.52-.78,2.35-1.84,2.35-3S217,381.85,215.43,381.07Z" style="opacity:0.2"></path><path d="M215.25,386.72c2.85-1.46,2.85-3.83,0-5.29a12.66,12.66,0,0,0-10.3,0c-2.85,1.46-2.85,3.83,0,5.29A12.66,12.66,0,0,0,215.25,386.72Z" style="opacity:0.2"></path><path d="M215.25,386.72c2.85-1.46,2.85-3.83,0-5.29a12.66,12.66,0,0,0-10.3,0c-2.85,1.46-2.85,3.83,0,5.29A12.66,12.66,0,0,0,215.25,386.72Z" style="fill:#009C86"></path><path d="M215.25,386.72c2.85-1.46,2.85-3.83,0-5.29a12.66,12.66,0,0,0-10.3,0c-2.85,1.46-2.85,3.83,0,5.29A12.66,12.66,0,0,0,215.25,386.72Z" style="opacity:0.35000000000000003"></path><path d="M215.25,382.42a12.66,12.66,0,0,0-10.3,0,3.64,3.64,0,0,0-2.07,2.15,3.69,3.69,0,0,0,2.07,2.15,12.66,12.66,0,0,0,10.3,0,3.69,3.69,0,0,0,2.07-2.15A3.64,3.64,0,0,0,215.25,382.42Z" style="fill:#009C86"></path><path d="M215.25,382.42a12.66,12.66,0,0,0-10.3,0,3.64,3.64,0,0,0-2.07,2.15,3.69,3.69,0,0,0,2.07,2.15,12.66,12.66,0,0,0,10.3,0,3.69,3.69,0,0,0,2.07-2.15A3.64,3.64,0,0,0,215.25,382.42Z" style="opacity:0.05"></path><path d="M215.87,383.43a.21.21,0,0,0-.19-.17l-3.1-.48-.81-1.76a.22.22,0,0,0-.14-.11.17.17,0,0,0-.17,0l-2.29,1.32-3.08-.48a.23.23,0,0,0-.21.09.24.24,0,0,0,0,.22l.76,1.64L204.44,385a.21.21,0,0,0-.11.23.24.24,0,0,0,.18.18l3.11.48.81,1.75a.22.22,0,0,0,.13.12h.07a.2.2,0,0,0,.11,0l2.29-1.33,3.07.48h0a.21.21,0,0,0,.17-.09.22.22,0,0,0,0-.22l-.76-1.64,2.18-1.26A.23.23,0,0,0,215.87,383.43Zm-4.4-2,.59,1.26-2.2-.34Zm.81,1.74.73,1.57-2.07,1.2-3-.47-.73-1.57,2.06-1.19Zm-5.85-.9,2.13.33-1.56.9Zm-1.23,2.78,1.61-.93.58,1.27Zm3.53,2.17-.59-1.27,2.2.34Zm5-.85-2.12-.33,1.55-.89Zm-.37-1.85-.59-1.26,2.2.34Z" style="fill:#009C86"></path><path d="M215.87,383.43a.21.21,0,0,0-.19-.17l-3.1-.48-.81-1.76a.22.22,0,0,0-.14-.11.17.17,0,0,0-.17,0l-2.29,1.32-3.08-.48a.23.23,0,0,0-.21.09.24.24,0,0,0,0,.22l.76,1.64L204.44,385a.21.21,0,0,0-.11.23.24.24,0,0,0,.18.18l3.11.48.81,1.75a.22.22,0,0,0,.13.12h.07a.2.2,0,0,0,.11,0l2.29-1.33,3.07.48h0a.21.21,0,0,0,.17-.09.22.22,0,0,0,0-.22l-.76-1.64,2.18-1.26A.23.23,0,0,0,215.87,383.43Zm-4.4-2,.59,1.26-2.2-.34Zm.81,1.74.73,1.57-2.07,1.2-3-.47-.73-1.57,2.06-1.19Zm-5.85-.9,2.13.33-1.56.9Zm-1.23,2.78,1.61-.93.58,1.27Zm3.53,2.17-.59-1.27,2.2.34Zm5-.85-2.12-.33,1.55-.89Zm-.37-1.85-.59-1.26,2.2.34Z" style="fill:#fff;opacity:0.30000000000000004"></path><path d="M203.83,380.77a15.6,15.6,0,0,1,6.27-1.63,12.84,12.84,0,0,0-6.34,1.51c-1.61.93-2.5,2.15-2.5,3.42C201.26,384.07,201.34,382.28,203.83,380.77Z" style="fill:#f5f5f5;opacity:0.5"></path><path d="M209.38,389.4a13.85,13.85,0,0,0,7.26-1.55c2.06-1.2,2.94-2.81,2.65-4.37,0,0,.38,2.54-2.81,4.27A16.08,16.08,0,0,1,209.38,389.4Z" style="fill:#f5f5f5;opacity:0.5"></path><path d="M221.14,381.37a5.93,5.93,0,0,0-2-2.29,14.44,14.44,0,0,0-13-1.52,5.93,5.93,0,0,0-2.43,1.77l-.5-.06-.22,1.88h0c-.09,1.31.65,2.71,2.26,3.91a14.44,14.44,0,0,0,13,1.52c1.85-.79,2.9-2,3.12-3.28h0l.22-1.87Z" style="fill:#009C86"></path><g style="opacity:0.1"><path d="M221.14,381.37a5.93,5.93,0,0,0-2-2.29,14.44,14.44,0,0,0-13-1.52,5.93,5.93,0,0,0-2.43,1.77l-.5-.06-.22,1.88h0c-.09,1.31.65,2.71,2.26,3.91a14.44,14.44,0,0,0,13,1.52c1.85-.79,2.9-2,3.12-3.28h0l.22-1.87Z"></path></g><path d="M212.87,376.77a13.23,13.23,0,0,0-6.67.79,5.93,5.93,0,0,0-2.43,1.77l-.5-.06-.22,1.88h0c-.09,1.31.65,2.71,2.26,3.91a13.46,13.46,0,0,0,6.31,2.31Z" style="opacity:0.1"></path><path d="M207.76,377a10.57,10.57,0,0,0-1.56.52,5.93,5.93,0,0,0-2.43,1.77l-.5-.06-.22,1.88h0c-.09,1.31.65,2.71,2.26,3.91a11.37,11.37,0,0,0,1.4.86Z" style="opacity:0.1"></path><path d="M217.79,378.22a9.58,9.58,0,0,1,1.39.86,5.93,5.93,0,0,1,2,2.29l.5.06-.22,1.87h0c-.22,1.3-1.27,2.49-3.12,3.28a10.84,10.84,0,0,1-1.55.52Z" style="fill:#009C86;opacity:0.75"></path><path d="M219.39,377.36a14.46,14.46,0,0,0-13-1.52c-3.83,1.65-4.22,5-.88,7.5a14.46,14.46,0,0,0,13,1.52C222.33,383.21,222.73,379.85,219.39,377.36Z" style="fill:#009C86"></path><path d="M219.39,377.36a14.46,14.46,0,0,0-13-1.52c-3.83,1.65-4.22,5-.88,7.5a14.46,14.46,0,0,0,13,1.52C222.33,383.21,222.73,379.85,219.39,377.36Z" style="opacity:0.2"></path><path d="M219.15,377.69a14.06,14.06,0,0,0-12.59-1.48c-1.71.74-2.74,1.84-2.89,3.11s.59,2.58,2.09,3.69a14.06,14.06,0,0,0,12.59,1.48c1.71-.74,2.74-1.84,2.89-3.11S220.64,378.8,219.15,377.69Zm-2.75,5.53a10.39,10.39,0,0,1-8.45-1,2.89,2.89,0,0,1-1.59-2.59c.11-.92.87-1.69,2.14-2.16a10.4,10.4,0,0,1,8.46,1,2.88,2.88,0,0,1,1.58,2.6C218.44,382,217.68,382.75,216.4,383.22Z" style="fill:#009C86"></path><path d="M219.15,377.69a14.06,14.06,0,0,0-12.59-1.48c-1.71.74-2.74,1.84-2.89,3.11s.59,2.58,2.09,3.69a14.06,14.06,0,0,0,12.59,1.48c1.71-.74,2.74-1.84,2.89-3.11S220.64,378.8,219.15,377.69Zm-2.75,5.53a10.39,10.39,0,0,1-8.45-1,2.89,2.89,0,0,1-1.59-2.59c.11-.92.87-1.69,2.14-2.16a10.4,10.4,0,0,1,8.46,1,2.88,2.88,0,0,1,1.58,2.6C218.44,382,217.68,382.75,216.4,383.22Z" style="fill:#fff;opacity:0.30000000000000004"></path><path d="M218.1,378a13.06,13.06,0,0,0-10.59-1.24c-1.6.59-2.56,1.56-2.69,2.7s.57,2.31,2,3.26A13.06,13.06,0,0,0,217.4,384c1.6-.6,2.55-1.56,2.69-2.7S219.52,378.94,218.1,378Z" style="fill:#009C86"></path><path d="M218.1,378a13.06,13.06,0,0,0-10.59-1.24c-1.6.59-2.56,1.56-2.69,2.7s.57,2.31,2,3.26A13.06,13.06,0,0,0,217.4,384c1.6-.6,2.55-1.56,2.69-2.7S219.52,378.94,218.1,378Z" style="opacity:0.2"></path><path d="M217.26,383.58c3-1.12,3.28-3.47.62-5.26a12.68,12.68,0,0,0-10.24-1.2c-3,1.12-3.27,3.47-.61,5.26A12.7,12.7,0,0,0,217.26,383.58Z" style="opacity:0.2"></path><path d="M217.26,383.58c3-1.12,3.28-3.47.62-5.26a12.68,12.68,0,0,0-10.24-1.2c-3,1.12-3.27,3.47-.61,5.26A12.7,12.7,0,0,0,217.26,383.58Z" style="fill:#009C86"></path><path d="M217.26,383.58c3-1.12,3.28-3.47.62-5.26a12.68,12.68,0,0,0-10.24-1.2c-3,1.12-3.27,3.47-.61,5.26A12.7,12.7,0,0,0,217.26,383.58Z" style="opacity:0.35000000000000003"></path><path d="M217.76,379.31a12.65,12.65,0,0,0-10.23-1.2,2.15,2.15,0,0,0-.5,4.27,12.7,12.7,0,0,0,10.23,1.2,3.72,3.72,0,0,0,2.31-1.9A3.67,3.67,0,0,0,217.76,379.31Z" style="fill:#009C86"></path><path d="M217.76,379.31a12.65,12.65,0,0,0-10.23-1.2,2.15,2.15,0,0,0-.5,4.27,12.7,12.7,0,0,0,10.23,1.2,3.72,3.72,0,0,0,2.31-1.9A3.67,3.67,0,0,0,217.76,379.31Z" style="opacity:0.05"></path><path d="M218.26,380.39a.22.22,0,0,0-.16-.2l-3-.84-.6-1.84a.3.3,0,0,0-.12-.13.28.28,0,0,0-.18,0l-2.43,1.05-3-.83a.21.21,0,0,0-.21.06.2.2,0,0,0-.05.22l.56,1.71-2.31,1a.23.23,0,0,0-.14.22.21.21,0,0,0,.16.19l3,.84.6,1.84a.25.25,0,0,0,.12.13l.07,0a.22.22,0,0,0,.11,0l2.43-1.05,3,.83h0a.21.21,0,0,0,.18-.07.2.2,0,0,0,.05-.22l-.56-1.71,2.31-1A.22.22,0,0,0,218.26,380.39Zm-4.14-2.51.44,1.33-2.14-.6Zm.6,1.83.55,1.65-2.19.94-3-.82-.54-1.64,2.19-.95Zm-5.7-1.58,2.08.58-1.65.71Zm-1.55,2.62,1.71-.74.43,1.33Zm3.26,2.56-.44-1.33,2.14.6Zm5.1-.25-2.08-.57,1.65-.72Zm-.16-1.88-.44-1.33,2.15.6Z" style="fill:#009C86"></path><path d="M218.26,380.39a.22.22,0,0,0-.16-.2l-3-.84-.6-1.84a.3.3,0,0,0-.12-.13.28.28,0,0,0-.18,0l-2.43,1.05-3-.83a.21.21,0,0,0-.21.06.2.2,0,0,0-.05.22l.56,1.71-2.31,1a.23.23,0,0,0-.14.22.21.21,0,0,0,.16.19l3,.84.6,1.84a.25.25,0,0,0,.12.13l.07,0a.22.22,0,0,0,.11,0l2.43-1.05,3,.83h0a.21.21,0,0,0,.18-.07.2.2,0,0,0,.05-.22l-.56-1.71,2.31-1A.22.22,0,0,0,218.26,380.39Zm-4.14-2.51.44,1.33-2.14-.6Zm.6,1.83.55,1.65-2.19.94-3-.82-.54-1.64,2.19-.95Zm-5.7-1.58,2.08.58-1.65.71Zm-1.55,2.62,1.71-.74.43,1.33Zm3.26,2.56-.44-1.33,2.14.6Zm5.1-.25-2.08-.57,1.65-.72Zm-.16-1.88-.44-1.33,2.15.6Z" style="fill:#fff;opacity:0.30000000000000004"></path><path d="M206.62,376.34a15.48,15.48,0,0,1,6.41-.89,12.88,12.88,0,0,0-6.47.76c-1.71.74-2.74,1.84-2.89,3.11C203.67,379.32,204,377.55,206.62,376.34Z" style="fill:#f5f5f5;opacity:0.5"></path><path d="M211.12,385.55a13.67,13.67,0,0,0,7.39-.69c2.19-.94,3.25-2.45,3.14-4,0,0,.09,2.57-3.29,3.92A16.08,16.08,0,0,1,211.12,385.55Z" style="fill:#f5f5f5;opacity:0.5"></path></g></g><g id="freepik--coins--inject-2"><path id="freepik--shadow--inject-2" d="M318.23,368.25a15.36,15.36,0,0,0-13.88,0l-.6.39a12,12,0,0,0-2.65,1.06c-3.83,2.21-3.83,5.8,0,8a15.36,15.36,0,0,0,13.88,0l.6-.39a12,12,0,0,0,2.65-1.06C322.06,374.05,322.06,370.47,318.23,368.25Z" style="fill:#009C86;opacity:0.30000000000000004"></path><path id="freepik--shadow--inject-2" d="M309.13,392.24a14.2,14.2,0,0,1,6.86-1.65c0-1.43,1-2.86,2.87-3.94a15.3,15.3,0,0,1,13.88,0c3.83,2.21,3.83,5.8,0,8a14.17,14.17,0,0,1-6.86,1.65c0,1.43-1,2.85-2.87,3.94a15.3,15.3,0,0,1-13.88,0C305.3,398,305.3,394.45,309.13,392.24Z" style="fill:#009C86;opacity:0.30000000000000004"></path><g id="freepik--coins--inject-2"><path d="M299.74,370.79a6,6,0,0,1,2.21-2,14.43,14.43,0,0,1,13.08,0,5.93,5.93,0,0,1,2.2,2h.5v1.89h0a4.71,4.71,0,0,1-2.7,3.62,14.49,14.49,0,0,1-13.08,0c-1.73-1-2.64-2.31-2.71-3.62h0v-1.89Z" style="fill:#009C86"></path><g style="opacity:0.1"><path d="M299.74,370.79a6,6,0,0,1,2.21-2,14.43,14.43,0,0,1,13.08,0,5.93,5.93,0,0,1,2.2,2h.5v1.89h0a4.71,4.71,0,0,1-2.7,3.62,14.49,14.49,0,0,1-13.08,0c-1.73-1-2.64-2.31-2.71-3.62h0v-1.89Z"></path></g><path d="M308.49,367.19a13.43,13.43,0,0,1,6.54,1.56,5.93,5.93,0,0,1,2.2,2h.5v1.89h0a4.71,4.71,0,0,1-2.7,3.62,13.43,13.43,0,0,1-6.54,1.56Z" style="opacity:0.1"></path><path d="M313.54,368.05a10.69,10.69,0,0,1,1.49.7,5.93,5.93,0,0,1,2.2,2h.5v1.89h0a4.71,4.71,0,0,1-2.7,3.62,10.65,10.65,0,0,1-1.49.69Z" style="opacity:0.1"></path><path d="M303.44,368.05a9.72,9.72,0,0,0-1.49.7,6,6,0,0,0-2.21,2h-.5v1.89h0c.07,1.31,1,2.62,2.71,3.62a9.69,9.69,0,0,0,1.49.69Z" style="fill:#009C86;opacity:0.75"></path><path d="M302,374.57a14.49,14.49,0,0,0,13.08,0c3.61-2.09,3.61-5.47,0-7.55A14.43,14.43,0,0,0,302,367C298.34,369.1,298.34,372.48,302,374.57Z" style="fill:#009C86"></path><path d="M302,374.57a14.49,14.49,0,0,0,13.08,0c3.61-2.09,3.61-5.47,0-7.55A14.43,14.43,0,0,0,302,367C298.34,369.1,298.34,372.48,302,374.57Z" style="opacity:0.2"></path><path d="M299.65,370.79c0,1.28.89,2.5,2.5,3.43a14,14,0,0,0,12.67,0c1.62-.93,2.51-2.15,2.51-3.43s-.89-2.49-2.51-3.42a14,14,0,0,0-12.67,0C300.54,368.3,299.65,369.52,299.65,370.79Zm2.71,0a2.87,2.87,0,0,1,1.87-2.39,10.43,10.43,0,0,1,8.52,0,2.46,2.46,0,0,1,0,4.78,10.43,10.43,0,0,1-8.52,0A2.86,2.86,0,0,1,302.36,370.79Z" style="fill:#009C86"></path><path d="M299.65,370.79c0,1.28.89,2.5,2.5,3.43a14,14,0,0,0,12.67,0c1.62-.93,2.51-2.15,2.51-3.43s-.89-2.49-2.51-3.42a14,14,0,0,0-12.67,0C300.54,368.3,299.65,369.52,299.65,370.79Zm2.71,0a2.87,2.87,0,0,1,1.87-2.39,10.43,10.43,0,0,1,8.52,0,2.46,2.46,0,0,1,0,4.78,10.43,10.43,0,0,1-8.52,0A2.86,2.86,0,0,1,302.36,370.79Z" style="fill:#fff;opacity:0.30000000000000004"></path><path d="M303.15,367.79a13.05,13.05,0,0,1,10.67,0c1.52.78,2.36,1.85,2.36,3s-.84,2.22-2.36,3a13.05,13.05,0,0,1-10.67,0c-1.51-.78-2.35-1.84-2.35-3S301.64,368.57,303.15,367.79Z" style="fill:#009C86"></path><path d="M303.15,367.79a13.05,13.05,0,0,1,10.67,0c1.52.78,2.36,1.85,2.36,3s-.84,2.22-2.36,3a13.05,13.05,0,0,1-10.67,0c-1.51-.78-2.35-1.84-2.35-3S301.64,368.57,303.15,367.79Z" style="opacity:0.2"></path><path d="M303.34,373.44c-2.85-1.46-2.85-3.83,0-5.29a12.66,12.66,0,0,1,10.3,0c2.85,1.46,2.85,3.83,0,5.29A12.66,12.66,0,0,1,303.34,373.44Z" style="opacity:0.2"></path><path d="M303.34,373.44c-2.85-1.46-2.85-3.83,0-5.29a12.66,12.66,0,0,1,10.3,0c2.85,1.46,2.85,3.83,0,5.29A12.66,12.66,0,0,1,303.34,373.44Z" style="fill:#009C86"></path><path d="M303.34,373.44c-2.85-1.46-2.85-3.83,0-5.29a12.66,12.66,0,0,1,10.3,0c2.85,1.46,2.85,3.83,0,5.29A12.66,12.66,0,0,1,303.34,373.44Z" style="opacity:0.35000000000000003"></path><path d="M303.34,369.14a12.66,12.66,0,0,1,10.3,0,3.64,3.64,0,0,1,2.07,2.15,3.69,3.69,0,0,1-2.07,2.15,12.66,12.66,0,0,1-10.3,0,3.69,3.69,0,0,1-2.07-2.15A3.64,3.64,0,0,1,303.34,369.14Z" style="fill:#009C86"></path><path d="M303.34,369.14a12.66,12.66,0,0,1,10.3,0,3.64,3.64,0,0,1,2.07,2.15,3.69,3.69,0,0,1-2.07,2.15,12.66,12.66,0,0,1-10.3,0,3.69,3.69,0,0,1-2.07-2.15A3.64,3.64,0,0,1,303.34,369.14Z" style="opacity:0.05"></path><path d="M302.83,370.38l2.18,1.26-.76,1.64a.24.24,0,0,0,0,.22.23.23,0,0,0,.18.09h0l3.08-.48,2.29,1.33.11,0H310a.22.22,0,0,0,.14-.11l.81-1.76,3.1-.48a.21.21,0,0,0,.19-.17.23.23,0,0,0-.11-.23L312,370.44l.76-1.64a.23.23,0,0,0-.24-.31l-3.07.48-2.29-1.33a.28.28,0,0,0-.18,0,.3.3,0,0,0-.13.12l-.81,1.75-3.11.48a.24.24,0,0,0-.18.18A.21.21,0,0,0,302.83,370.38Zm5.9-1.31-2.2.34.59-1.26Zm.6.35,2.07,1.2-.73,1.57-3,.46-2.06-1.19.73-1.57Zm2.25.8-1.55-.9,2.12-.33Zm-.39,1.88.59-1.26,1.61.93Zm-2.94.91,2.2-.34-.59,1.26Zm-2.86-1.15,1.56.9-2.13.33Zm-1.8-1.55,2.19-.34-.58,1.27Z" style="fill:#009C86"></path><path d="M302.83,370.38l2.18,1.26-.76,1.64a.24.24,0,0,0,0,.22.23.23,0,0,0,.18.09h0l3.08-.48,2.29,1.33.11,0H310a.22.22,0,0,0,.14-.11l.81-1.76,3.1-.48a.21.21,0,0,0,.19-.17.23.23,0,0,0-.11-.23L312,370.44l.76-1.64a.23.23,0,0,0-.24-.31l-3.07.48-2.29-1.33a.28.28,0,0,0-.18,0,.3.3,0,0,0-.13.12l-.81,1.75-3.11.48a.24.24,0,0,0-.18.18A.21.21,0,0,0,302.83,370.38Zm5.9-1.31-2.2.34.59-1.26Zm.6.35,2.07,1.2-.73,1.57-3,.46-2.06-1.19.73-1.57Zm2.25.8-1.55-.9,2.12-.33Zm-.39,1.88.59-1.26,1.61.93Zm-2.94.91,2.2-.34-.59,1.26Zm-2.86-1.15,1.56.9-2.13.33Zm-1.8-1.55,2.19-.34-.58,1.27Z" style="fill:#fff;opacity:0.30000000000000004"></path><path d="M314.75,367.49a15.36,15.36,0,0,0-6.26-1.63,12.77,12.77,0,0,1,6.33,1.51c1.62.93,2.51,2.15,2.51,3.42C317.33,370.79,317.24,369,314.75,367.49Z" style="fill:#f5f5f5;opacity:0.5"></path><path d="M309.2,376.11a13.71,13.71,0,0,1-7.25-1.54c-2.06-1.2-2.95-2.81-2.65-4.37,0,0-.39,2.54,2.81,4.27A16,16,0,0,0,309.2,376.11Z" style="fill:#f5f5f5;opacity:0.5"></path><path d="M302.65,368.12a6,6,0,0,1,2.21-2,14.49,14.49,0,0,1,13.08,0,5.93,5.93,0,0,1,2.2,2h.5V370h0a4.71,4.71,0,0,1-2.7,3.62,14.49,14.49,0,0,1-13.08,0c-1.73-1-2.64-2.31-2.71-3.62h0v-1.89Z" style="fill:#009C86"></path><g style="opacity:0.1"><path d="M302.65,368.12a6,6,0,0,1,2.21-2,14.49,14.49,0,0,1,13.08,0,5.93,5.93,0,0,1,2.2,2h.5V370h0a4.71,4.71,0,0,1-2.7,3.62,14.49,14.49,0,0,1-13.08,0c-1.73-1-2.64-2.31-2.71-3.62h0v-1.89Z"></path></g><path d="M311.4,364.52a13.43,13.43,0,0,1,6.54,1.56,5.93,5.93,0,0,1,2.2,2h.5V370h0a4.71,4.71,0,0,1-2.7,3.62,13.43,13.43,0,0,1-6.54,1.56Z" style="opacity:0.1"></path><path d="M316.45,365.38a10.69,10.69,0,0,1,1.49.7,5.93,5.93,0,0,1,2.2,2h.5V370h0a4.71,4.71,0,0,1-2.7,3.62,10.65,10.65,0,0,1-1.49.69Z" style="opacity:0.1"></path><path d="M306.35,365.38a9.72,9.72,0,0,0-1.49.7,6,6,0,0,0-2.21,2h-.5V370h0c.07,1.31,1,2.62,2.71,3.62a9.69,9.69,0,0,0,1.49.69Z" style="fill:#009C86;opacity:0.5"></path><path d="M304.86,371.9a14.49,14.49,0,0,0,13.08,0c3.61-2.09,3.61-5.47,0-7.55a14.43,14.43,0,0,0-13.08,0C301.25,366.43,301.25,369.81,304.86,371.9Z" style="fill:#009C86"></path><path d="M304.86,371.9a14.49,14.49,0,0,0,13.08,0c3.61-2.09,3.61-5.47,0-7.55a14.43,14.43,0,0,0-13.08,0C301.25,366.43,301.25,369.81,304.86,371.9Z" style="opacity:0.2"></path><path d="M302.56,368.12c0,1.28.89,2.5,2.5,3.43a14,14,0,0,0,12.67,0c1.62-.93,2.51-2.15,2.51-3.43s-.89-2.49-2.51-3.42a14,14,0,0,0-12.67,0C303.45,365.63,302.56,366.85,302.56,368.12Zm2.71,0a2.87,2.87,0,0,1,1.87-2.39,10.43,10.43,0,0,1,8.52,0,2.47,2.47,0,0,1,0,4.79,10.43,10.43,0,0,1-8.52,0A2.87,2.87,0,0,1,305.27,368.12Z" style="fill:#009C86"></path><path d="M302.56,368.12c0,1.28.89,2.5,2.5,3.43a14,14,0,0,0,12.67,0c1.62-.93,2.51-2.15,2.51-3.43s-.89-2.49-2.51-3.42a14,14,0,0,0-12.67,0C303.45,365.63,302.56,366.85,302.56,368.12Zm2.71,0a2.87,2.87,0,0,1,1.87-2.39,10.43,10.43,0,0,1,8.52,0,2.47,2.47,0,0,1,0,4.79,10.43,10.43,0,0,1-8.52,0A2.87,2.87,0,0,1,305.27,368.12Z" style="fill:#fff;opacity:0.30000000000000004"></path><path d="M306.06,365.12a13.16,13.16,0,0,1,10.67,0c1.52.78,2.35,1.85,2.35,3s-.83,2.22-2.35,3a13.05,13.05,0,0,1-10.67,0c-1.51-.78-2.35-1.84-2.35-3S304.55,365.9,306.06,365.12Z" style="fill:#009C86"></path><path d="M306.06,365.12a13.16,13.16,0,0,1,10.67,0c1.52.78,2.35,1.85,2.35,3s-.83,2.22-2.35,3a13.05,13.05,0,0,1-10.67,0c-1.51-.78-2.35-1.84-2.35-3S304.55,365.9,306.06,365.12Z" style="opacity:0.2"></path><path d="M306.25,370.77c-2.85-1.46-2.85-3.83,0-5.29a12.66,12.66,0,0,1,10.3,0c2.85,1.46,2.85,3.83,0,5.29A12.66,12.66,0,0,1,306.25,370.77Z" style="opacity:0.2"></path><path d="M306.25,370.77c-2.85-1.46-2.85-3.83,0-5.29a12.66,12.66,0,0,1,10.3,0c2.85,1.46,2.85,3.83,0,5.29A12.66,12.66,0,0,1,306.25,370.77Z" style="fill:#009C86"></path><path d="M306.25,370.77c-2.85-1.46-2.85-3.83,0-5.29a12.66,12.66,0,0,1,10.3,0c2.85,1.46,2.85,3.83,0,5.29A12.66,12.66,0,0,1,306.25,370.77Z" style="opacity:0.35000000000000003"></path><path d="M306.25,366.47a12.66,12.66,0,0,1,10.3,0,3.64,3.64,0,0,1,2.07,2.15,3.69,3.69,0,0,1-2.07,2.15,12.66,12.66,0,0,1-10.3,0,3.69,3.69,0,0,1-2.07-2.15A3.64,3.64,0,0,1,306.25,366.47Z" style="fill:#009C86"></path><path d="M306.25,366.47a12.66,12.66,0,0,1,10.3,0,3.64,3.64,0,0,1,2.07,2.15,3.69,3.69,0,0,1-2.07,2.15,12.66,12.66,0,0,1-10.3,0,3.69,3.69,0,0,1-2.07-2.15A3.64,3.64,0,0,1,306.25,366.47Z" style="opacity:0.05"></path><path d="M305.74,367.71l2.18,1.26-.76,1.64a.24.24,0,0,0,0,.22.23.23,0,0,0,.18.09h0l3.08-.48,2.29,1.33a.2.2,0,0,0,.11,0h.06a.28.28,0,0,0,.14-.12l.81-1.75,3.1-.48a.24.24,0,0,0,.19-.18.23.23,0,0,0-.11-.23l-2.18-1.26.76-1.64a.23.23,0,0,0-.24-.31l-3.07.48L310,365a.28.28,0,0,0-.18,0,.25.25,0,0,0-.13.12l-.81,1.75-3.11.48a.24.24,0,0,0-.18.18A.21.21,0,0,0,305.74,367.71Zm5.9-1.31-2.2.34.59-1.26Zm.6.36,2.07,1.19-.73,1.57-3,.46-2.06-1.19.73-1.57Zm2.25.79-1.55-.9,2.12-.33Zm-.39,1.89.59-1.27,1.61.93Zm-2.94.9,2.2-.34-.59,1.26Zm-2.86-1.15,1.56.9-2.13.33Zm-1.8-1.55,2.19-.34-.58,1.27Z" style="fill:#009C86"></path><path d="M305.74,367.71l2.18,1.26-.76,1.64a.24.24,0,0,0,0,.22.23.23,0,0,0,.18.09h0l3.08-.48,2.29,1.33a.2.2,0,0,0,.11,0h.06a.28.28,0,0,0,.14-.12l.81-1.75,3.1-.48a.24.24,0,0,0,.19-.18.23.23,0,0,0-.11-.23l-2.18-1.26.76-1.64a.23.23,0,0,0-.24-.31l-3.07.48L310,365a.28.28,0,0,0-.18,0,.25.25,0,0,0-.13.12l-.81,1.75-3.11.48a.24.24,0,0,0-.18.18A.21.21,0,0,0,305.74,367.71Zm5.9-1.31-2.2.34.59-1.26Zm.6.36,2.07,1.19-.73,1.57-3,.46-2.06-1.19.73-1.57Zm2.25.79-1.55-.9,2.12-.33Zm-.39,1.89.59-1.27,1.61.93Zm-2.94.9,2.2-.34-.59,1.26Zm-2.86-1.15,1.56.9-2.13.33Zm-1.8-1.55,2.19-.34-.58,1.27Z" style="fill:#fff;opacity:0.30000000000000004"></path><path d="M317.66,364.82a15.36,15.36,0,0,0-6.26-1.63,12.77,12.77,0,0,1,6.33,1.51c1.62.93,2.51,2.15,2.51,3.42C320.24,368.12,320.15,366.33,317.66,364.82Z" style="fill:#f5f5f5;opacity:0.5"></path><path d="M312.11,373.44a13.71,13.71,0,0,1-7.25-1.54c-2.06-1.2-2.95-2.81-2.65-4.37,0,0-.39,2.54,2.81,4.27A16,16,0,0,0,312.11,373.44Z" style="fill:#f5f5f5;opacity:0.5"></path><path d="M302.15,365.64a6,6,0,0,1,2.21-2,14.47,14.47,0,0,1,13.07,0,6,6,0,0,1,2.21,2h.5v1.89h0c-.06,1.31-1,2.62-2.7,3.62a14.47,14.47,0,0,1-13.07,0c-1.74-1-2.64-2.31-2.71-3.62h0v-1.89Z" style="fill:#009C86"></path><g style="opacity:0.1"><path d="M302.15,365.64a6,6,0,0,1,2.21-2,14.47,14.47,0,0,1,13.07,0,6,6,0,0,1,2.21,2h.5v1.89h0c-.06,1.31-1,2.62-2.7,3.62a14.47,14.47,0,0,1-13.07,0c-1.74-1-2.64-2.31-2.71-3.62h0v-1.89Z"></path></g><path d="M310.9,362a13.36,13.36,0,0,1,6.53,1.56,6,6,0,0,1,2.21,2h.5v1.89h0c-.06,1.31-1,2.62-2.7,3.62a13.36,13.36,0,0,1-6.53,1.56Z" style="opacity:0.1"></path><path d="M316,362.9a10.06,10.06,0,0,1,1.48.7,6,6,0,0,1,2.21,2h.5v1.89h0c-.06,1.31-1,2.62-2.7,3.62a10.06,10.06,0,0,1-1.48.7Z" style="opacity:0.1"></path><path d="M305.85,362.9a9.72,9.72,0,0,0-1.49.7,6,6,0,0,0-2.21,2h-.5v1.89h0c.07,1.31,1,2.62,2.71,3.62a9.72,9.72,0,0,0,1.49.7Z" style="fill:#009C86;opacity:0.5"></path><path d="M304.36,369.42a14.47,14.47,0,0,0,13.07,0c3.61-2.09,3.61-5.47,0-7.55a14.41,14.41,0,0,0-13.07,0C300.75,364,300.75,367.33,304.36,369.42Z" style="fill:#009C86"></path><path d="M304.36,369.42a14.47,14.47,0,0,0,13.07,0c3.61-2.09,3.61-5.47,0-7.55a14.41,14.41,0,0,0-13.07,0C300.75,364,300.75,367.33,304.36,369.42Z" style="opacity:0.2"></path><path d="M302.05,365.64c0,1.28.9,2.5,2.51,3.43a14,14,0,0,0,12.67,0c1.62-.93,2.51-2.15,2.51-3.43s-.89-2.49-2.51-3.42a14,14,0,0,0-12.67,0C303,363.15,302.05,364.37,302.05,365.64Zm2.71,0a2.89,2.89,0,0,1,1.88-2.39,10.4,10.4,0,0,1,8.51,0,2.47,2.47,0,0,1,0,4.79,10.4,10.4,0,0,1-8.51,0A2.89,2.89,0,0,1,304.76,365.64Z" style="fill:#009C86"></path><path d="M302.05,365.64c0,1.28.9,2.5,2.51,3.43a14,14,0,0,0,12.67,0c1.62-.93,2.51-2.15,2.51-3.43s-.89-2.49-2.51-3.42a14,14,0,0,0-12.67,0C303,363.15,302.05,364.37,302.05,365.64Zm2.71,0a2.89,2.89,0,0,1,1.88-2.39,10.4,10.4,0,0,1,8.51,0,2.47,2.47,0,0,1,0,4.79,10.4,10.4,0,0,1-8.51,0A2.89,2.89,0,0,1,304.76,365.64Z" style="fill:#fff;opacity:0.30000000000000004"></path><path d="M305.56,362.64a13.16,13.16,0,0,1,10.67,0c1.52.78,2.35,1.85,2.35,3s-.83,2.22-2.35,3a13.05,13.05,0,0,1-10.67,0c-1.51-.78-2.35-1.84-2.35-3S304.05,363.42,305.56,362.64Z" style="fill:#009C86"></path><path d="M305.56,362.64a13.16,13.16,0,0,1,10.67,0c1.52.78,2.35,1.85,2.35,3s-.83,2.22-2.35,3a13.05,13.05,0,0,1-10.67,0c-1.51-.78-2.35-1.84-2.35-3S304.05,363.42,305.56,362.64Z" style="opacity:0.2"></path><path d="M305.74,368.29c-2.84-1.46-2.84-3.83,0-5.29a12.68,12.68,0,0,1,10.31,0c2.84,1.46,2.84,3.83,0,5.29A12.68,12.68,0,0,1,305.74,368.29Z" style="opacity:0.2"></path><path d="M305.74,368.29c-2.84-1.46-2.84-3.83,0-5.29a12.68,12.68,0,0,1,10.31,0c2.84,1.46,2.84,3.83,0,5.29A12.68,12.68,0,0,1,305.74,368.29Z" style="fill:#009C86"></path><path d="M305.74,368.29c-2.84-1.46-2.84-3.83,0-5.29a12.68,12.68,0,0,1,10.31,0c2.84,1.46,2.84,3.83,0,5.29A12.68,12.68,0,0,1,305.74,368.29Z" style="opacity:0.35000000000000003"></path><path d="M305.74,364a12.68,12.68,0,0,1,10.31,0,3.67,3.67,0,0,1,2.07,2.15,3.72,3.72,0,0,1-2.07,2.15,12.68,12.68,0,0,1-10.31,0,3.76,3.76,0,0,1-2.07-2.15A3.7,3.7,0,0,1,305.74,364Z" style="fill:#009C86"></path><path d="M305.74,364a12.68,12.68,0,0,1,10.31,0,3.67,3.67,0,0,1,2.07,2.15,3.72,3.72,0,0,1-2.07,2.15,12.68,12.68,0,0,1-10.31,0,3.76,3.76,0,0,1-2.07-2.15A3.7,3.7,0,0,1,305.74,364Z" style="opacity:0.05"></path><path d="M305.23,365.23l2.19,1.26-.76,1.64a.2.2,0,0,0,0,.22.21.21,0,0,0,.18.09h0L310,368l2.29,1.33.11,0h.07a.22.22,0,0,0,.13-.12l.82-1.75,3.1-.48a.22.22,0,0,0,.18-.18.21.21,0,0,0-.1-.23l-2.19-1.26.76-1.64a.2.2,0,0,0,0-.22.22.22,0,0,0-.21-.09l-3.07.48-2.29-1.33a.23.23,0,0,0-.18,0,.18.18,0,0,0-.13.11l-.81,1.76-3.11.48a.21.21,0,0,0-.18.17A.21.21,0,0,0,305.23,365.23Zm5.9-1.31-2.19.34.59-1.26Zm.61.36,2.07,1.19-.73,1.57-3,.47-2.06-1.2.73-1.57Zm2.25.79-1.55-.9,2.12-.33ZM313.6,367l.59-1.27,1.61.93Zm-2.94.9,2.19-.34-.58,1.27Zm-2.86-1.15,1.56.9-2.13.33Zm-1.8-1.54,2.19-.34-.59,1.26Z" style="fill:#009C86"></path><path d="M305.23,365.23l2.19,1.26-.76,1.64a.2.2,0,0,0,0,.22.21.21,0,0,0,.18.09h0L310,368l2.29,1.33.11,0h.07a.22.22,0,0,0,.13-.12l.82-1.75,3.1-.48a.22.22,0,0,0,.18-.18.21.21,0,0,0-.1-.23l-2.19-1.26.76-1.64a.2.2,0,0,0,0-.22.22.22,0,0,0-.21-.09l-3.07.48-2.29-1.33a.23.23,0,0,0-.18,0,.18.18,0,0,0-.13.11l-.81,1.76-3.11.48a.21.21,0,0,0-.18.17A.21.21,0,0,0,305.23,365.23Zm5.9-1.31-2.19.34.59-1.26Zm.61.36,2.07,1.19-.73,1.57-3,.47-2.06-1.2.73-1.57Zm2.25.79-1.55-.9,2.12-.33ZM313.6,367l.59-1.27,1.61.93Zm-2.94.9,2.19-.34-.58,1.27Zm-2.86-1.15,1.56.9-2.13.33Zm-1.8-1.54,2.19-.34-.59,1.26Z" style="fill:#fff;opacity:0.30000000000000004"></path><path d="M317.16,362.34a15.57,15.57,0,0,0-6.26-1.63,12.77,12.77,0,0,1,6.33,1.51c1.62.93,2.51,2.15,2.51,3.42C319.74,365.64,319.65,363.85,317.16,362.34Z" style="fill:#f5f5f5;opacity:0.5"></path><path d="M311.61,371a13.81,13.81,0,0,1-7.25-1.55c-2.07-1.2-2.95-2.81-2.65-4.37,0,0-.39,2.54,2.81,4.27A16,16,0,0,0,311.61,371Z" style="fill:#f5f5f5;opacity:0.5"></path><path d="M298.22,361.66a5.88,5.88,0,0,1,2.21-2,14.41,14.41,0,0,1,13.07,0,5.88,5.88,0,0,1,2.21,2h.5v1.89h0c-.06,1.31-1,2.61-2.7,3.61a14.41,14.41,0,0,1-13.07,0c-1.74-1-2.64-2.3-2.71-3.61h0v-1.89Z" style="fill:#009C86"></path><g style="opacity:0.1"><path d="M298.22,361.66a5.88,5.88,0,0,1,2.21-2,14.41,14.41,0,0,1,13.07,0,5.88,5.88,0,0,1,2.21,2h.5v1.89h0c-.06,1.31-1,2.61-2.7,3.61a14.41,14.41,0,0,1-13.07,0c-1.74-1-2.64-2.3-2.71-3.61h0v-1.89Z"></path></g><path d="M307,358.05a13.26,13.26,0,0,1,6.53,1.57,5.88,5.88,0,0,1,2.21,2h.5v1.89h0c-.07,1.31-1,2.61-2.71,3.61a13.26,13.26,0,0,1-6.53,1.57Z" style="opacity:0.1"></path><path d="M312,358.92a10.06,10.06,0,0,1,1.48.7,5.88,5.88,0,0,1,2.21,2h.5v1.89h0c-.07,1.31-1,2.61-2.71,3.61a10.06,10.06,0,0,1-1.48.7Z" style="opacity:0.1"></path><path d="M301.92,358.92a9.72,9.72,0,0,0-1.49.7,5.88,5.88,0,0,0-2.21,2h-.5v1.89h0c.07,1.31,1,2.61,2.71,3.61a9.72,9.72,0,0,0,1.49.7Z" style="fill:#009C86;opacity:0.75"></path><path d="M300.43,365.43a14.41,14.41,0,0,0,13.07,0c3.61-2.08,3.61-5.46,0-7.55a14.47,14.47,0,0,0-13.07,0C296.82,360,296.82,363.35,300.43,365.43Z" style="fill:#009C86"></path><path d="M300.43,365.43a14.41,14.41,0,0,0,13.07,0c3.61-2.08,3.61-5.46,0-7.55a14.47,14.47,0,0,0-13.07,0C296.82,360,296.82,363.35,300.43,365.43Z" style="opacity:0.2"></path><path d="M298.12,361.66c0,1.27.9,2.49,2.51,3.42a14,14,0,0,0,12.67,0c1.62-.93,2.51-2.15,2.51-3.42s-.89-2.49-2.51-3.43a14,14,0,0,0-12.67,0C299,359.17,298.12,360.38,298.12,361.66Zm2.71,0a2.89,2.89,0,0,1,1.88-2.39,10.4,10.4,0,0,1,8.51,0,2.46,2.46,0,0,1,0,4.78,10.4,10.4,0,0,1-8.51,0A2.89,2.89,0,0,1,300.83,361.66Z" style="fill:#009C86"></path><path d="M298.12,361.66c0,1.27.9,2.49,2.51,3.42a14,14,0,0,0,12.67,0c1.62-.93,2.51-2.15,2.51-3.42s-.89-2.49-2.51-3.43a14,14,0,0,0-12.67,0C299,359.17,298.12,360.38,298.12,361.66Zm2.71,0a2.89,2.89,0,0,1,1.88-2.39,10.4,10.4,0,0,1,8.51,0,2.46,2.46,0,0,1,0,4.78,10.4,10.4,0,0,1-8.51,0A2.89,2.89,0,0,1,300.83,361.66Z" style="fill:#fff;opacity:0.30000000000000004"></path><path d="M301.63,358.66a13.05,13.05,0,0,1,10.67,0c1.52.78,2.35,1.84,2.35,3s-.83,2.22-2.35,3a13.05,13.05,0,0,1-10.67,0c-1.51-.78-2.35-1.85-2.35-3S300.12,359.44,301.63,358.66Z" style="fill:#009C86"></path><path d="M301.63,358.66a13.05,13.05,0,0,1,10.67,0c1.52.78,2.35,1.84,2.35,3s-.83,2.22-2.35,3a13.05,13.05,0,0,1-10.67,0c-1.51-.78-2.35-1.85-2.35-3S300.12,359.44,301.63,358.66Z" style="opacity:0.2"></path><path d="M301.81,364.3c-2.84-1.46-2.84-3.83,0-5.29a12.68,12.68,0,0,1,10.31,0c2.85,1.46,2.84,3.83,0,5.29A12.68,12.68,0,0,1,301.81,364.3Z" style="opacity:0.2"></path><path d="M301.81,364.3c-2.84-1.46-2.84-3.83,0-5.29a12.68,12.68,0,0,1,10.31,0c2.85,1.46,2.84,3.83,0,5.29A12.68,12.68,0,0,1,301.81,364.3Z" style="fill:#009C86"></path><path d="M301.81,364.3c-2.84-1.46-2.84-3.83,0-5.29a12.68,12.68,0,0,1,10.31,0c2.85,1.46,2.84,3.83,0,5.29A12.68,12.68,0,0,1,301.81,364.3Z" style="opacity:0.35000000000000003"></path><path d="M301.81,360a12.68,12.68,0,0,1,10.31,0,3.72,3.72,0,0,1,2.07,2.15,3.67,3.67,0,0,1-2.07,2.15,12.68,12.68,0,0,1-10.31,0,3.65,3.65,0,0,1-2.06-2.15A3.7,3.7,0,0,1,301.81,360Z" style="fill:#009C86"></path><path d="M301.81,360a12.68,12.68,0,0,1,10.31,0,3.72,3.72,0,0,1,2.07,2.15,3.67,3.67,0,0,1-2.07,2.15,12.68,12.68,0,0,1-10.31,0,3.65,3.65,0,0,1-2.06-2.15A3.7,3.7,0,0,1,301.81,360Z" style="opacity:0.05"></path><path d="M301.31,361.25l2.18,1.26-.76,1.63a.21.21,0,0,0,0,.23.24.24,0,0,0,.18.09h0L306,364l2.29,1.32.11,0h.07a.2.2,0,0,0,.13-.12l.82-1.75,3.1-.48a.2.2,0,0,0,.18-.18.21.21,0,0,0-.1-.23l-2.19-1.26.76-1.63a.21.21,0,0,0,0-.23.24.24,0,0,0-.21-.08l-3.07.47-2.29-1.32a.23.23,0,0,0-.18,0,.2.2,0,0,0-.13.12l-.81,1.75-3.11.48a.22.22,0,0,0-.18.18A.21.21,0,0,0,301.31,361.25Zm5.89-1.31-2.19.34.59-1.27Zm.61.35,2.07,1.19-.73,1.57-3,.47-2.06-1.19.73-1.57Zm2.25.79-1.55-.9,2.12-.33Zm-.39,1.89.59-1.27,1.61.93Zm-2.94.9,2.2-.34-.59,1.27Zm-2.86-1.14,1.56.9-2.13.33Zm-1.8-1.55,2.19-.34-.59,1.27Z" style="fill:#009C86"></path><path d="M301.31,361.25l2.18,1.26-.76,1.63a.21.21,0,0,0,0,.23.24.24,0,0,0,.18.09h0L306,364l2.29,1.32.11,0h.07a.2.2,0,0,0,.13-.12l.82-1.75,3.1-.48a.2.2,0,0,0,.18-.18.21.21,0,0,0-.1-.23l-2.19-1.26.76-1.63a.21.21,0,0,0,0-.23.24.24,0,0,0-.21-.08l-3.07.47-2.29-1.32a.23.23,0,0,0-.18,0,.2.2,0,0,0-.13.12l-.81,1.75-3.11.48a.22.22,0,0,0-.18.18A.21.21,0,0,0,301.31,361.25Zm5.89-1.31-2.19.34.59-1.27Zm.61.35,2.07,1.19-.73,1.57-3,.47-2.06-1.19.73-1.57Zm2.25.79-1.55-.9,2.12-.33Zm-.39,1.89.59-1.27,1.61.93Zm-2.94.9,2.2-.34-.59,1.27Zm-2.86-1.14,1.56.9-2.13.33Zm-1.8-1.55,2.19-.34-.59,1.27Z" style="fill:#fff;opacity:0.30000000000000004"></path><path d="M313.23,358.36a15.48,15.48,0,0,0-6.26-1.64,12.88,12.88,0,0,1,6.33,1.51c1.62.94,2.51,2.15,2.51,3.43C315.81,361.66,315.72,359.87,313.23,358.36Z" style="fill:#f5f5f5;opacity:0.5"></path><path d="M307.68,367a13.62,13.62,0,0,1-7.25-1.55c-2.07-1.19-2.95-2.81-2.65-4.36,0,0-.39,2.53,2.81,4.27A16.12,16.12,0,0,0,307.68,367Z" style="fill:#f5f5f5;opacity:0.5"></path></g><g id="freepik--coin--inject-2"><path d="M317.06,387.91a6,6,0,0,1,2.2-2.05,14.49,14.49,0,0,1,13.08,0,6.06,6.06,0,0,1,2.21,2.05h.5v1.88h0c-.07,1.32-1,2.62-2.7,3.62a14.43,14.43,0,0,1-13.08,0c-1.73-1-2.64-2.3-2.7-3.62h0v-1.88Z" style="fill:#009C86"></path><g style="opacity:0.1"><path d="M317.06,387.91a6,6,0,0,1,2.2-2.05,14.49,14.49,0,0,1,13.08,0,6.06,6.06,0,0,1,2.21,2.05h.5v1.88h0c-.07,1.32-1,2.62-2.7,3.62a14.43,14.43,0,0,1-13.08,0c-1.73-1-2.64-2.3-2.7-3.62h0v-1.88Z"></path></g><path d="M325.8,384.3a13.4,13.4,0,0,1,6.54,1.56,6.06,6.06,0,0,1,2.21,2.05h.5v1.88h0c-.07,1.32-1,2.62-2.7,3.62A13.4,13.4,0,0,1,325.8,395Z" style="opacity:0.1"></path><path d="M330.85,385.17a9.69,9.69,0,0,1,1.49.69,6.06,6.06,0,0,1,2.21,2.05h.5v1.88h0c-.07,1.32-1,2.62-2.7,3.62a9.72,9.72,0,0,1-1.49.7Z" style="opacity:0.1"></path><path d="M320.75,385.17a10.65,10.65,0,0,0-1.49.69,6,6,0,0,0-2.2,2.05h-.5v1.88h0c.06,1.32,1,2.62,2.7,3.62a10.69,10.69,0,0,0,1.49.7Z" style="fill:#009C86;opacity:0.75"></path><path d="M319.26,391.68a14.43,14.43,0,0,0,13.08,0c3.61-2.08,3.61-5.46,0-7.55a14.49,14.49,0,0,0-13.08,0C315.65,386.22,315.65,389.6,319.26,391.68Z" style="fill:#009C86"></path><path d="M319.26,391.68a14.43,14.43,0,0,0,13.08,0c3.61-2.08,3.61-5.46,0-7.55a14.49,14.49,0,0,0-13.08,0C315.65,386.22,315.65,389.6,319.26,391.68Z" style="opacity:0.2"></path><path d="M317,387.91c0,1.27.89,2.49,2.5,3.42a14.06,14.06,0,0,0,12.68,0c1.61-.93,2.5-2.15,2.5-3.42s-.89-2.5-2.5-3.43a14.06,14.06,0,0,0-12.68,0C317.85,385.41,317,386.63,317,387.91Zm2.71,0a2.87,2.87,0,0,1,1.87-2.4,10.53,10.53,0,0,1,8.52,0,2.47,2.47,0,0,1,0,4.79,10.43,10.43,0,0,1-8.52,0A2.87,2.87,0,0,1,319.67,387.91Z" style="fill:#009C86"></path><path d="M317,387.91c0,1.27.89,2.49,2.5,3.42a14.06,14.06,0,0,0,12.68,0c1.61-.93,2.5-2.15,2.5-3.42s-.89-2.5-2.5-3.43a14.06,14.06,0,0,0-12.68,0C317.85,385.41,317,386.63,317,387.91Zm2.71,0a2.87,2.87,0,0,1,1.87-2.4,10.53,10.53,0,0,1,8.52,0,2.47,2.47,0,0,1,0,4.79,10.43,10.43,0,0,1-8.52,0A2.87,2.87,0,0,1,319.67,387.91Z" style="fill:#fff;opacity:0.30000000000000004"></path><path d="M320.47,384.91a13,13,0,0,1,10.66,0c1.52.77,2.36,1.84,2.36,3s-.84,2.22-2.36,3a13,13,0,0,1-10.66,0c-1.52-.77-2.35-1.84-2.35-3S319,385.68,320.47,384.91Z" style="fill:#009C86"></path><path d="M320.47,384.91a13,13,0,0,1,10.66,0c1.52.77,2.36,1.84,2.36,3s-.84,2.22-2.36,3a13,13,0,0,1-10.66,0c-1.52-.77-2.35-1.84-2.35-3S319,385.68,320.47,384.91Z" style="opacity:0.2"></path><ellipse cx="325.8" cy="387.91" rx="7.29" ry="3.74" style="opacity:0.2"></ellipse><ellipse cx="325.8" cy="387.91" rx="7.29" ry="3.74" style="fill:#009C86"></ellipse><ellipse cx="325.8" cy="387.91" rx="7.29" ry="3.74" style="opacity:0.35000000000000003"></ellipse><path d="M320.65,386.25a12.66,12.66,0,0,1,10.3,0A3.69,3.69,0,0,1,333,388.4a3.64,3.64,0,0,1-2.07,2.15,12.66,12.66,0,0,1-10.3,0,3.64,3.64,0,0,1-2.07-2.15A3.69,3.69,0,0,1,320.65,386.25Z" style="fill:#009C86"></path><path d="M320.65,386.25a12.66,12.66,0,0,1,10.3,0A3.69,3.69,0,0,1,333,388.4a3.64,3.64,0,0,1-2.07,2.15,12.66,12.66,0,0,1-10.3,0,3.64,3.64,0,0,1-2.07-2.15A3.69,3.69,0,0,1,320.65,386.25Z" style="opacity:0.05"></path><path d="M320.14,387.5l2.18,1.26-.76,1.63a.24.24,0,0,0,0,.23.21.21,0,0,0,.17.08h0l3.07-.47,2.29,1.32a.2.2,0,0,0,.11,0h.07a.25.25,0,0,0,.13-.12l.81-1.75,3.11-.48a.24.24,0,0,0,.18-.18.22.22,0,0,0-.11-.23l-2.18-1.26.76-1.64a.22.22,0,0,0,0-.22.21.21,0,0,0-.21-.09l-3.07.48-2.29-1.32a.21.21,0,0,0-.17,0,.24.24,0,0,0-.14.12l-.81,1.75-3.1.48a.21.21,0,0,0-.19.18A.24.24,0,0,0,320.14,387.5Zm5.9-1.31-2.2.34.59-1.27Zm.61.35,2.06,1.19L328,389.3l-3,.47-2.06-1.19.73-1.57Zm2.25.79-1.56-.9,2.13-.33Zm-.4,1.89.59-1.27,1.61.93Zm-2.94.9,2.2-.34-.59,1.27ZM322.7,389l1.56.9-2.12.32Zm-1.8-1.55,2.2-.34-.59,1.27Z" style="fill:#009C86"></path><path d="M320.14,387.5l2.18,1.26-.76,1.63a.24.24,0,0,0,0,.23.21.21,0,0,0,.17.08h0l3.07-.47,2.29,1.32a.2.2,0,0,0,.11,0h.07a.25.25,0,0,0,.13-.12l.81-1.75,3.11-.48a.24.24,0,0,0,.18-.18.22.22,0,0,0-.11-.23l-2.18-1.26.76-1.64a.22.22,0,0,0,0-.22.21.21,0,0,0-.21-.09l-3.07.48-2.29-1.32a.21.21,0,0,0-.17,0,.24.24,0,0,0-.14.12l-.81,1.75-3.1.48a.21.21,0,0,0-.19.18A.24.24,0,0,0,320.14,387.5Zm5.9-1.31-2.2.34.59-1.27Zm.61.35,2.06,1.19L328,389.3l-3,.47-2.06-1.19.73-1.57Zm2.25.79-1.56-.9,2.13-.33Zm-.4,1.89.59-1.27,1.61.93Zm-2.94.9,2.2-.34-.59,1.27ZM322.7,389l1.56.9-2.12.32Zm-1.8-1.55,2.2-.34-.59,1.27Z" style="fill:#fff;opacity:0.30000000000000004"></path><path d="M332.06,384.61A15.44,15.44,0,0,0,325.8,383a13,13,0,0,1,6.34,1.51c1.61.93,2.5,2.15,2.5,3.43C334.64,387.91,334.55,386.12,332.06,384.61Z" style="fill:#f5f5f5;opacity:0.5"></path><path d="M326.51,393.23a13.74,13.74,0,0,1-7.25-1.55c-2.06-1.19-2.95-2.81-2.65-4.36,0,0-.38,2.53,2.81,4.27A16.12,16.12,0,0,0,326.51,393.23Z" style="fill:#f5f5f5;opacity:0.5"></path></g><g id="freepik--coin--inject-2"><path d="M307.78,394.45a5.92,5.92,0,0,1,1.87-2.36,14.45,14.45,0,0,1,12.92-2,6,6,0,0,1,2.49,1.67l.5-.07.29,1.86h0c.14,1.31-.55,2.74-2.11,4a14.46,14.46,0,0,1-12.91,2c-1.87-.73-3-1.87-3.24-3.16h0l-.29-1.87Z" style="fill:#009C86"></path><g style="opacity:0.1"><path d="M307.78,394.45a5.92,5.92,0,0,1,1.87-2.36,14.45,14.45,0,0,1,12.92-2,6,6,0,0,1,2.49,1.67l.5-.07.29,1.86h0c.14,1.31-.55,2.74-2.11,4a14.46,14.46,0,0,1-12.91,2c-1.87-.73-3-1.87-3.24-3.16h0l-.29-1.87Z"></path></g><path d="M315.87,389.53a13.45,13.45,0,0,1,6.7.54,6,6,0,0,1,2.49,1.67l.5-.07.29,1.86h0c.14,1.31-.55,2.74-2.11,4a13.49,13.49,0,0,1-6.21,2.55Z" style="opacity:0.1"></path><path d="M321,389.61a10,10,0,0,1,1.58.46,6,6,0,0,1,2.49,1.67l.5-.07.29,1.86h0c.14,1.31-.55,2.74-2.11,4a9.48,9.48,0,0,1-1.36.91Z" style="opacity:0.1"></path><path d="M311,391.17a9.52,9.52,0,0,0-1.36.92,5.92,5.92,0,0,0-1.87,2.36l-.49.07.29,1.87h0c.27,1.29,1.37,2.43,3.24,3.16a9.53,9.53,0,0,0,1.57.45Z" style="fill:#009C86;opacity:0.75"></path><path d="M310.55,397.84a14.46,14.46,0,0,0,12.91-2c3.25-2.62,2.73-6-1.16-7.46a14.45,14.45,0,0,0-12.92,2C306.14,393,306.66,396.33,310.55,397.84Z" style="fill:#009C86"></path><path d="M310.55,397.84a14.46,14.46,0,0,0,12.91-2c3.25-2.62,2.73-6-1.16-7.46a14.45,14.45,0,0,0-12.92,2C306.14,393,306.66,396.33,310.55,397.84Z" style="opacity:0.2"></path><path d="M307.69,394.46c.19,1.26,1.26,2.33,3,3a14.06,14.06,0,0,0,12.52-2c1.46-1.17,2.15-2.51,2-3.77s-1.26-2.32-3-3a14.07,14.07,0,0,0-12.52,2C308.18,391.86,307.49,393.2,307.69,394.46Zm2.67-.41a2.9,2.9,0,0,1,1.49-2.66,10.5,10.5,0,0,1,8.41-1.32c1.29.43,2.08,1.17,2.22,2.08A2.86,2.86,0,0,1,321,394.8a10.41,10.41,0,0,1-8.41,1.32C311.3,395.69,310.51,395,310.36,394.05Z" style="fill:#009C86"></path><path d="M307.69,394.46c.19,1.26,1.26,2.33,3,3a14.06,14.06,0,0,0,12.52-2c1.46-1.17,2.15-2.51,2-3.77s-1.26-2.32-3-3a14.07,14.07,0,0,0-12.52,2C308.18,391.86,307.49,393.2,307.69,394.46Zm2.67-.41a2.9,2.9,0,0,1,1.49-2.66,10.5,10.5,0,0,1,8.41-1.32c1.29.43,2.08,1.17,2.22,2.08A2.86,2.86,0,0,1,321,394.8a10.41,10.41,0,0,1-8.41,1.32C311.3,395.69,310.51,395,310.36,394.05Z" style="fill:#fff;opacity:0.30000000000000004"></path><path d="M310.69,391a11.9,11.9,0,0,1,5.09-1.95,12,12,0,0,1,5.45.3c1.62.53,2.61,1.46,2.79,2.6s-.48,2.32-1.86,3.32a13,13,0,0,1-10.54,1.65c-1.62-.53-2.61-1.45-2.79-2.6S309.31,392,310.69,391Z" style="fill:#009C86"></path><path d="M310.69,391a11.9,11.9,0,0,1,5.09-1.95,12,12,0,0,1,5.45.3c1.62.53,2.61,1.46,2.79,2.6s-.48,2.32-1.86,3.32a13,13,0,0,1-10.54,1.65c-1.62-.53-2.61-1.45-2.79-2.6S309.31,392,310.69,391Z" style="opacity:0.2"></path><path d="M311.74,396.5c-3-1-3.4-3.34-.82-5.22a12.67,12.67,0,0,1,10.19-1.59c3,1,3.4,3.34.81,5.22A12.64,12.64,0,0,1,311.74,396.5Z" style="opacity:0.2"></path><path d="M311.74,396.5c-3-1-3.4-3.34-.82-5.22a12.67,12.67,0,0,1,10.19-1.59c3,1,3.4,3.34.81,5.22A12.64,12.64,0,0,1,311.74,396.5Z" style="fill:#009C86"></path><path d="M311.74,396.5c-3-1-3.4-3.34-.82-5.22a12.67,12.67,0,0,1,10.19-1.59c3,1,3.4,3.34.81,5.22A12.64,12.64,0,0,1,311.74,396.5Z" style="opacity:0.35000000000000003"></path><path d="M311.08,392.26a12.64,12.64,0,0,1,10.18-1.59,2.15,2.15,0,0,1,.66,4.24,12.64,12.64,0,0,1-10.18,1.59,2.15,2.15,0,0,1-.66-4.24Z" style="fill:#009C86"></path><path d="M311.08,392.26a12.64,12.64,0,0,1,10.18-1.59,2.15,2.15,0,0,1,.66,4.24,12.64,12.64,0,0,1-10.18,1.59,2.15,2.15,0,0,1-.66-4.24Z" style="opacity:0.05"></path><path d="M310.77,393.57l2.35.9-.5,1.74a.23.23,0,0,0,.06.22.26.26,0,0,0,.19.06h0l3-1,2.47,1h.11l.07,0a.26.26,0,0,0,.11-.14l.53-1.86,3-1a.24.24,0,0,0,.16-.2.22.22,0,0,0-.14-.21l-2.36-.91.5-1.74a.21.21,0,0,0-.06-.21.22.22,0,0,0-.22-.06l-3,.95-2.47-.95a.2.2,0,0,0-.17,0,.24.24,0,0,0-.12.14l-.53,1.86-3,.95a.21.21,0,0,0-.15.2A.22.22,0,0,0,310.77,393.57Zm5.62-2.21-2.11.68.38-1.35Zm.66.25,2.22.86-.48,1.67-2.92.93-2.22-.86.48-1.66Zm2.34.44-1.67-.65,2-.65ZM319.3,394l.38-1.35,1.73.67Zm-2.77,1.34,2.12-.67-.39,1.34Zm-3-.69,1.68.65-2,.65Zm-2-1.25,2.11-.67-.38,1.34Z" style="fill:#009C86"></path><path d="M310.77,393.57l2.35.9-.5,1.74a.23.23,0,0,0,.06.22.26.26,0,0,0,.19.06h0l3-1,2.47,1h.11l.07,0a.26.26,0,0,0,.11-.14l.53-1.86,3-1a.24.24,0,0,0,.16-.2.22.22,0,0,0-.14-.21l-2.36-.91.5-1.74a.21.21,0,0,0-.06-.21.22.22,0,0,0-.22-.06l-3,.95-2.47-.95a.2.2,0,0,0-.17,0,.24.24,0,0,0-.12.14l-.53,1.86-3,.95a.21.21,0,0,0-.15.2A.22.22,0,0,0,310.77,393.57Zm5.62-2.21-2.11.68.38-1.35Zm.66.25,2.22.86-.48,1.67-2.92.93-2.22-.86.48-1.66Zm2.34.44-1.67-.65,2-.65ZM319.3,394l.38-1.35,1.73.67Zm-2.77,1.34,2.12-.67-.39,1.34Zm-3-.69,1.68.65-2,.65Zm-2-1.25,2.11-.67-.38,1.34Z" style="fill:#fff;opacity:0.30000000000000004"></path><path d="M322.1,388.87a15.52,15.52,0,0,0-6.44-.65,12.89,12.89,0,0,1,6.49.51c1.75.68,2.81,1.74,3,3C325.16,391.73,324.8,390,322.1,388.87Z" style="fill:#f5f5f5;opacity:0.5"></path><path d="M318,398.24a13.7,13.7,0,0,1-7.4-.4c-2.23-.86-3.35-2.32-3.3-3.91,0,0,0,2.57,3.44,3.79A16,16,0,0,0,318,398.24Z" style="fill:#f5f5f5;opacity:0.5"></path></g></g></g></g></svg>