<svg xmlns="http://www.w3.org/2000/svg" viewBox="0 0 500 500"><g id="freepik--background-simple--inject-2"><path d="M455.59,331.57c-20.14,40.62-55.86,82.72-99.33,90.82-65.67,12.23-80.58,66.85-192.61,46.7A210.74,210.74,0,0,1,116,454.77a180.08,180.08,0,0,1-21.8-11.4c-62-38-87.75-106.93-81.64-174.66,8-89.07,70-123.79,109.91-143.64s96.8-109.76,207.1-90.9a204.46,204.46,0,0,1,49,14.68c35.82,16,70.48,45.55,87.75,84.27q1.95,4.37,3.65,8.88C492.14,200.77,483.05,276.21,455.59,331.57Z" style="fill:#009C86"></path><path d="M455.59,331.57c-20.14,40.62-55.86,82.72-99.33,90.82-65.67,12.23-80.58,66.85-192.61,46.7A210.74,210.74,0,0,1,116,454.77a180.08,180.08,0,0,1-21.8-11.4c-62-38-87.75-106.93-81.64-174.66,8-89.07,70-123.79,109.91-143.64s96.8-109.76,207.1-90.9a204.46,204.46,0,0,1,49,14.68c35.82,16,70.48,45.55,87.75,84.27q1.95,4.37,3.65,8.88C492.14,200.77,483.05,276.21,455.59,331.57Z" style="fill:#fff;opacity:0.8"></path></g><g id="freepik--Circles--inject-2"><circle cx="444.14" cy="170.25" r="16.56" style="fill:none;stroke:#263238;stroke-miterlimit:10"></circle><circle cx="385.8" cy="464.07" r="16.56" transform="translate(-154.95 732.02) rotate(-76.62)" style="fill:none;stroke:#263238;stroke-miterlimit:10"></circle><circle cx="104.22" cy="435.27" r="16.56" transform="translate(-286.64 217.21) rotate(-47.38)" style="fill:none;stroke:#263238;stroke-miterlimit:10"></circle><circle cx="257.98" cy="45.3" r="9" transform="translate(39.23 189.37) rotate(-43.33)" style="fill:none;stroke:#263238;stroke-miterlimit:10"></circle><circle cx="51.29" cy="158.01" r="9" transform="translate(-96.7 82.55) rotate(-45)" style="fill:none;stroke:#263238;stroke-miterlimit:10"></circle><circle cx="245.01" cy="300.6" r="9" transform="translate(-103.99 469.67) rotate(-76.67)" style="fill:none;stroke:#263238;stroke-miterlimit:10"></circle><circle cx="73.62" cy="47.1" r="9" transform="translate(-11.75 65.85) rotate(-45)" style="fill:none;stroke:#263238;stroke-miterlimit:10"></circle><path d="M455.06,253.07a6.61,6.61,0,1,1-6.6-6.61A6.61,6.61,0,0,1,455.06,253.07Z" style="fill:none;stroke:#263238;stroke-miterlimit:10"></path><path d="M457.82,438.15a6.61,6.61,0,1,1-6.6-6.61A6.61,6.61,0,0,1,457.82,438.15Z" style="fill:none;stroke:#263238;stroke-miterlimit:10"></path></g><g id="freepik--Leaves--inject-2"><path d="M337.49,47.44a111.79,111.79,0,0,1-12.79.84H293.18s23.64,20.35,32.17,28.23,38.09,27.58,56.47,36.12,23.64,9.84,36.77,15.1,17.44,10,17.44,10l4.23-14.58s5.26-17.73-3.28-40a55,55,0,0,0-4.88-9.77" style="fill:none;stroke:#263238;stroke-miterlimit:10"></path><path d="M429.16,69.12c-14.18-18.27-38.71-25.28-62-24.88-7.87.13-15.66,1.35-23.45,2.41" style="fill:none;stroke:#263238;stroke-miterlimit:10"></path><path d="M316,53.62s17.14,9.12,47.78,14.59c20,3.58,39.5,12.19,54.24,26.44,10.19,9.86,14.44,23.64,16.51,37.38" style="fill:none;stroke:#263238;stroke-miterlimit:10"></path><path d="M349.87,49.91a96.23,96.23,0,0,1,13.87,18.3" style="fill:none;stroke:#263238;stroke-miterlimit:10"></path><path d="M375.05,50.7s9.48,13.13,12.76,24.07c0,0-6.2,12-22.61,17.15" style="fill:none;stroke:#263238;stroke-miterlimit:10"></path><path d="M407.51,58.73s4.74,16.41,5.1,29.54" style="fill:none;stroke:#263238;stroke-miterlimit:10"></path><path d="M362.28,70.76s-12.4,5.47-25.53,5.47" style="fill:none;stroke:#263238;stroke-miterlimit:10"></path><path d="M410.42,90.82a107.78,107.78,0,0,1-23.34,11.67" style="fill:none;stroke:#263238;stroke-miterlimit:10"></path><path d="M403.49,115.62s15.32.37,24.8-6.2a231.32,231.32,0,0,0,2.56-25.89" style="fill:none;stroke:#263238;stroke-miterlimit:10"></path><path d="M39.34,200.58a80.23,80.23,0,0,1,12-11.69c8.75-6.91,19.09-11.52,27.68-18.55,7.16-5.84,19.08-15.59,19.08-15.59s-4.24,24-5.51,33-9.41,35.53-16.32,49.79-9.44,17.66-14.79,27.34-5.61,14.66-5.61,14.66l-9.78-6.73s-12-8.13-17.82-25.87c-4.72-14.24-1.38-27.94,6-39.59" style="fill:none;stroke:#263238;stroke-miterlimit:10"></path><path d="M87,169.26s-5.86,14-21.7,32.46c-10.36,12.08-17.88,26.92-19.76,42.84-1.29,11,3,21.45,8.5,30.8" style="fill:none;stroke:#263238;stroke-miterlimit:10"></path><path d="M64.64,183.79a75.34,75.34,0,0,0,.66,17.93" style="fill:none;stroke:#263238;stroke-miterlimit:10"></path><path d="M49.79,196.72s.76,12.64,4.18,20.88c0,0,9.71,4.22,22.17-.8" style="fill:none;stroke:#263238;stroke-miterlimit:10"></path><path d="M34.11,217.63S39.36,229.91,45.63,238" style="fill:none;stroke:#263238;stroke-miterlimit:10"></path><path d="M67.44,202.55s10.22-2.82,18.16-9.32" style="fill:none;stroke:#263238;stroke-miterlimit:10"></path><path d="M63.21,235.63c1.61-.46,3.26-1,4.91-1.61" style="fill:none;stroke:#263238;stroke-miterlimit:10"></path><path d="M48.22,238.5a82.48,82.48,0,0,0,10.09-1.63" style="fill:none;stroke:#263238;stroke-miterlimit:10"></path><path d="M64.68,250.09s-9.09,7.8-18.08,8.51a180.92,180.92,0,0,1-14.35-14.41" style="fill:none;stroke:#263238;stroke-miterlimit:10"></path><path d="M211.21,425.14a68.52,68.52,0,0,0-3.89,9.14c-3,8.63-3.72,17.85-6.81,26.39l-6.86,18.94s17.38-9.78,24-13.19c5.25-2.73,17.91-11.83,27.47-20.07" style="fill:none;stroke:#263238;stroke-miterlimit:10"></path><path d="M248.9,443c1-.91,1.89-1.79,2.73-2.63,9.13-9.2,11.06-12.07,17.08-18.82s9.79-8.31,9.79-8.31l-7.84-5.72s-9.52-7-24.79-6.74c-13.45.24-23.77,7.77-30.84,18" style="fill:none;stroke:#263238;stroke-miterlimit:10"></path><path d="M236.44,422.76a59.06,59.06,0,0,1,12.25-8.08c8.14-4,17.35-3.54,26.07-1.79" style="fill:none;stroke:#263238;stroke-miterlimit:10"></path><path d="M201.82,467.08S211,458.76,221,441.53a73.37,73.37,0,0,1,11.61-15.22" style="fill:none;stroke:#263238;stroke-miterlimit:10"></path><path d="M207,445.89a61.76,61.76,0,0,1,14-4.36" style="fill:none;stroke:#263238;stroke-miterlimit:10"></path><path d="M212.93,430.93s9.95-2.85,17.25-2.44c0,0,5.88,6.35,5.38,17.32" style="fill:none;stroke:#263238;stroke-miterlimit:10"></path><path d="M224.81,413.16s10.9.72,18.87,3.36" style="fill:none;stroke:#263238;stroke-miterlimit:10"></path><path d="M222.21,443a46,46,0,0,1-2.27,16.53" style="fill:none;stroke:#263238;stroke-miterlimit:10"></path><path d="M244.74,418.39A68.89,68.89,0,0,1,246.68,435" style="fill:none;stroke:#263238;stroke-miterlimit:10"></path><path d="M258.14,428s3.56-9.13,1.67-16.26a147.49,147.49,0,0,0-15-7.17" style="fill:none;stroke:#263238;stroke-miterlimit:10"></path><path d="M227.08,390.12l1.19.36c18.35,5.37,23.44,5.86,36.43,8.91s17.66,6.86,17.66,6.86l1.9-14.19s2.41-17.28-8.69-36.9a51.31,51.31,0,0,0-9.81-12.44" style="fill:none;stroke:#263238;stroke-miterlimit:10"></path><path d="M261.37,339.1c-15.58-11.45-36.89-13.64-56.43-10.35-13.26,2.24-25.76,7.74-39,9.74l-29.4,4.43s24.92,15.66,34,21.81c8.14,5.52,33.39,17.53,51.75,23.83" style="fill:none;stroke:#263238;stroke-miterlimit:10"></path><path d="M158.54,344.7s17.27,6.1,46.62,6.89c19.19.52,38.56,5.81,54.31,17,10.89,7.76,16.8,20,20.66,32.54" style="fill:none;stroke:#263238;stroke-miterlimit:10"></path><path d="M189.65,336.47a90.85,90.85,0,0,1,15.51,15.12" style="fill:none;stroke:#263238;stroke-miterlimit:10"></path><path d="M213.24,333.67s10.69,10.91,15.29,20.66c0,0-4.09,12.1-18.68,19.17" style="fill:none;stroke:#263238;stroke-miterlimit:10"></path><path d="M244.65,336.59s6.73,14.64,8.92,26.84" style="fill:none;stroke:#263238;stroke-miterlimit:10"></path><path d="M204.16,354.18s-10.8,6.84-23,8.69" style="fill:none;stroke:#263238;stroke-miterlimit:10"></path><path d="M251.88,366.12a102.26,102.26,0,0,1-20.13,14.17" style="fill:none;stroke:#263238;stroke-miterlimit:10"></path><path d="M257.07,388.39c4.57-1.39,10.14-3.71,14.1-7.44a218.78,218.78,0,0,0-1.26-24.51" style="fill:none;stroke:#263238;stroke-miterlimit:10"></path><path d="M248.91,390.22a49.75,49.75,0,0,0,4.9-1" style="fill:none;stroke:#263238;stroke-miterlimit:10"></path></g><g id="freepik--coffee-cup-1--inject-2"><path d="M81.49,113.31,79.82,371.57C79,379,107,395.43,142.1,399.4s63.86-6.06,64.7-13.46l56.1-252.1Z" style="fill:#009C86;stroke:#263238;stroke-miterlimit:10"></path><path d="M80.28,300.62c74.67-23.2,127-51.79,162.76-77.52l18.7-84c-7.48,9.17-21.65,24.32-45.16,41.58-41.33,30.33-90.48,52-136,67.28Z" style="fill:#263238"></path><path d="M228.48,288.49a289.64,289.64,0,0,1-26.59,21.95c-37.12,27.23-80.54,47.47-121.95,62.38,2,7.87,29,22.82,62.16,26.58,1.44.17,2.87.3,4.29.41a508.52,508.52,0,0,0,65.22-35.49Z" style="fill:#263238"></path><path d="M88.51,114.1c-2.36.87-4.7,1.72-7,2.56l-.35,53.05c41.77-13.76,76.16-29.18,104.29-44.64Z" style="fill:#263238"></path><path d="M72.06,103l-.88,7.76c-1.41,12.51,42.73,27.78,98.6,34.1s102.31,1.31,103.73-11.2l.87-7.76Z" style="fill:#dedede;stroke:#263238;stroke-miterlimit:10"></path><ellipse cx="173.22" cy="114.48" rx="22.8" ry="101.81" transform="translate(39.99 273.73) rotate(-83.54)" style="fill:#fff;stroke:#263238;stroke-miterlimit:10"></ellipse><path d="M75.24,91.29l-.86,7.62c-1.39,12.29,42,27.28,96.81,33.49s100.46,1.29,101.85-11l.87-7.62Z" style="fill:#dedede;stroke:#263238;stroke-miterlimit:10"></path><ellipse cx="174.57" cy="102.54" rx="22.39" ry="99.97" transform="translate(53.05 264.47) rotate(-83.54)" style="fill:#fff;stroke:#263238;stroke-miterlimit:10"></ellipse><path d="M89.06,62.11,85.9,90c-1.19,10.58,37.66,23.66,86.78,29.22s89.92,1.49,91.11-9.09L267,82.25Z" style="fill:#dedede;stroke:#263238;stroke-miterlimit:10"></path><ellipse cx="178.01" cy="72.18" rx="19.27" ry="89.51" transform="translate(86.27 240.94) rotate(-83.54)" style="fill:#fff;stroke:#263238;stroke-miterlimit:10"></ellipse><ellipse cx="178.01" cy="72.18" rx="16.06" ry="74.58" transform="translate(86.27 240.94) rotate(-83.54)" style="fill:#dedede;stroke:#263238;stroke-miterlimit:10"></ellipse><ellipse cx="177.71" cy="74.81" rx="13.41" ry="73.56" transform="translate(83.39 242.98) rotate(-83.54)" style="fill:#fff;stroke:#263238;stroke-miterlimit:10"></ellipse><ellipse cx="196.74" cy="70.04" rx="6.34" ry="26.9" transform="translate(105.01 257.66) rotate(-83.54)" style="fill:#263238"></ellipse><circle cx="158.68" cy="243.21" r="55.74" transform="translate(-28.52 21.2) rotate(-7.02)" style="fill:#fff"></circle><path d="M187.81,246.51c-2.42,21.32-14.2,37.5-33.8,35.28s-26.86-20.55-24.45-41.88,13.59-37.57,33.19-35.35S190.22,225.18,187.81,246.51Z" style="fill:#263238"></path><path d="M160.1,275.09c.59-5.88.73-11.23-.75-16.3s-4-10.19-5.56-16.09c-.4-1.45-.69-2.95-1-4.44a36.72,36.72,0,0,1-.37-4.56,37.19,37.19,0,0,1,.91-8.94,27.92,27.92,0,0,1,3.45-8.61c1.79-2.66,4-5.41,7.5-6.8a17.79,17.79,0,0,0-2.81,7.92,46.17,46.17,0,0,0-.4,8c.13,2.67.22,5.44.61,8a55.92,55.92,0,0,0,1.56,7.81c1.29,5.18,3.42,10.84,3.49,17.06A24.72,24.72,0,0,1,160.1,275.09Z" style="fill:#fff"></path></g><g id="freepik--coffee-cup-2--inject-2"><path d="M239.29,192l93.63,240.69c1.95,7.19,34.1,12.16,68.16,2.92s57.14-29.17,55.19-36.36l-40.78-255Z" style="fill:#009C86;stroke:#263238;stroke-miterlimit:10"></path><polygon points="328.66 421.73 437.9 284.38 415.49 144.21 382.33 153.2 276.14 286.71 328.66 421.73" style="fill:#fff"></polygon><polygon points="419.46 267.88 423.66 258.02 413.79 253.85 415.5 243.28 404.92 241.62 404.03 230.94 393.36 231.86 389.95 221.7 379.81 225.14 374.08 216.08 365.05 221.85 357.31 214.44 349.94 222.21 340.65 216.87 335.33 226.17 325.04 223.19 322.1 233.49 311.39 233.08 311.03 243.79 300.53 245.95 302.73 256.44 293.05 261.03 297.68 270.69 289.38 277.47 296.21 285.74 289.79 294.32 298.39 300.7 294.19 310.57 304.07 314.73 302.35 325.31 312.94 326.96 313.82 337.64 324.5 336.72 327.9 346.88 338.05 343.44 343.78 352.5 352.81 346.73 360.55 354.15 367.92 346.37 377.21 351.71 382.53 342.41 392.82 345.39 395.75 335.09 406.46 335.5 406.83 324.79 417.32 322.63 415.13 312.15 424.81 307.55 420.17 297.89 428.47 291.11 421.65 282.85 428.07 274.27 419.46 267.88" style="fill:#263238"></polygon><circle cx="358.93" cy="284.29" r="58.29" transform="translate(-15.42 547.94) rotate(-73.54)" style="fill:#fff"></circle><path d="M371.9,332.13a49.57,49.57,0,1,1,34.87-60.81A49.62,49.62,0,0,1,371.9,332.13Z" style="fill:#263238"></path><path d="M239.29,192l93.63,240.69c1.95,7.19,34.1,12.16,68.16,2.92s57.14-29.17,55.19-36.36l-40.78-255Z" style="fill:none;stroke:#263238;stroke-miterlimit:10"></path><path d="M390,276.42a1.51,1.51,0,0,0-1.56-.51l-5.63,1.53c-.06-.21-.1-.42-.16-.63a24.79,24.79,0,0,0-1-3L327.9,288.37a26.52,26.52,0,0,0,.63,3.12c2.77,10.19,11.51,17.25,21.8,18.83a2.44,2.44,0,0,0-.37,1.87c.69,2.56,6.78,3.13,13.59,1.29s11.78-5.42,11.09-8a2.45,2.45,0,0,0-1.27-1.42,28.58,28.58,0,0,0,5.56-6c.49-.09,1-.21,1.54-.35a15.59,15.59,0,0,0,9.94-7.54C394.68,282.36,390.21,276.66,390,276.42Zm-2.24,12.3a12.29,12.29,0,0,1-6.73,5.6,25.43,25.43,0,0,0,2.31-13.92l4.82-1.3C389,280.61,390.26,284.18,387.78,288.72Z" style="fill:#009C86"></path><path d="M338.48,283.5a1,1,0,0,1-1.08-.38,16.15,16.15,0,0,1-2.43-10,31.66,31.66,0,0,1,2.26-8.72,22.66,22.66,0,0,0,1.59-5.58c.28-3.63-1.61-7.83-1.63-7.87a1,1,0,1,1,1.82-.83,20.68,20.68,0,0,1,1.8,8.86,24,24,0,0,1-1.7,6.12,29.55,29.55,0,0,0-2.15,8.16A14.38,14.38,0,0,0,339,282a1,1,0,0,1-.23,1.4A1,1,0,0,1,338.48,283.5Z" style="fill:#009C86"></path><path d="M352.87,279.6a1,1,0,0,1-1.07-.38,16.15,16.15,0,0,1-2.44-10,31.48,31.48,0,0,1,2.27-8.72,22.66,22.66,0,0,0,1.59-5.58c.28-3.64-1.61-7.83-1.63-7.87a1,1,0,1,1,1.82-.84c.08.19,2.13,4.71,1.8,8.86a24.17,24.17,0,0,1-1.7,6.12,29.18,29.18,0,0,0-2.15,8.17,14.3,14.3,0,0,0,2.07,8.67,1,1,0,0,1-.24,1.39A.88.88,0,0,1,352.87,279.6Z" style="fill:#009C86"></path><path d="M368,275.48a1,1,0,0,1-1.07-.38,16,16,0,0,1-2.44-10,31.15,31.15,0,0,1,2.27-8.71,22.79,22.79,0,0,0,1.58-5.59c.29-3.63-1.61-7.82-1.63-7.87a1,1,0,0,1,.5-1.32,1,1,0,0,1,1.32.49,20.79,20.79,0,0,1,1.81,8.86,23.8,23.8,0,0,1-1.71,6.12,29.51,29.51,0,0,0-2.14,8.17,14.36,14.36,0,0,0,2.06,8.67,1,1,0,0,1-.23,1.39A1,1,0,0,1,368,275.48Z" style="fill:#009C86"></path><path d="M226.73,185.91l2.05,7.54c3.29,12.15,50,10.07,104.22-4.64s95.59-36.5,92.3-48.65l-2.05-7.54Z" style="fill:#263238"></path><ellipse cx="324.99" cy="159.26" rx="101.81" ry="22.8" transform="translate(-30.35 90.6) rotate(-15.17)" style="fill:#8a8a8a;stroke:#263238;stroke-miterlimit:10"></ellipse><path d="M225.37,173.83l2,7.4c3.24,11.93,49.06,9.89,102.34-4.56s93.86-35.83,90.63-47.76l-2-7.4Z" style="fill:#263238"></path><ellipse cx="321.85" cy="147.67" rx="99.97" ry="22.39" transform="translate(-27.43 89.37) rotate(-15.17)" style="fill:#8a8a8a;stroke:#263238;stroke-miterlimit:10"></ellipse><path d="M227.46,141.6l7.35,27.12c2.79,10.27,43.73,8.11,91.44-4.82s84.13-31.76,81.35-42l-7.35-27.12Z" style="fill:#263238"></path><ellipse cx="313.85" cy="118.18" rx="89.51" ry="19.27" transform="translate(-19.99 86.25) rotate(-15.17)" style="fill:#8a8a8a;stroke:#263238;stroke-miterlimit:10"></ellipse><path d="M385.83,98.66c2.32,8.56-28,24.24-67.77,35s-73.87,12.58-76.19,4,28-24.24,67.78-35S383.51,90.1,385.83,98.66Z" style="fill:#263238"></path><ellipse cx="314.51" cy="120.58" rx="73.68" ry="13.57" transform="translate(-20.6 86.51) rotate(-15.17)" style="fill:#8a8a8a;stroke:#263238;stroke-miterlimit:10"></ellipse><path d="M356.44,102.25c.92,3.38-10,9.27-24.3,13.16s-26.71,4.3-27.63.92,10-9.27,24.31-13.16S355.53,98.87,356.44,102.25Z" style="fill:#263238"></path></g></svg>
