<svg xmlns="http://www.w3.org/2000/svg" viewBox="0 0 500 500"><g id="freepik--Shadow--inject-382"><ellipse id="freepik--shadow--inject-382" cx="238.3" cy="425.27" rx="92.67" ry="53.5" style="fill:#f0f0f0"></ellipse></g><g id="freepik--Balloons--inject-382"><g id="freepik--balloons--inject-382"><path d="M170.3,286.62c3.38,7,2.86,15.88,3.56,23.5a149.2,149.2,0,0,0,4.38,23.52c4.2,16.41,9.65,32.91,11.21,49.86.83,9-.27,17.66-1.25,26.62,0,.2.36.56.45.25,4.75-16.07,1.38-33.52-2.31-49.4-3.83-16.43-9.6-32.57-11.32-49.43-.47-4.7-.77-9.42-1.3-14.12-.44-3.83-.88-7.71-3-11-.18-.29-.58-.1-.42.22Z" style="fill:#e0e0e0"></path><path d="M167.47,290c1.49.65,3.61,2.85,2.05,4.58a3.38,3.38,0,0,1-2,.77c-.53,0-.53.07,0,.31l.15,1.19c-2.09.77-3,2.18-2.75,4.24a6,6,0,0,1-1.68,1.44c-.19.15,0,.59.23.47,1.74-.86,4.08-3.11,2.18-5.06-.59-.6-2.18-1.14-2.55,0-.57,1.67,2.59,2,3.52,1.76,2-.5,2.37-2.78,1.71-4.52-.56-1.47-2.62-3-4.12-1.56-1,.92-.2,2,.91,2.42,1.93.79,5.19.19,5.8-2.06s-1.4-4-3.42-4.46c-.31-.07-.17.43,0,.51Z" style="fill:#e0e0e0"></path><path d="M141.42,256.58c1.86,5.26,3.22,10.69,5,16,1.6,4.67,3.86,9.08,5.61,13.7,3.89,10.34,5.71,21.15,7.87,31.94a115,115,0,0,0,4,15.86,128.47,128.47,0,0,0,5.93,13.5c4.55,9.3,9.19,18.67,12.65,28.44,1.94,5.47,3.3,11.12,4.74,16.74A89.79,89.79,0,0,1,190.41,412c0,.28.48.57.5.18.34-5.7-.71-11.26-2-16.78-1.23-5.1-2.46-10.25-4-15.27-3.07-9.93-7.62-19.39-12.12-28.73-2.27-4.71-4.66-9.36-6.62-14.21a88.52,88.52,0,0,1-4.37-14.91c-2.31-10.67-3.79-21.55-7.27-31.94-1.9-5.67-4.61-11-6.67-16.56s-3.49-11.67-6-17.24c-.13-.29-.55-.29-.42.07Z" style="fill:#e0e0e0"></path><path d="M148.76,339c2,3.28,3.13,7,5.13,10.3a43.86,43.86,0,0,0,5,6.43c5.32,5.94,11.35,11.37,15.78,18,4.6,6.94,7,15,9,23,1,4,1.85,8,2.87,11.9a23.73,23.73,0,0,0,1.66,4.94c.82,1.61,1.87,3.06,2.59,4.72.23.53,1.26.3,1-.31-.71-1.66-1.77-3.1-2.58-4.71a27.45,27.45,0,0,1-1.83-5.63c-1-3.93-1.86-7.9-2.85-11.83-1.79-7.11-3.93-14.23-7.71-20.57s-9-11.4-14-16.7c-3.21-3.41-6.66-6.79-8.88-11-1.59-3-2.76-6.08-4.72-8.86-.19-.27-.62-.08-.42.24Z" style="fill:#e0e0e0"></path><path d="M148.59,342.24a5,5,0,0,1,.75,1.64c.14.66,0,3.71-1.35,3.88l-2-1q4.5,1.08,3.12,4.44l-1.09,1.1a2.57,2.57,0,0,1-1.63,3.33c-.35.17,0,.68.36.59,5.64-1.73-.63-7.92-2.26-5.29-1,1.6,1.63,2.57,2.75,2.45a3.41,3.41,0,0,0,3-3.91,4,4,0,0,0-3.68-3.5c-1.37,0-3.37,1.08-2.09,2.56s3.68.36,4.65-.71c1.6-1.77,1.11-4.16-.25-5.85-.19-.23-.46,0-.31.25Z" style="fill:#e0e0e0"></path><path d="M144,257.61h0c-.53-1.77-5.66-5.53-6.36-5.32s-2.58,6-2,7.84h0a2.17,2.17,0,0,0,1.73,1.35,6.79,6.79,0,0,0,5.93-1.78,2.17,2.17,0,0,0,.71-2.09Z" style="fill:#009C86"></path><path d="M144,257.61h0c-.53-1.77-5.66-5.53-6.36-5.32s-2.58,6-2,7.84h0a2.17,2.17,0,0,0,1.73,1.35,6.79,6.79,0,0,0,5.93-1.78,2.17,2.17,0,0,0,.71-2.09Z" style="opacity:0.1"></path><path d="M160.94,199.14a17.55,17.55,0,0,0-8-10.08v0l-.08,0a19.13,19.13,0,0,0-15.15-1.73c-6.4,1.92-10.61,8.33-12.07,15a3.14,3.14,0,0,1-5.24,1.57c-4.92-4.78-12-7.81-18.36-5.88a19.13,19.13,0,0,0-11.68,9.8l0,.08h0a17.58,17.58,0,0,0-1.09,12.8c4.1,13.64,21.33,23.21,35.05,28.84l14.45,5.89,8.81-12.87C155.94,230.26,165,212.78,160.94,199.14Z" style="fill:#009C86"></path><path d="M160.94,199.14a17.55,17.55,0,0,0-8-10.08v0l-.08,0a19.13,19.13,0,0,0-15.15-1.73c-6.4,1.92-10.61,8.33-12.07,15a3.14,3.14,0,0,1-5.24,1.57c-4.92-4.78-12-7.81-18.36-5.88a19.13,19.13,0,0,0-11.68,9.8l0,.08h0a17.58,17.58,0,0,0-1.09,12.8c4.1,13.64,21.33,23.21,35.05,28.84l14.45,5.89,8.81-12.87C155.94,230.26,165,212.78,160.94,199.14Z" style="opacity:0.2"></path><path d="M161.53,211.63c-1.41,3.33-13,26-29.84,27.07-20.07,1.22-42.61-16.1-41.32-30.83a17.58,17.58,0,0,0-1.09,12.8c4.1,13.64,21.33,23.21,35.05,28.84l14.45,5.89,8.81-12.87C153.54,233.79,159.87,222.4,161.53,211.63Z" style="opacity:0.1"></path><path d="M152,338.47h0c-1-1.57-6.9-3.89-7.52-3.51s-1,6.42.06,8.1h0a2.21,2.21,0,0,0,2,.86,6.82,6.82,0,0,0,5.27-3.24,2.2,2.2,0,0,0,.16-2.21Z" style="fill:#009C86"></path><path d="M152,338.47h0c-1-1.57-6.9-3.89-7.52-3.51s-1,6.42.06,8.1h0a2.21,2.21,0,0,0,2,.86,6.82,6.82,0,0,0,5.27-3.24,2.2,2.2,0,0,0,.16-2.21Z" style="fill:#fff;opacity:0.30000000000000004"></path><path d="M153.36,277.62a17.57,17.57,0,0,0-10.29-7.71h0l-.08,0a19.11,19.11,0,0,0-15.09,2.22c-5.7,3.49-8.12,10.76-7.81,17.62a3.14,3.14,0,0,1-4.67,2.86c-6-3.36-13.56-4.48-19.24-1a19.14,19.14,0,0,0-8.79,12.46v.09h0a17.48,17.48,0,0,0,2.23,12.65c7.46,12.13,26.57,17,41.28,18.88l15.47,2L151.59,323C156.51,309,160.82,289.74,153.36,277.62Z" style="fill:#009C86"></path><path d="M153.36,277.62a17.57,17.57,0,0,0-10.29-7.71h0l-.08,0a19.11,19.11,0,0,0-15.09,2.22c-5.7,3.49-8.12,10.76-7.81,17.62a3.14,3.14,0,0,1-4.67,2.86c-6-3.36-13.56-4.48-19.24-1a19.14,19.14,0,0,0-8.79,12.46v.09h0a17.48,17.48,0,0,0,2.23,12.65c7.46,12.13,26.57,17,41.28,18.88l15.47,2L151.59,323C156.51,309,160.82,289.74,153.36,277.62Z" style="fill:#fff;opacity:0.5"></path><path d="M157.13,289.54c-.5,3.57-5.85,28.49-21.89,33.81-19.08,6.34-45.31-4.62-47.84-19.19a17.48,17.48,0,0,0,2.23,12.65c7.46,12.13,26.57,17,41.28,18.88l15.47,2L151.59,323C155.1,313,158.29,300.37,157.13,289.54Z" style="opacity:0.05"></path><path d="M174.61,287.12h0c-.63-1.74-6-5.24-6.63-5s-2.28,6.08-1.61,7.93h0a2.2,2.2,0,0,0,1.8,1.27,6.82,6.82,0,0,0,5.83-2.09,2.18,2.18,0,0,0,.61-2.12Z" style="fill:#009C86"></path><path d="M174.61,287.12h0c-.63-1.74-6-5.24-6.63-5s-2.28,6.08-1.61,7.93h0a2.2,2.2,0,0,0,1.8,1.27,6.82,6.82,0,0,0,5.83-2.09,2.18,2.18,0,0,0,.61-2.12Z" style="opacity:0.1"></path><path d="M188.49,227.85a17.57,17.57,0,0,0-8.47-9.66h0l-.08-.05a19.09,19.09,0,0,0-15.21-.94c-6.3,2.24-10.17,8.85-11.29,15.62a3.14,3.14,0,0,1-5.15,1.85c-5.16-4.53-12.34-7.19-18.64-4.93a19.13,19.13,0,0,0-11.16,10.38l0,.09h0a17.59,17.59,0,0,0-.43,12.84c4.8,13.41,22.5,22.08,36.49,27l14.74,5.14,8.13-13.31C185.1,259.19,193.29,241.26,188.49,227.85Z" style="fill:#009C86"></path><path d="M189.73,240.3c-1.24,3.39-11.62,26.66-28.4,28.56-20,2.26-43.39-13.88-42.86-28.65a17.59,17.59,0,0,0-.43,12.84c4.8,13.41,22.5,22.08,36.49,27l14.74,5.14,8.13-13.31C182.89,262.83,188.62,251.13,189.73,240.3Z" style="opacity:0.1"></path></g><g id="freepik--balloons--inject-382"><path d="M327.77,294.84c-2.18,3.21-3.27,7-4.23,10.76-1.08,4.17-2,8.39-2.83,12.62-1.73,9.28-2.6,18.69-3.91,28a140.75,140.75,0,0,1-6.32,27.27c-3,8.37-6.53,16.55-8.51,25.23a74.43,74.43,0,0,0-.12,30.64c.06.28.47.45.46.06-.35-9.22-1.63-18.16,0-27.36,1.47-8.16,4.57-15.9,7.45-23.65A138.57,138.57,0,0,0,316.64,354c1.51-8.56,2.36-17.22,3.55-25.83.67-4.83,1.43-9.66,2.47-14.43,1.35-6.25,2.62-12.76,5.6-18.45.13-.26-.29-.7-.49-.41Z" style="fill:#e0e0e0"></path><path d="M330.9,298c-2.2.41-4.25,2.44-3.2,4.81.82,1.84,3.56,2.34,5.34,1.88,1.19-.32,2.3-1.49,1.17-2.5-1.5-1.34-3.51-.16-4.14,1.39-.7,1.75-.34,4,1.66,4.6.93.27,3.69.12,3.55-1.35-.12-1.31-1.84-1.12-2.58-.45-2.07,1.89.55,4.31,2.17,5.2.26.15.29-.29.12-.41-2-1.42-.06-.68-2-3.76-1.81-.47-2.54-1.33-2.18-2.59a1,1,0,0,1,.35-.92l-.77-.08q-2.72-.85-1.84-3.23a4.61,4.61,0,0,1,2.59-2.09c.24-.1,0-.55-.23-.5Z" style="fill:#e0e0e0"></path><path d="M364.64,251.32c-2.05,5.84-5.32,11.15-6.86,17.18-1.64,6.44-2.64,13-4.15,19.5a193.12,193.12,0,0,1-11,34c-4.76,10.83-11.76,20.36-16.07,31.41-4.46,11.43-7.6,23.35-13.71,34.08-3.21,5.64-6.73,11.09-8.57,17.38A54.73,54.73,0,0,0,302,426.67c0,.24.51.45.5.1a68.07,68.07,0,0,1,2.22-19.84c1.65-6.2,4.7-11.58,7.91-17.08,5.93-10.16,9.4-21.18,13.4-32.18a102,102,0,0,1,7.58-16.86c2.85-4.85,5.79-9.55,8.22-14.64a180.6,180.6,0,0,0,11.9-34.27c1.74-7,2.89-14.15,4.51-21.19,1.54-6.67,5.14-12.49,6.84-19.08.06-.23-.32-.63-.43-.31Z" style="fill:#e0e0e0"></path><path d="M350,346.51c-3.73,6.83-10.44,11-15.46,16.76-5.25,6-8.91,13.21-12.57,20.26-1.94,3.74-3.88,7.48-6.09,11.07s-4.75,6.9-6.92,10.49c-4.74,7.85-6.77,16.47-7.8,25.51-.07.59,1,.76,1.07.16,1-8.92,3-17.49,7.71-25.26,3.87-6.4,8.19-12.36,11.68-19,3.38-6.45,6.57-13.06,10.85-19,3.44-4.76,7.85-8.5,12-12.56a27.15,27.15,0,0,0,6-8c.12-.28-.33-.72-.5-.41Z" style="fill:#e0e0e0"></path><path d="M348.51,350.86a4.35,4.35,0,0,0-.23,5.88c.91,1,3.52,2.22,4.64.82s-1-2.6-2.29-2.62a3.88,3.88,0,0,0-3.61,4.41,3.6,3.6,0,0,0,3.67,3c1.18-.06,2.92-1.13,1.95-2.46-1.06-1.48-3.51-.12-4.13,1.08a3,3,0,0,0,2,4.19c.44.14.4-.41.09-.57-1.43-.73-3-4.53-2.76-6.14.13-.4.26-.79.4-1.18q.53-1.64,1.38-.51c.9.69.8.61-.29-.23A2.38,2.38,0,0,1,348,354.2a5,5,0,0,1,.89-2.93c.12-.2-.15-.64-.34-.41Z" style="fill:#e0e0e0"></path><path d="M360.63,251.74h0c.48-1.79,5.51-5.69,6.21-5.5s2.75,5.89,2.23,7.79h0a2.21,2.21,0,0,1-1.7,1.4,6.83,6.83,0,0,1-6-1.62,2.19,2.19,0,0,1-.77-2.07Z" style="fill:#009C86"></path><path d="M360.63,251.74h0c.48-1.79,5.51-5.69,6.21-5.5s2.75,5.89,2.23,7.79h0a2.21,2.21,0,0,1-1.7,1.4,6.83,6.83,0,0,1-6-1.62,2.19,2.19,0,0,1-.77-2.07Z" style="opacity:0.1"></path><path d="M342.13,193.74a17.54,17.54,0,0,1,7.69-10.29v0l.08-.05A19.17,19.17,0,0,1,365,181.24c6.46,1.74,10.84,8,12.48,14.7a3.14,3.14,0,0,0,5.28,1.43c4.79-4.92,11.74-8.13,18.19-6.37a19.08,19.08,0,0,1,11.95,9.47l0,.08h0a17.57,17.57,0,0,1,1.44,12.77c-3.73,13.74-20.69,23.78-34.26,29.78l-14.28,6.27-9.16-12.63C348,224.72,338.4,207.48,342.13,193.74Z" style="fill:#009C86"></path><path d="M342.13,193.74a17.54,17.54,0,0,1,7.69-10.29v0l.08-.05A19.17,19.17,0,0,1,365,181.24c6.46,1.74,10.84,8,12.48,14.7a3.14,3.14,0,0,0,5.28,1.43c4.79-4.92,11.74-8.13,18.19-6.37a19.08,19.08,0,0,1,11.95,9.47l0,.08h0a17.57,17.57,0,0,1,1.44,12.77c-3.73,13.74-20.69,23.78-34.26,29.78l-14.28,6.27-9.16-12.63C348,224.72,338.4,207.48,342.13,193.74Z" style="opacity:0.2"></path><path d="M341.88,206.25c1.49,3.28,13.67,25.67,30.55,26.24,20.1.69,42.16-17.24,40.47-31.93a17.57,17.57,0,0,1,1.44,12.77c-3.73,13.74-20.69,23.78-34.26,29.78l-14.28,6.27-9.16-12.63C350.46,228.18,343.83,217,341.88,206.25Z" style="opacity:0.1"></path><path d="M345.51,347.33h0c1-1.56,7-3.76,7.59-3.37s.84,6.44-.23,8.1h0a2.2,2.2,0,0,1-2,.82,6.84,6.84,0,0,1-5.21-3.35,2.18,2.18,0,0,1-.11-2.2Z" style="fill:#009C86"></path><path d="M345.51,347.33h0c1-1.56,7-3.76,7.59-3.37s.84,6.44-.23,8.1h0a2.2,2.2,0,0,1-2,.82,6.84,6.84,0,0,1-5.21-3.35,2.18,2.18,0,0,1-.11-2.2Z" style="opacity:0.1"></path><path d="M345.36,286.45A17.52,17.52,0,0,1,355.8,279v0l.09,0a19.08,19.08,0,0,1,15,2.51c5.63,3.6,7.91,10.92,7.46,17.77a3.15,3.15,0,0,0,4.61,3c6-3.25,13.65-4.22,19.27-.6a19.17,19.17,0,0,1,8.53,12.64v.09h0a17.56,17.56,0,0,1-2.49,12.61c-7.69,12-26.9,16.43-41.64,18.06l-15.51,1.68-4.92-14.8C341.59,317.75,337.66,298.43,345.36,286.45Z" style="fill:#009C86"></path><path d="M341.35,298.3c.44,3.58,5.29,28.6,21.22,34.24,19,6.71,45.39-3.73,48.22-18.25a17.56,17.56,0,0,1-2.49,12.61c-7.69,12-26.9,16.43-41.64,18.06l-15.51,1.68-4.92-14.8C342.92,321.8,340,309.1,341.35,298.3Z" style="opacity:0.1"></path><path d="M321.63,296.61h0c.53-1.78,5.66-5.55,6.36-5.34s2.59,6,2,7.84h0a2.19,2.19,0,0,1-1.74,1.35,6.77,6.77,0,0,1-5.93-1.77,2.19,2.19,0,0,1-.72-2.08Z" style="fill:#009C86"></path><path d="M321.63,296.61h0c.53-1.78,5.66-5.55,6.36-5.34s2.59,6,2,7.84h0a2.19,2.19,0,0,1-1.74,1.35,6.77,6.77,0,0,1-5.93-1.77,2.19,2.19,0,0,1-.72-2.08Z" style="fill:#fff;opacity:0.30000000000000004"></path><path d="M304.61,238.16a17.5,17.5,0,0,1,7.95-10.09v0l.08-.05a19.1,19.1,0,0,1,15.14-1.75c6.41,1.9,10.63,8.3,12.1,15a3.15,3.15,0,0,0,5.25,1.57c4.9-4.8,11.94-7.84,18.34-5.92a19.11,19.11,0,0,1,11.7,9.78l0,.08h0a17.58,17.58,0,0,1,1.11,12.8c-4.08,13.64-21.29,23.25-35,28.9l-14.44,5.92L318,281.52C309.66,269.28,300.53,251.81,304.61,238.16Z" style="fill:#009C86"></path><path d="M304.61,238.16a17.5,17.5,0,0,1,7.95-10.09v0l.08-.05a19.1,19.1,0,0,1,15.14-1.75c6.41,1.9,10.63,8.3,12.1,15a3.15,3.15,0,0,0,5.25,1.57c4.9-4.8,11.94-7.84,18.34-5.92a19.11,19.11,0,0,1,11.7,9.78l0,.08h0a17.58,17.58,0,0,1,1.11,12.8c-4.08,13.64-21.29,23.25-35,28.9l-14.44,5.92L318,281.52C309.66,269.28,300.53,251.81,304.61,238.16Z" style="fill:#fff;opacity:0.5"></path><path d="M304,250.66c1.41,3.32,13,26,29.88,27,20.07,1.19,42.58-16.17,41.27-30.9a17.58,17.58,0,0,1,1.11,12.8c-4.08,13.64-21.29,23.25-35,28.9l-14.44,5.92L318,281.52C312.07,272.8,305.72,261.42,304,250.66Z" style="opacity:0.05"></path></g></g><g id="freepik--speech-bubble--inject-382"><g id="freepik--speech-bubble--inject-382"><path d="M321.29,73.65a4.12,4.12,0,0,1-1.51,1.77,5.72,5.72,0,0,1-2.5.81,4.78,4.78,0,0,1-3.28-.55,4.09,4.09,0,0,1-1.46-3.09c-.05-.42-.08-1-.09-1.67l.06-3.37-1.86.25-.6-3.63,2.51-.35,0-1.85,4.18-.71,0,2,2.35-.33.89,3.72L316.7,67l0,2.92a3.61,3.61,0,0,0,0,.39,1.71,1.71,0,0,0,.52,1.11,1.28,1.28,0,0,0,1,.34,1.87,1.87,0,0,0,1.46-1.29Z" style="fill:#455a64"></path><path d="M336.59,73.6l-4.71.57-1.06-6.08a2.92,2.92,0,0,0-.65-1.48,1.48,1.48,0,0,0-1.38-.47c-1.06.13-1.53,1.12-1.42,3l.71,5.51-4.77.5-2.44-18.18h4.93l.83,6.37a4.78,4.78,0,0,1,3.18-1.49,5,5,0,0,1,2.44.33,5.13,5.13,0,0,1,3.28,4.16Z" style="fill:#455a64"></path><path d="M346.64,72.39l-.1-.86a4.6,4.6,0,0,1-3.28,1.62,4.66,4.66,0,0,1-2.85-.55,6.07,6.07,0,0,1-2.26-2.11A7.18,7.18,0,0,1,337,67.4a6.59,6.59,0,0,1,.41-3.23,6.41,6.41,0,0,1,1.77-2.58,4.64,4.64,0,0,1,2.55-1.2,4,4,0,0,1,3.39.81l-.1-.84,3.9-.47,2,12Zm-1.2-4.4a2.13,2.13,0,0,0,.38-1.64,2,2,0,0,0-.79-1.47,2.15,2.15,0,0,0-1.62-.38,2,2,0,0,0-1.41.77,2,2,0,0,0-.43,1.54,2.37,2.37,0,0,0,1.26,1.75,1.93,1.93,0,0,0,1.14.2A2.08,2.08,0,0,0,345.44,68Z" style="fill:#455a64"></path><path d="M359.22,65.26a3,3,0,0,0-.56-1.63,1.32,1.32,0,0,0-1.21-.46,1.25,1.25,0,0,0-1.08.68,3.34,3.34,0,0,0-.12,1.73h0l.66,5.6-4.72.57-1.54-12.19,4.8-.83.11.9a4.93,4.93,0,0,1,2.86-1.49,4,4,0,0,1,3.71,1.3,8.44,8.44,0,0,1,1.74,4.62l.76,6.13-4.83.58Z" style="fill:#455a64"></path><path d="M379.31,68.46l-4.73.85L370.72,65l.53,4.42-4.76.62-2.2-18.3,4.78-.81,1.18,10,1.93-4.06,4.8-.23-2.78,5.79Z" style="fill:#455a64"></path><path d="M356.89,75.25l-2,12.33a9.92,9.92,0,0,1-2,4.87,5.42,5.42,0,0,1-3.57,1.94,7.5,7.5,0,0,1-1.93,0,14.67,14.67,0,0,1-2.11-.47l1.21-4.66a2.43,2.43,0,0,0,1.05.57,3.06,3.06,0,0,0,1.23.24,1.81,1.81,0,0,0,1.15-.54,3,3,0,0,0,.62-1.2l-7-11,4.87-.64,3,5.76.81-6.26Z" style="fill:#455a64"></path><path d="M361.68,86.66a7.19,7.19,0,0,1-2.75-2.17,6.48,6.48,0,0,1-1.31-3.23,5.6,5.6,0,0,1,.51-3.17,6.44,6.44,0,0,1,2.15-2.55,7.1,7.1,0,0,1,3.35-1.26,6.64,6.64,0,0,1,3.4.42,6,6,0,0,1,2.55,2,6.22,6.22,0,0,1,1.2,3,6.87,6.87,0,0,1-2.55,6.18,6.25,6.25,0,0,1-3.14,1.3A6.46,6.46,0,0,1,361.68,86.66ZM365.9,82a2.12,2.12,0,0,0,.41-1.58,2.1,2.1,0,0,0-.75-1.37,2,2,0,0,0-1.57-.45,2.09,2.09,0,0,0-1.46.78,2.14,2.14,0,0,0,2,3.4A2,2,0,0,0,365.9,82Z" style="fill:#455a64"></path><path d="M380.72,85.27l-.11-.91a4.86,4.86,0,0,1-2.86,1.5,4,4,0,0,1-3.71-1.3,8.44,8.44,0,0,1-1.74-4.63l-.76-6.12,4.83-.58.55,5.5a3,3,0,0,0,.56,1.64,1.29,1.29,0,0,0,1.21.45,1.25,1.25,0,0,0,1.08-.67,3.25,3.25,0,0,0,.12-1.73h0l-.65-5.61,4.72-.57,1.53,12.2Z" style="fill:#455a64"></path><path d="M386.83,77.89l-1.81-11,5-.6L391.25,77Zm1.07,4.94a2.56,2.56,0,0,1-.94-1.69,2.29,2.29,0,0,1,.23-1.31,2.72,2.72,0,0,1,.88-1,2.82,2.82,0,0,1,1.25-.48,2.37,2.37,0,0,1,1.77.46,2.34,2.34,0,0,1,.9,1.68,2.6,2.6,0,0,1-.49,1.94,2.34,2.34,0,0,1-1.69,1A2.43,2.43,0,0,1,387.9,82.83Z" style="fill:#455a64"></path><path d="M394,77l-1.81-11,5-.6,1.26,10.65ZM395.1,82a2.46,2.46,0,0,1-.94-1.69,2.25,2.25,0,0,1,.22-1.3,2.57,2.57,0,0,1,.88-1,2.76,2.76,0,0,1,1.25-.49,2.41,2.41,0,0,1,1.77.46,2.34,2.34,0,0,1,.9,1.69,2.58,2.58,0,0,1-.49,1.93,2.39,2.39,0,0,1-1.69,1A2.44,2.44,0,0,1,395.1,82Z" style="fill:#455a64"></path><path d="M401.21,76.15l-1.81-11,5-.6,1.26,10.64Zm1.08,4.95a2.5,2.5,0,0,1-.94-1.7,2.27,2.27,0,0,1,.22-1.3,2.74,2.74,0,0,1,2.13-1.51,2.33,2.33,0,0,1,2.68,2.14,2.61,2.61,0,0,1-.5,1.93,2.35,2.35,0,0,1-1.69,1A2.39,2.39,0,0,1,402.29,81.1Z" style="fill:#455a64"></path><path d="M295.91,97.84c.62.87,2,1.14,3,1.39.71.18,1.43.33,2.15.46a29.17,29.17,0,0,0,4.06.46,30.84,30.84,0,0,0,7.84-.78,26,26,0,0,0,6.72-2.43,25.57,25.57,0,0,0,5.59-4.16,17.93,17.93,0,0,0,4.68-6.39.82.82,0,0,0-.35-1c-.28-.2-.87-.37-1.14,0-1.61,1.91-3,4-4.78,5.76A23.87,23.87,0,0,1,318.54,95a26.76,26.76,0,0,1-13,3.14,32.21,32.21,0,0,1-4.17-.28c-.69-.1-1.38-.22-2.06-.36a11.91,11.91,0,0,0-3.06-.53c-.42,0-.51.55-.3.85Z" style="fill:#009C86"></path><path d="M375.27,47.77a1,1,0,0,1-.84-1L375,36.07a1,1,0,0,1,1-.92,1,1,0,0,1,.92,1l-.6,10.69a1,1,0,0,1-1,.92Z" style="fill:#009C86"></path><path d="M381.1,49.65a1,1,0,0,1-.4-.15,1,1,0,0,1-.28-1.35l5.9-8.93a1,1,0,1,1,1.62,1.07l-5.89,8.93A1,1,0,0,1,381.1,49.65Z" style="fill:#009C86"></path><path d="M384.9,53.84a1,1,0,0,1-.79-.65,1,1,0,0,1,.61-1.23l10.14-3.43a1,1,0,0,1,.62,1.84L385.34,53.8A1,1,0,0,1,384.9,53.84Z" style="fill:#009C86"></path><path d="M355.81,110.3a1,1,0,0,1-.92-.66L351.45,99.5a1,1,0,0,1,1.85-.63L356.73,109a1,1,0,0,1-.61,1.23A1.12,1.12,0,0,1,355.81,110.3Z" style="fill:#009C86"></path><path d="M344.12,111.08a.62.62,0,0,1-.19,0,1,1,0,0,1-.76-1.14l2.14-10.49a1,1,0,1,1,1.9.38l-2.14,10.49A1,1,0,0,1,344.12,111.08Z" style="fill:#009C86"></path><path d="M333.05,105.08a.94.94,0,0,1-.74-.34,1,1,0,0,1,.1-1.37l8.13-7a1,1,0,0,1,1.27,1.48l-8.13,7A1,1,0,0,1,333.05,105.08Z" style="fill:#009C86"></path></g></g><g id="freepik--Character--inject-382"><g id="freepik--character--inject-382"><path d="M225.36,58.54a11.84,11.84,0,0,0-5.87-3.31,19.2,19.2,0,0,0-19.58,7.2c-3.9,5.38-4.67,12.45-4.12,19.07s2.26,13.1,2.8,19.72c.49,5.87-5.68,10.69-9.79,14-.76.6-1.6,1.49-1.23,2.38a2.14,2.14,0,0,0,1.49,1,18.73,18.73,0,0,0,19.27-5.85l.14,5a9,9,0,0,0,6.37-4.57,18.77,18.77,0,0,0,2.2-7.75c.88-9-1.84-17.54-2.07-26.4-.25-10,3.16-17.43,9.48-16.29,2.57.46,3.81-.41,2.15-2.68A13.74,13.74,0,0,0,225.36,58.54Z" style="fill:#263238"></path><path d="M223.34,60.33c-.33-.45-2.39-10.84,2.25-16.51s7-1.38,6.55,3.63A16.61,16.61,0,0,1,223.34,60.33Z" style="fill:#009C86"></path><path d="M224.81,60.1c-.49.26-11.07.82-16-4.58s-.36-7.11,4.54-6A16.56,16.56,0,0,1,224.81,60.1Z" style="fill:#009C86"></path><path d="M317.06,153.8c-3.77-3.77-12.71-14.43-14.58-17-2.35-3.19-8.8-10.88-12.7-13.77s-12.06-4.33-18.63-3.85c-.52,8,6.73,20.53,6.73,20.53l16.43,16.45c9.62,8.6,21.4,13.53,34.82,15.66C327.88,168.15,320.84,157.57,317.06,153.8Z" style="fill:#ffa8a7"></path><path d="M294.31,156.19c1.92.36,8.25-.05,12.56.76s12.15,4.12,16.28,9.8Z" style="fill:#f28f8f"></path><path d="M271.15,119.21c2.25-.09,12-1.53,18,2.88,5.45,4,9.54,9.73,13.92,15.11,2.18,2.68,5.52,7.06,5.52,7.06s-4.44,7.36-15.38,12.74l-18.95-18.22Z" style="fill:#37474f"></path><path d="M265.25,403.23a1.11,1.11,0,0,0-.82.8c-.5,1.71-.48,3.65-.83,5.41-.55,2.74-1.13,6.69-.68,8.89s3.43,4.35,9,5.93c3.37,1,9.38,3.87,12.13,6.36,3.36,3.06,10.56,5.62,15.43,5.77,5.71.17,11.66-1.35,13-5.46.58-1.73,1-4.69-7.12-7.9a47.63,47.63,0,0,1-8-3.74c-3.79-2.23-9.48-5.18-12.62-8.12a16.07,16.07,0,0,1-4.65-10.87,6.86,6.86,0,0,0-9,7.26c-.39.22-.87-.15-1-.57a8.2,8.2,0,0,1-.14-1.32,2.8,2.8,0,0,0-1.88-2A5.4,5.4,0,0,0,265.25,403.23Z" style="fill:#37474f"></path><path d="M187.15,403.41a11.65,11.65,0,0,1,.7,3.92,24.41,24.41,0,0,1,.47,3.34c0,1,.23,2.18,1.15,2.53a2,2,0,0,0,2.08-.68,21.06,21.06,0,0,0,1.32-1.92,5.63,5.63,0,0,1,4.17-2.27c1.63-.09,1.75.06,2.85,1.27l-.94,2.25c-3.15,8-3.34,15.16-1.38,23.49.4,1.7,2.86,4.47,4.21,5.82a25.63,25.63,0,0,0,2.53,2.24c.79.62,1.57,1.35,1.67,2a4.43,4.43,0,0,1-.49,2.77,5.15,5.15,0,0,1-3.09,2.26,20,20,0,0,1-14.74-.48,13.47,13.47,0,0,1-5-4.21c-2.74-4.77-2.43-9.31-2.47-13.42-.07-9.07-1.57-13.75-2.3-18.29C177,408.57,185.44,402.59,187.15,403.41Z" style="fill:#37474f"></path><path d="M283.93,408.34c-3.36-3.63-4-7.13-3.54-13.87s3.83-66.32,5.2-81c2.31-24.7,3.48-94.11,1.43-111.24l-65.85,5.18c-4.78,12-8.3,26.67-7.55,49.77.56,17.62.15,65.41.15,65.41s-8,7-13.78,20.89C194.92,355.71,189.08,398,189.08,398h0a37.13,37.13,0,0,1-1.93,5.37,10.44,10.44,0,0,0-2.37,6.18,103.41,103.41,0,0,0,2.32,21.77c.8,3.7,3.11,6.09,6.8,7.56a5.87,5.87,0,0,0,2.58.42,1.92,1.92,0,0,0,1.25-.46c.63-.63.06-2.11-.06-2.85a29.33,29.33,0,0,1-.33-3.62c-.07-2.38,0-5.28.16-7.65A78.08,78.08,0,0,1,200.06,409l1.28-3.05h0s28.58-57.63,36.7-71.67c6.45-11,10.74-53.82,15.32-77.21L261.08,313s-3.39,10.1-4.28,17.83c-1.2,10.37,6.13,51,8.32,65.48a29.69,29.69,0,0,1,.09,8.1h0c.77,6.26,5.48,8.19,10.34,11.74,2.41,1.76,13,8.22,19.46,9.52,5.22,1.06,9.23-2.07,6-4.08C294.94,417.43,287.29,412,283.93,408.34Z" style="fill:#ffa8a7"></path><path d="M250.67,274.82c.67-6.28,2.48-14.88,2.48-14.88l2.94,24.23L258.45,312a110.36,110.36,0,0,0-2.06,11.3c-1,7.48-.55,19.5.82,27.53s4.21,22.44,4.21,22.44c11.94,6.24,21-.15,21-.15s1.16-16.07,3.39-39.62,3-47.11,3.16-66.68c0,0,2.83-48.8-5.41-81.73-9.69,6.82-38.47,8.19-50.08-1,0,0-4.66,7.7-14.82,24.87-8,13.49-5.64,35.15-5.78,53.26-.21,27.94-.06,59.49-.06,59.49A89.19,89.19,0,0,0,203,335c-5.09,8.2-7.7,26.43-7.7,26.43s5.14,10.93,22.69,11.4c0,0,17.06-31.05,21.34-38.1S250,281.11,250.67,274.82Z" style="fill:#009C86"></path><path d="M253.15,259.94l6.41-24.66S271.84,234,281.39,227c0,0-2,9-18.87,11.67l-7.28,24.21.85,21.34Z" style="opacity:0.15"></path><path d="M287.15,138.72c-8-10.5-10.68-14.13-16-19.51L242,118c-2.27.2-15.32,2.3-15.32,2.3-3.26,1.44-6.84,9.19-6,15.33.9,6.41,1.64,12.76,3.24,20.61s4.1,13.95,4.67,16.47c1.12,5.05,1.66,10.3-1,15.36-5.52,10.55-10,17.36-11.89,26.22a19.11,19.11,0,0,0,8.35-4.82c3.56-3.41,5.7-5,8.55-9,0,0,.29,6,6.25,13.86a33.19,33.19,0,0,0,5.2,5.49c10.7,9,42.88,12.85,43.93-15.22,0,0-3.15-12.81-3.77-20.43s-.75-12.21-.68-14.17C296.64,160.59,292.36,145.53,287.15,138.72Z" style="fill:#455a64"></path><path d="M166.47,163.34c3.53-6.13,8.1-7.69,13.92-12.06s17.79-13.91,25.16-18.92c8.37-5.69,14.95-10.79,21.19-10.74,0,0,1-.19,2.77,4.77s1.59,17.11-2.44,20.34-36.67,21.32-36.67,21.32l-23.93-4.71" style="fill:#ffa8a7"></path><path d="M206.07,159.26l-2.36-4.67c-2.22,1.51-5.85,2.89-11.75,3.23s-16.46.1-22.31,3.61a2.29,2.29,0,0,0-1,2.33l21.77,4.29S197.85,163.92,206.07,159.26Z" style="fill:#f28f8f"></path><path d="M226.67,120.25c-3.57,0-8.54,2.2-12.83,5.36-5.3,3.91-19.24,14.63-19.24,14.63s2.82,15,12.48,18.82c0,0,18.09-10,19.53-11.09s3.95-3.49,4.41-12S228.6,123.57,226.67,120.25Z" style="fill:#37474f"></path><path d="M265.93,165.43s-7.93,7-17.66,4.24a17,17,0,0,1-9.3-6.29.69.69,0,0,0-1.18.68c1.37,3.21,4.34,6.95,10.76,8.5C260.36,175.39,265.93,165.43,265.93,165.43Z" style="fill:#37474f"></path><path d="M234.91,50.79c10-3.95,17.29-3.2,22.25-2.1,20.67-9.33,37.62,18.31,19.12,32,0,0-.86,21.52-17.23,26.68l-18,3.75c-2.72-7.47-18.44-9.9-22.66-26.56C213.47,68.81,224.26,55,234.91,50.79Z" style="fill:#263238"></path><path d="M266.73,58.57c3.7,1.47,9.23,9.36,11.6,27.33,2,15.23-2.33,19.75-4.63,21.21s-7.17,1.55-11.92,1.5l1.43,10.51s4.87,2.95,5.87,8.08c.81,4.17-10.47,6.81-18.17,2.17a22.62,22.62,0,0,1-8.57-8.74l-2.88-21.89s-2.47,3.19-7,.86c-4.9-2.5-5.95-8.18-3.44-11.66s8.41-2.79,10.25,1.2c0,0,6.51-1.44,15.08-8.89C263.59,72.18,265.08,65.35,266.73,58.57Z" style="fill:#ffa8a7"></path><path d="M258,84.79a1.93,1.93,0,1,1-2.3-1.58A2,2,0,0,1,258,84.79Z" style="fill:#263238"></path><path d="M259.65,95.21l7.56,1.46a3.77,3.77,0,0,1-4.43,3.17A4,4,0,0,1,259.65,95.21Z" style="fill:#b16668"></path><path d="M262.78,99.84a3.6,3.6,0,0,0,1.85-.13,3.19,3.19,0,0,0-4.77-2.44A3.91,3.91,0,0,0,262.78,99.84Z" style="fill:#f28f8f"></path><path d="M273.83,76.7l-4.28-2.08a2.28,2.28,0,0,1,3.11-1.15A2.5,2.5,0,0,1,273.83,76.7Z" style="fill:#263238"></path><path d="M273.64,81.32a1.94,1.94,0,1,1-2.3-1.58A2,2,0,0,1,273.64,81.32Z" style="fill:#263238"></path><polygon points="264.33 81.03 266.42 92.47 272.18 89.66 264.33 81.03" style="fill:#f28f8f"></polygon><path d="M261.78,108.61c-5,.12-15.47-1.21-17.65-4.93a10.43,10.43,0,0,0,4.31,4.52c3.4,2.1,13.75,3.45,13.75,3.45Z" style="fill:#f28f8f"></path><path d="M329.13,171.85c-8.44-7.15-11.06-11.26-34.82-15.66,0,0-13.07-4-14.69-5.15s-4.92-1.26-7.31-2.14-11.06-4-13.33-5.53-3.26-2.52-7.16-2.77-9.17-.88-10.43-.75-2.39,2.89-3.65,5-1.89,2.43-.91,6.67c.64,2.8,1.54,3.13,1.54,3.13.68.29,1.63-1,1.63-1,1.37.37,1.56-1.17,1.56-1.17,1.07,0,3.1-3.48,3.1-3.48l2.05-.51c1.79.51,5.57,3.62,4.31,6.5s-5.79,4-8.48,6-3,6.37-1.78,7c.72.36,1.61-1.09,4-2.72a28.58,28.58,0,0,1,6.92-3.2c5.32-1.63,9.86-.49,14.39-.74s5.91-2,21.22,7.55c6.31,3.93,11.69,7.42,16.87,9.31a58.53,58.53,0,0,0,18.22,3.12C329.64,181.71,330.39,175.55,329.13,171.85Z" style="fill:#ffa8a7"></path><path d="M269.27,158a15,15,0,0,1-5.77-2.8c-1.86-1.34-3.88-3.88-5.35-5.22s-3.53,0-4.72,0a2.28,2.28,0,0,1-1.87-1c1.9-.38,1.87-1.5,1.87-1.5a5.21,5.21,0,0,1-3.61.25c-.8-.43-.84-1.72-.84-1.72-.09,1.08-1.17,1.64-2.54,1.81s-1.78-.47-1.78-.47a3.82,3.82,0,0,1,0,1.66l2.05-.51a4,4,0,0,1,.74.31c1.91,1,4.67,3.67,3.57,6.19a6,6,0,0,1-2.29,2.44h0c4.92-1.42,5.84-4.62,7.09-5.1.88-.34,2.08-.09,4.71,2.1A14.62,14.62,0,0,0,269.27,158Z" style="fill:#f28f8f"></path><path d="M252.42,143.86a43.39,43.39,0,0,0-5.79.24c-.83.16-3.84,2.28-4.37,2.61s-.78,2.41-1.22,3.75-.25,1.59.31,2c0,0-1.26-.17-.69-2.12s.74-3.78,1.37-4.29a27.35,27.35,0,0,1,4.5-2.5C247.16,143.4,252.42,143.86,252.42,143.86Z" style="fill:#f28f8f"></path><path d="M244.66,140.32c-1.1-.17-1.43.36-2.27,1.32a50.94,50.94,0,0,0-3.52,5,7.44,7.44,0,0,0,0,2.51c0,.93.12,3.13,1.13,4.53,0,0-.48-.07-1-1.4a19.92,19.92,0,0,1-.65-4.52c-.1-.84,0-1.09.78-2.27a44.23,44.23,0,0,1,3.33-4.4C243.26,140.27,243.55,140,244.66,140.32Z" style="fill:#f28f8f"></path><path d="M273.72,161.77a5.78,5.78,0,0,1-1-3.76c0-1.82-.15-2.22-.48-.81s-2.08,3.86-3.53,3.9A12,12,0,0,1,273.72,161.77Z" style="fill:#f28f8f"></path><path d="M166.47,163.34c-3.53,6.13-4.67,10.9-2.39,13.5,1.76,2,5,1.74,9.56,2,4.39.22,12.51-.76,18.18-3.95,8.27-4.66,12.62-7.17,19.39-7.78,6.43-.57,9.26-2.12,12.81-2.44,4.18-.37,8.59-.49,11.48,1a28.73,28.73,0,0,1,3.81,2.41c.3.14.73-.17.82-1.11a5.76,5.76,0,0,0-.72-3.13c-1.13-2.05-4.44-3.35-8-4s-6.12-2.41-6.65-4.53a7.29,7.29,0,0,1,.53-4.92,19.11,19.11,0,0,0,2.1.49,25.62,25.62,0,0,0,2.94.21,14.58,14.58,0,0,0,2.39,2.51c.84.58,1.63.83,2,.47a3.27,3.27,0,0,0,2,1.49c1.13.13,1.35-.43,1.35-.43s-.37-2.17-.48-3.08-.1-2.32-.23-3-.73-1.16-2.43-3-2.48-3.47-3.3-3.64a7.26,7.26,0,0,0-2.35.17,4.79,4.79,0,0,0-1.7,0c-1.35.13-3.24.35-5.41.5s-4.69.07-5.3.68-1.57,2.09-2.92,3.65a74.44,74.44,0,0,1-6.09,5.92,37.34,37.34,0,0,1-3.4,2.55,16.69,16.69,0,0,1-4,2c-2.42.71-6,.85-10.63,1.24C182,159.72,169.72,159.59,166.47,163.34Z" style="fill:#ffa8a7"></path><path d="M229.51,159.3c-2.52-.85-4.3-2.32-4.72-4a7.29,7.29,0,0,1,.53-4.92,3.06,3.06,0,0,1-2.19.95,7.87,7.87,0,0,1-3.69-.95A3.51,3.51,0,0,0,222,152a23.61,23.61,0,0,1-4.07,1.66c-2.35.71-2.8,3-3.64,5.38s-1.06,4.77-3.8,6.22c0,0,2.69-.41,5.2-3.81s4.19-4.35,6.76-4.4,4.22,1.93,7,2.25Z" style="fill:#f28f8f"></path><path d="M234.79,154c.58-.51.83-.68.11-1.6s-1.75-2.3-2.27-2.88a7.58,7.58,0,0,0-2.47-1.59c-1.27-.63-1.79-1.15-3.09-1.24a4.75,4.75,0,0,1,2.15.35c.88.46,3,1.57,3.48,1.89a15.34,15.34,0,0,1,2.09,2.61c.35.52,1.07,1.43,1,1.75S234.79,154,234.79,154Z" style="fill:#f28f8f"></path><path d="M234.79,154a2.13,2.13,0,0,0,2.13.4c.69-.4.63-.71.22-1.64a27.07,27.07,0,0,1-1-3.14,3.66,3.66,0,0,0-1.22-2.34c-1.55-1.21-5.17-4.25-5.62-4.76,0,0,3.6,2.7,4.24,3.13,1.1.74,2.53,1.7,2.71,2.41s.92,3.55,1.06,3.92a4,4,0,0,1,.5,2C237.56,154.54,236.77,155.65,234.79,154Z" style="fill:#f28f8f"></path><path d="M210.87,167.13h0c-2.08-.17-3.14-1.74-4.05-2.25s.11.91,0,1.8a2.15,2.15,0,0,1-.84,1.37h0a28,28,0,0,1,4.88-.92Z" style="fill:#f28f8f"></path></g></g></svg>